SplineFontDB: 1.0
FontName: ScidbDiagramMerida
FullName: Scidb Diagram Merida
FamilyName: Scidb Diagram Merida
Weight: Book
Copyright: 
Version: 1.0
ItalicAngle: 0
UnderlinePosition: 0
UnderlineWidth: 0
Ascent: 1638
Descent: 410
Order2: 1
XUID: [1021 555 146130107 3137821]
FSType: 0
OS2Version: 1
OS2_WeightWidthSlopeOnly: 0
OS2_UseTypoMetrics: 1
CreationTime: -2082844800
ModificationTime: 1256922108
PfmFamily: 17
TTFWeight: 400
TTFWidth: 5
LineGap: 0
VLineGap: 0
Panose: 2 11 6 3 5 3 2 2 2 4
OS2TypoAscent: 411
OS2TypoAOffset: 1
OS2TypoDescent: 406
OS2TypoDOffset: 1
OS2TypoLinegap: 0
OS2WinAscent: 0
OS2WinAOffset: 1
OS2WinDescent: 4
OS2WinDOffset: 1
HheadAscent: 0
HheadAOffset: 1
HheadDescent: -4
HheadDOffset: 1
OS2SubXSize: 0
OS2SubYSize: 0
OS2SubXOff: 0
OS2SubYOff: 0
OS2SupXSize: 0
OS2SupYSize: 0
OS2SupXOff: 0
OS2SupYOff: 0
OS2StrikeYSize: 0
OS2StrikeYPos: 0
OS2Vendor: 'SWAP'
TtfTable: prep 4
\,ZLZ
EndTtf
TtfTable: fpgm 354
\,ZL[9=Os-:fst'!KL<m!WRk`!(7j<!!iQ,?X>=o!!+Vn+@U!4YQ8,`\,ZR]\,ZOZ+YC2(""YQa
YQH1@;HP/H+Gq;!8S!]$7NcAQA?Z1_7NcAQA5ZMSAVsVD+KtiE=D8n^!*!&DYWu>1BcsV[<*1<J
5\4)$3\@iA"=tZbYQQ7A;HP0$=Wg0VC11YW"=6M[C11XN=<i]+0E!K4!!OoH+Ktqp:fpRsY^f+\
YWtTZ)^-@I7BjR(=KoS/)^/?e/[tcb/0H'(Bgf0+?m$R\I;'NdYQ8,`\,Zab\,Z^_/[tcd/5%+i
""$rKY^d[s5Zru%+Ktqp;ck7fYeZ-R)i>kC+Ktqp;ck7f\,cSeMAqEt=WjpN-<""k+h.P<MM`@1
,?Z/!!!=QH=KhlR7CWAK:fnqc\,h+)+WIWf,t0%%,9^2/+^%2b\,Zgd92eq]6lR9m=Y0UR
EndTtf
TtfTable: cvt  2
!%IsK
EndTtf
TtfTable: maxp 32
!!*'"!+l;O!%n6O!!!!"z!"&]+!WWCbz
EndTtf
LangName: 1033 "" "" "Regular" "Scidb Diagram Merida" "" "" "" "" "" "" "" "" "" "" "" "" "Scidb Diagram Merida" "Regular" 
Encoding: UnicodeBmp
UnicodeInterp: none
NameList: Adobe Glyph List
DisplaySize: -24
AntiAlias: 1
FitToEm: 1
WinInfo: 0 29 16
BeginChars: 65544 82
StartChar: asterisk
Encoding: 42 42 0
Width: 2048
Flags: W
Fore
19 30 m 0,0,1
 32 30 32 30 32 18 c 256,2,3
 32 6 32 6 19 6 c 0,4,5
 7 6 7 6 7 18 c 256,6,7
 7 30 7 30 19 30 c 0,0,1
EndSplineSet
EndChar
StartChar: plus
Encoding: 43 43 1
Width: 2048
Flags: W
Fore
0 585 m 1,0,-1
 1462 2047 l 1,1,-1
 1507 2047 l 1,2,-1
 0 537 l 1,3,-1
 0 585 l 1,0,-1
0 1413 m 1,4,-1
 632 2047 l 1,5,-1
 677 2047 l 1,6,-1
 0 1370 l 1,7,-1
 0 1413 l 1,4,-1
0 1691 m 1,8,-1
 356 2047 l 1,9,-1
 401 2047 l 1,10,-1
 0 1647 l 1,11,-1
 0 1691 l 1,8,-1
0 1136 m 1,12,-1
 909 2047 l 1,13,-1
 954 2047 l 1,14,-1
 0 1094 l 1,15,-1
 0 1136 l 1,12,-1
0 858 m 1,16,-1
 1185 2047 l 1,17,-1
 1230 2047 l 1,18,-1
 0 814 l 1,19,-1
 0 858 l 1,16,-1
0 309 m 1,20,-1
 1738 2047 l 1,21,-1
 1783 2047 l 1,22,-1
 0 261 l 1,23,-1
 0 309 l 1,20,-1
1949 0 m 1,24,-1
 1906 0 l 1,25,-1
 2048 140 l 1,26,-1
 2048 95 l 1,27,-1
 1949 0 l 1,24,-1
0 1923 m 1,28,-1
 0 1967 l 1,29,-1
 79 2047 l 1,30,-1
 124 2047 l 1,31,-1
 0 1923 l 1,28,-1
1630 0 m 1,32,-1
 2048 416 l 1,33,-1
 2048 370 l 1,34,-1
 1677 0 l 1,35,-1
 1630 0 l 1,32,-1
1353 0 m 1,36,-1
 2048 691 l 1,37,-1
 2048 646 l 1,38,-1
 1402 0 l 1,39,-1
 1353 0 l 1,36,-1
1077 0 m 1,40,-1
 2048 970 l 1,41,-1
 2048 923 l 1,42,-1
 1124 0 l 1,43,-1
 1077 0 l 1,40,-1
794 0 m 1,44,-1
 2048 1251 l 1,45,-1
 2048 1206 l 1,46,-1
 839 0 l 1,47,-1
 794 0 l 1,44,-1
518 0 m 1,48,-1
 2048 1528 l 1,49,-1
 2048 1483 l 1,50,-1
 563 0 l 1,51,-1
 518 0 l 1,48,-1
241 0 m 1,52,-1
 2048 1804 l 1,53,-1
 2048 1759 l 1,54,-1
 286 0 l 1,55,-1
 241 0 l 1,52,-1
0 32 m 1,56,-1
 2015 2047 l 1,57,58
 2048 2047 2048 2047 2048 2040 c 1,59,-1
 13 0 l 1,60,61
 0 0 0 0 0 32 c 1,56,-1
EndSplineSet
EndChar
StartChar: p
Encoding: 112 112 2
Width: 2048
Flags: W
Fore
1024 273 m 1,0,-1
 1515 273 l 1,1,2
 1536 345 1536 345 1536 414 c 0,3,4
 1536 570 1536 570 1449.5 697 c 128,-1,5
 1363 824 1363 824 1227 884 c 1,6,7
 1161 889 1161 889 1161 956 c 0,8,9
 1161 1009 1161 1009 1228 1034 c 1,10,11
 1321 1099 1321 1099 1321 1206 c 0,12,13
 1321 1283 1321 1283 1269 1341 c 128,-1,14
 1217 1399 1217 1399 1143 1408 c 0,15,16
 1083 1413 1083 1413 1083 1476 c 0,17,18
 1083 1504 1083 1504 1105 1528 c 1,19,20
 1159 1570 1159 1570 1159 1638 c 0,21,22
 1159 1694 1159 1694 1119 1734 c 128,-1,23
 1079 1774 1079 1774 1024 1774 c 0,24,25
 967 1774 967 1774 927.5 1734 c 128,-1,26
 888 1694 888 1694 888 1638 c 0,27,28
 888 1571 888 1571 942 1528 c 0,29,30
 964 1506 964 1506 964 1476 c 0,31,32
 964 1413 964 1413 905 1408 c 0,33,34
 830 1399 830 1399 778.5 1341 c 128,-1,35
 727 1283 727 1283 727 1206 c 0,36,37
 727 1099 727 1099 820 1034 c 1,38,39
 887 1008 887 1008 887 956 c 0,40,41
 887 889 887 889 820 884 c 1,42,43
 684 824 684 824 598 697 c 128,-1,44
 512 570 512 570 512 414 c 0,45,46
 512 340 512 340 533 273 c 1,47,-1
 1024 273 l 1,0,-1
1024 205 m 1,48,-1
 484 205 l 1,49,50
 444 305 444 305 444 414 c 0,51,52
 444 599 444 599 549 746 c 128,-1,53
 654 893 654 893 819 956 c 1,54,55
 748 989 748 989 703.5 1055.5 c 128,-1,56
 659 1122 659 1122 659 1206 c 0,57,58
 659 1311 659 1311 729 1388 c 128,-1,59
 799 1465 799 1465 901 1477 c 1,60,61
 820 1538 820 1538 820 1638 c 0,62,63
 820 1722 820 1722 879.5 1782 c 128,-1,64
 939 1842 939 1842 1024 1842 c 0,65,66
 1108 1842 1108 1842 1168 1782 c 128,-1,67
 1228 1722 1228 1722 1228 1638 c 0,68,69
 1228 1538 1228 1538 1147 1477 c 1,70,71
 1249 1465 1249 1465 1319 1388 c 128,-1,72
 1389 1311 1389 1311 1389 1206 c 0,73,74
 1389 1122 1389 1122 1343.5 1055.5 c 128,-1,75
 1298 989 1298 989 1228 956 c 1,76,77
 1393 893 1393 893 1498 746 c 128,-1,78
 1603 599 1603 599 1603 414 c 0,79,80
 1603 306 1603 306 1564 205 c 1,81,-1
 1024 205 l 1,48,-1
EndSplineSet
EndChar
StartChar: o
Encoding: 111 111 3
Width: 2048
Flags: W
Fore
1024 205 m 1,0,-1
 484 205 l 1,1,2
 444 305 444 305 444 414 c 0,3,4
 444 599 444 599 549 746 c 128,-1,5
 654 893 654 893 819 956 c 1,6,7
 748 989 748 989 703.5 1055.5 c 128,-1,8
 659 1122 659 1122 659 1206 c 0,9,10
 659 1311 659 1311 729 1388 c 128,-1,11
 799 1465 799 1465 901 1477 c 1,12,13
 820 1538 820 1538 820 1638 c 0,14,15
 820 1722 820 1722 879.5 1782 c 128,-1,16
 939 1842 939 1842 1024 1842 c 0,17,18
 1108 1842 1108 1842 1168 1782 c 128,-1,19
 1228 1722 1228 1722 1228 1638 c 0,20,21
 1228 1538 1228 1538 1147 1477 c 1,22,23
 1249 1465 1249 1465 1319 1388 c 128,-1,24
 1389 1311 1389 1311 1389 1206 c 0,25,26
 1389 1122 1389 1122 1343.5 1055.5 c 128,-1,27
 1298 989 1298 989 1228 956 c 1,28,29
 1393 893 1393 893 1498 746 c 128,-1,30
 1603 599 1603 599 1603 414 c 0,31,32
 1603 306 1603 306 1564 205 c 1,33,-1
 1024 205 l 1,0,-1
EndSplineSet
EndChar
StartChar: n
Encoding: 110 110 4
Width: 2048
Flags: W
Fore
697 1359 m 1,0,1
 710 1339 710 1339 707 1317 c 0,2,3
 697 1253 697 1253 636 1263 c 0,4,5
 618 1266 618 1266 607 1275 c 1,6,7
 603 1270 603 1270 595 1253 c 0,8,9
 584 1221 584 1221 553 1231 c 0,10,11
 522 1243 522 1243 529 1276 c 1,12,13
 574 1391 574 1391 692 1434 c 0,14,15
 726 1444 726 1444 737 1414 c 0,16,17
 749 1382 749 1382 719 1370 c 0,18,19
 713 1367 713 1367 708 1364.5 c 128,-1,20
 703 1362 703 1362 697 1359 c 1,0,1
400 882 m 0,21,22
 371 864 371 864 365 834 c 1,23,24
 366 801 366 801 334 798 c 0,25,26
 299 794 299 794 298 828 c 0,27,28
 302 894 302 894 357 933 c 0,29,30
 383 954 383 954 405 929 c 0,31,32
 427 902 427 902 400 882 c 0,21,22
1079 1697 m 1,33,34
 1236 1687 1236 1687 1370 1616 c 128,-1,35
 1504 1545 1504 1545 1598 1434 c 0,36,37
 1664 1356 1664 1356 1722.5 1246 c 128,-1,38
 1781 1136 1781 1136 1816 1013 c 0,39,40
 1856 870 1856 870 1866.5 712.5 c 128,-1,41
 1877 555 1877 555 1877 421 c 2,42,-1
 1877 203 l 1,43,44
 1566 203 1566 203 1318 203 c 2,45,-1
 647 203 l 2,46,47
 638 203 638 203 638.5 252 c 128,-1,48
 639 301 639 301 645 331 c 0,49,50
 649 355 649 355 664 399 c 128,-1,51
 679 443 679 443 714 506 c 0,52,53
 730 538 730 538 790 599.5 c 128,-1,54
 850 661 850 661 928 742 c 0,55,56
 973 788 973 788 998.5 858 c 128,-1,57
 1024 928 1024 928 1020 985 c 1,58,59
 983 955 983 955 939 936 c 0,60,61
 727 860 727 860 632 716 c 0,62,63
 625 707 625 707 587 635 c 0,64,65
 567 597 567 597 553 583 c 0,66,67
 534 564 534 564 498 562 c 0,68,69
 442 559 442 559 411 616 c 1,70,71
 369 604 369 604 336 606 c 1,72,73
 280 627 280 627 255 651 c 0,74,75
 204 702 204 702 188.5 753 c 128,-1,76
 173 804 173 804 173 863 c 0,77,78
 173 947 173 947 277 1085 c 0,79,80
 399 1244 399 1244 407 1327 c 0,81,82
 407 1363 407 1363 414 1408 c 0,83,84
 420 1439 420 1439 439 1468 c 0,85,86
 452 1488 452 1488 456.5 1495.5 c 128,-1,87
 461 1503 461 1503 473 1518 c 0,88,89
 482 1530 482 1530 488 1536.5 c 128,-1,90
 494 1543 494 1543 503 1554 c 0,91,92
 514 1567 514 1567 531 1584 c 1,93,94
 478 1730 478 1730 488 1885 c 1,95,96
 687 1814 687 1814 822 1662 c 1,97,98
 855 1775 855 1775 952 1845 c 1,99,100
 1032 1789 1032 1789 1079 1697 c 1,33,34
1756 274 m 1,101,102
 1755 274 1755 274 1758 328.5 c 128,-1,103
 1761 383 1761 383 1761 446 c 0,104,105
 1762 571 1762 571 1761 704.5 c 128,-1,106
 1760 838 1760 838 1725 971 c 0,107,108
 1691 1099 1691 1099 1650 1189.5 c 128,-1,109
 1609 1280 1609 1280 1561 1346 c 0,110,111
 1489 1454 1489 1454 1365 1529 c 128,-1,112
 1241 1604 1241 1604 1106 1627 c 1,113,114
 1115 1578 1115 1578 1114 1531 c 0,115,116
 1112 1495 1112 1495 1080 1495 c 0,117,118
 1043 1495 1043 1495 1047 1531 c 0,119,120
 1050 1663 1050 1663 953 1757 c 1,121,122
 877 1677 877 1677 871 1571 c 0,123,124
 869 1536 869 1536 835 1540 c 0,125,126
 803 1541 803 1541 803 1577 c 1,127,-1
 805 1585 l 1,128,129
 764 1572 764 1572 719 1548 c 0,130,131
 690 1528 690 1528 672 1558 c 256,132,133
 654 1588 654 1588 688 1605 c 0,134,135
 731 1627 731 1627 753 1638 c 1,136,137
 667 1726 667 1726 557 1780 c 1,138,139
 569 1641 569 1641 633 1517 c 0,140,141
 650 1491 650 1491 625 1471 c 0,142,143
 597 1449 597 1449 578 1478 c 0,144,145
 571 1488 571 1488 558 1514 c 1,146,147
 537 1493 537 1493 530 1483 c 0,148,149
 523 1474 523 1474 505.5 1443 c 128,-1,150
 488 1412 488 1412 480 1392 c 0,151,152
 471 1367 471 1367 472.5 1351.5 c 128,-1,153
 474 1336 474 1336 475 1317 c 1,154,155
 466 1258 466 1258 434.5 1206 c 128,-1,156
 403 1154 403 1154 354 1079 c 0,157,158
 307 1007 307 1007 282 971 c 128,-1,159
 257 935 257 935 244 879 c 0,160,161
 235 845 235 845 244 796.5 c 128,-1,162
 253 748 253 748 283 721 c 0,163,164
 329 674 329 674 372 678 c 0,165,166
 386 678 386 678 409.5 689 c 128,-1,167
 433 700 433 700 446 731 c 0,168,169
 472 788 472 788 489 788 c 0,170,171
 514 788 514 788 516 760 c 0,172,173
 516 754 516 754 500 710 c 0,174,175
 491 690 491 690 476 668 c 0,176,177
 457 642 457 642 459 646 c 1,178,179
 475 589 475 589 512 626 c 0,180,181
 523 637 523 637 537 667 c 128,-1,182
 551 697 551 697 581 748 c 0,183,184
 616 807 616 807 656 844 c 128,-1,185
 696 881 696 881 727 904 c 0,186,187
 745 917 745 917 771 934 c 128,-1,188
 797 951 797 951 841 969 c 0,189,190
 876 983 876 983 918.5 1003.5 c 128,-1,191
 961 1024 961 1024 994 1056 c 0,192,193
 1040 1101 1040 1101 1065 1167 c 0,194,195
 1078 1204 1078 1204 1075 1258 c 1,196,197
 1066 1292 1066 1292 1109 1292 c 0,198,199
 1141 1292 1141 1292 1145 1259 c 0,200,201
 1145 1146 1145 1146 1081 1053 c 1,202,203
 1102 989 1102 989 1092 913 c 0,204,205
 1083 852 1083 852 1049.5 782.5 c 128,-1,206
 1016 713 1016 713 914 628 c 0,207,208
 707 456 707 456 718 274 c 1,209,210
 1059 274 1059 274 1209 274 c 2,211,-1
 1756 274 l 1,101,102
EndSplineSet
EndChar
StartChar: m
Encoding: 109 109 5
Width: 2048
Flags: W
Fore
490 683 m 0,0,1
 494 692 494 692 503 710 c 0,2,3
 520 752 520 752 520 760 c 0,4,5
 518 788 518 788 491 788 c 0,6,7
 471 788 471 788 444 731 c 0,8,9
 440 723 440 723 432 717 c 1,10,11
 405 689 405 689 440 670 c 0,12,13
 472 651 472 651 490 683 c 0,0,1
1080 1054 m 1,14,15
 1150 1146 1150 1146 1149 1259 c 0,16,17
 1145 1292 1145 1292 1111 1292 c 0,18,19
 1065 1292 1065 1292 1075 1258 c 1,20,21
 1078 1203 1078 1203 1064 1167 c 0,22,23
 1041 1110 1041 1110 1013 1082 c 1,24,25
 998 1052 998 1052 1031 1038 c 0,26,27
 1063 1023 1063 1023 1080 1054 c 1,14,15
819 1542 m 1,28,29
 814 1578 814 1578 821 1620 c 1,30,31
 761 1608 761 1608 708 1564 c 1,32,33
 676 1547 676 1547 693 1517 c 0,34,35
 710 1486 710 1486 740 1507 c 0,36,37
 761 1518 761 1518 778.5 1527.5 c 128,-1,38
 796 1537 796 1537 819 1542 c 1,28,29
1756 274 m 1,39,40
 1755 274 1755 274 1758 328.5 c 128,-1,41
 1761 383 1761 383 1761 446 c 0,42,43
 1762 571 1762 571 1761 704.5 c 128,-1,44
 1760 838 1760 838 1725 971 c 0,45,46
 1691 1099 1691 1099 1650 1189.5 c 128,-1,47
 1609 1280 1609 1280 1561 1346 c 0,48,49
 1489 1454 1489 1454 1365 1529 c 128,-1,50
 1241 1604 1241 1604 1106 1627 c 1,51,52
 1110 1604 1110 1604 1108.5 1580 c 128,-1,53
 1107 1556 1107 1556 1109 1534 c 1,54,55
 1206 1501 1206 1501 1292 1452 c 128,-1,56
 1378 1403 1378 1403 1418 1346 c 0,57,58
 1466 1280 1466 1280 1507 1189.5 c 128,-1,59
 1548 1099 1548 1099 1582 971 c 0,60,61
 1616 838 1616 838 1617 704.5 c 128,-1,62
 1618 571 1618 571 1618 446 c 0,63,64
 1618 383 1618 383 1615 328.5 c 128,-1,65
 1612 274 1612 274 1615 274 c 2,66,-1
 1756 274 l 1,39,40
1079 1697 m 1,67,68
 1236 1687 1236 1687 1370 1616 c 128,-1,69
 1504 1545 1504 1545 1598 1434 c 0,70,71
 1664 1356 1664 1356 1722.5 1246 c 128,-1,72
 1781 1136 1781 1136 1816 1013 c 0,73,74
 1856 870 1856 870 1866.5 712.5 c 128,-1,75
 1877 555 1877 555 1877 421 c 2,76,-1
 1877 203 l 1,77,78
 1566 203 1566 203 1318 203 c 2,79,-1
 647 203 l 2,80,81
 638 203 638 203 638.5 252 c 128,-1,82
 639 301 639 301 645 331 c 0,83,84
 649 355 649 355 664 399 c 128,-1,85
 679 443 679 443 714 506 c 0,86,87
 730 538 730 538 790 599.5 c 128,-1,88
 850 661 850 661 928 742 c 0,89,90
 973 788 973 788 998.5 858 c 128,-1,91
 1024 928 1024 928 1020 985 c 1,92,93
 983 955 983 955 939 936 c 0,94,95
 727 860 727 860 632 716 c 0,96,97
 625 707 625 707 587 635 c 0,98,99
 567 597 567 597 553 583 c 0,100,101
 534 564 534 564 498 562 c 0,102,103
 442 559 442 559 411 616 c 1,104,105
 369 604 369 604 336 606 c 1,106,107
 280 627 280 627 255 651 c 0,108,109
 204 702 204 702 188.5 753 c 128,-1,110
 173 804 173 804 173 863 c 0,111,112
 173 947 173 947 277 1085 c 0,113,114
 399 1244 399 1244 407 1327 c 0,115,116
 407 1363 407 1363 414 1408 c 0,117,118
 420 1439 420 1439 439 1468 c 0,119,120
 452 1488 452 1488 456.5 1495.5 c 128,-1,121
 461 1503 461 1503 473 1518 c 0,122,123
 482 1530 482 1530 488 1536.5 c 128,-1,124
 494 1543 494 1543 503 1554 c 0,125,126
 514 1567 514 1567 531 1584 c 1,127,128
 478 1730 478 1730 488 1885 c 1,129,130
 687 1814 687 1814 822 1662 c 1,131,132
 855 1775 855 1775 952 1845 c 1,133,134
 1032 1789 1032 1789 1079 1697 c 1,67,68
404 861 m 0,135,136
 433 881 433 881 410 909 c 0,137,138
 386 932 386 932 357 913 c 0,139,140
 296 873 296 873 292 808 c 0,141,142
 293 775 293 775 331 777 c 0,143,144
 367 780 367 780 366 814 c 1,145,146
 374 846 374 846 404 861 c 0,135,136
656 1359 m 1,147,148
 678 1370 678 1370 693 1376 c 128,-1,149
 708 1382 708 1382 697 1414 c 0,150,151
 685 1444 685 1444 651 1434 c 0,152,153
 533 1391 533 1391 488 1276 c 1,154,155
 481 1243 481 1243 512 1231 c 0,156,157
 543 1221 543 1221 554 1253 c 0,158,159
 562 1270 562 1270 566 1275 c 1,160,161
 577 1266 577 1266 595 1263 c 0,162,163
 656 1253 656 1253 666 1317 c 0,164,165
 669 1339 669 1339 656 1359 c 1,147,148
EndSplineSet
EndChar
StartChar: b
Encoding: 98 98 6
Width: 2048
Flags: W
Fore
988 1138 m 1,0,-1
 905 1139 l 2,1,2
 871 1139 871 1139 871 1173 c 256,3,4
 871 1207 871 1207 905 1207 c 2,5,-1
 988 1207 l 1,6,-1
 988 1293 l 2,7,8
 988 1328 988 1328 1024 1328 c 0,9,10
 1059 1328 1059 1328 1059 1293 c 2,11,-1
 1059 1207 l 1,12,-1
 1145 1207 l 2,13,14
 1178 1207 1178 1207 1178 1173 c 256,15,16
 1178 1139 1178 1139 1145 1139 c 2,17,-1
 1059 1139 l 1,18,-1
 1059 1057 l 2,19,20
 1059 1021 1059 1021 1024 1021 c 0,21,22
 988 1021 988 1021 988 1057 c 2,23,-1
 988 1138 l 1,0,-1
1024 560 m 0,24,25
 1092 560 1092 560 1156.5 571.5 c 128,-1,26
 1221 583 1221 583 1281 599 c 1,27,28
 1164 630 1164 630 1024 630 c 0,29,30
 882 630 882 630 767 599 c 1,31,32
 825 583 825 583 890 571.5 c 128,-1,33
 955 560 955 560 1024 560 c 0,24,25
1024 1649 m 256,34,35
 1092 1649 1092 1649 1092 1717 c 256,36,37
 1092 1785 1092 1785 1024 1785 c 256,38,39
 956 1785 956 1785 956 1717 c 256,40,41
 956 1649 956 1649 1024 1649 c 256,34,35
1024 700 m 0,42,43
 1141 700 1141 700 1249 677 c 1,44,-1
 1201 800 l 1,45,46
 1113 814 1113 814 1024 814 c 0,47,48
 933 814 933 814 846 800 c 1,49,-1
 798 677 l 1,50,51
 905 700 905 700 1024 700 c 0,42,43
1024 882 m 0,52,53
 1121 882 1121 882 1210 867 c 1,54,55
 1308 902 1308 902 1352 976 c 0,56,57
 1390 1040 1390 1040 1390 1117 c 0,58,59
 1390 1163 1390 1163 1367 1218.5 c 128,-1,60
 1344 1274 1344 1274 1292 1319 c 0,61,62
 1233 1368 1233 1368 1163 1426.5 c 128,-1,63
 1093 1485 1093 1485 1024 1563 c 1,64,65
 954 1485 954 1485 884 1426.5 c 128,-1,66
 814 1368 814 1368 756 1319 c 0,67,68
 703 1274 703 1274 680.5 1218.5 c 128,-1,69
 658 1163 658 1163 658 1117 c 0,70,71
 658 1040 658 1040 695 976 c 0,72,73
 738 902 738 902 838 867 c 1,74,75
 926 882 926 882 1024 882 c 0,52,53
988 505 m 1,76,-1
 956 505 l 1,77,78
 900 415 900 415 849 392 c 0,79,80
 825 380 825 380 796 370 c 128,-1,81
 767 360 767 360 729 360 c 0,82,83
 722 360 722 360 622 376 c 0,84,85
 574 383 574 383 546 391 c 128,-1,86
 518 399 518 399 502 401 c 0,87,88
 445 408 445 408 369 395 c 0,89,90
 323 387 323 387 283 366 c 1,91,-1
 331 288 l 1,92,93
 343 300 343 300 362.5 303.5 c 128,-1,94
 382 307 382 307 398 311 c 0,95,96
 440 318 440 318 478 313 c 0,97,98
 491 310 491 310 529 305.5 c 128,-1,99
 567 301 567 301 630 291 c 0,100,101
 705 280 705 280 732 280 c 0,102,103
 837 280 837 280 893 320 c 0,104,105
 927 346 927 346 957.5 392.5 c 128,-1,106
 988 439 988 439 988 505 c 1,76,-1
1024 392 m 1,107,108
 1010 335 1010 335 990 313 c 128,-1,109
 970 291 970 291 937 267 c 0,110,111
 901 242 901 242 852 224.5 c 128,-1,112
 803 207 803 207 743 216 c 2,113,-1
 462 255 l 2,114,115
 445 257 445 257 431.5 255 c 128,-1,116
 418 253 418 253 406 253 c 0,117,118
 385 253 385 253 352.5 243.5 c 128,-1,119
 320 234 320 234 302 216 c 1,120,-1
 205 375 l 1,121,122
 223 395 223 395 237 403 c 128,-1,123
 251 411 251 411 270 420 c 0,124,125
 328 447 328 447 394 453 c 0,126,127
 422 455 422 455 449 454 c 128,-1,128
 476 453 476 453 505 456 c 1,129,130
 559 447 559 447 613.5 439.5 c 128,-1,131
 668 432 668 432 723 424 c 1,132,133
 783 424 783 424 804 436 c 0,134,135
 815 442 815 442 839 458 c 128,-1,136
 863 474 863 474 887 505 c 1,137,138
 834 511 834 511 779 525.5 c 128,-1,139
 724 540 724 540 682 556 c 1,140,-1
 786 814 l 1,141,142
 708 859 708 859 677 886.5 c 128,-1,143
 646 914 646 914 628 950 c 0,144,145
 602 996 602 996 594.5 1039 c 128,-1,146
 587 1082 587 1082 588 1116 c 0,147,148
 589 1176 589 1176 616.5 1248.5 c 128,-1,149
 644 1321 644 1321 720 1378 c 0,150,151
 783 1426 783 1426 843 1477 c 128,-1,152
 903 1528 903 1528 962 1596 c 1,153,154
 888 1634 888 1634 888 1717 c 0,155,156
 888 1773 888 1773 927.5 1813 c 128,-1,157
 967 1853 967 1853 1024 1853 c 0,158,159
 1080 1853 1080 1853 1120 1813 c 128,-1,160
 1160 1773 1160 1773 1160 1717 c 0,161,162
 1160 1635 1160 1635 1086 1596 c 1,163,164
 1144 1528 1144 1528 1203.5 1477 c 128,-1,165
 1263 1426 1263 1426 1328 1378 c 0,166,167
 1403 1321 1403 1321 1430 1248.5 c 128,-1,168
 1457 1176 1457 1176 1459 1116 c 0,169,170
 1459 1082 1459 1082 1452 1039 c 128,-1,171
 1445 996 1445 996 1420 950 c 0,172,173
 1400 914 1400 914 1369.5 886.5 c 128,-1,174
 1339 859 1339 859 1262 814 c 1,175,-1
 1366 556 l 1,176,177
 1322 540 1322 540 1267 525.5 c 128,-1,178
 1212 511 1212 511 1161 505 c 1,179,180
 1184 474 1184 474 1208 458 c 128,-1,181
 1232 442 1232 442 1244 436 c 0,182,183
 1265 424 1265 424 1325 424 c 1,184,185
 1379 432 1379 432 1433.5 439.5 c 128,-1,186
 1488 447 1488 447 1543 456 c 1,187,188
 1570 453 1570 453 1597.5 454 c 128,-1,189
 1625 455 1625 455 1654 453 c 0,190,191
 1718 447 1718 447 1778 420 c 0,192,193
 1796 411 1796 411 1810.5 403 c 128,-1,194
 1825 395 1825 395 1843 375 c 1,195,-1
 1745 216 l 1,196,197
 1727 234 1727 234 1694.5 243.5 c 128,-1,198
 1662 253 1662 253 1642 253 c 0,199,200
 1629 253 1629 253 1615.5 255 c 128,-1,201
 1602 257 1602 257 1585 255 c 2,202,-1
 1305 216 l 2,203,204
 1245 207 1245 207 1193.5 224 c 128,-1,205
 1142 241 1142 241 1109 269 c 0,206,207
 1076 296 1076 296 1056.5 315.5 c 128,-1,208
 1037 335 1037 335 1024 392 c 1,107,108
1059 505 m 1,209,210
 1059 439 1059 439 1089.5 392.5 c 128,-1,211
 1120 346 1120 346 1155 320 c 0,212,213
 1210 280 1210 280 1316 280 c 0,214,215
 1342 280 1342 280 1418 291 c 0,216,217
 1480 301 1480 301 1518 305.5 c 128,-1,218
 1556 310 1556 310 1569 313 c 0,219,220
 1607 318 1607 318 1649 311 c 0,221,222
 1665 307 1665 307 1684.5 303.5 c 128,-1,223
 1704 300 1704 300 1717 288 c 1,224,-1
 1765 366 l 1,225,226
 1724 387 1724 387 1678 395 c 0,227,228
 1602 408 1602 408 1545 401 c 0,229,230
 1528 399 1528 399 1500.5 391 c 128,-1,231
 1473 383 1473 383 1426 376 c 0,232,233
 1325 360 1325 360 1319 360 c 0,234,235
 1280 360 1280 360 1251 370 c 128,-1,236
 1222 380 1222 380 1199 392 c 0,237,238
 1146 416 1146 416 1091 505 c 1,239,-1
 1059 505 l 1,209,210
EndSplineSet
EndChar
StartChar: v
Encoding: 118 118 7
Width: 2048
Flags: W
Fore
1290 582 m 1,0,-1
 1248 684 l 1,1,2
 1146 706 1146 706 1024 706 c 0,3,4
 903 706 903 706 802 684 c 1,5,-1
 760 583 l 1,6,7
 884 614 884 614 1024 614 c 0,8,9
 1162 614 1162 614 1290 582 c 1,0,-1
1206 788 m 1,10,-1
 1177 858 l 1,11,-1
 1177 885 l 1,12,13
 1101 896 1101 896 1024 896 c 0,14,15
 949 896 949 896 872 885 c 1,16,-1
 871 858 l 1,17,-1
 844 788 l 1,18,19
 929 803 929 803 1024 803 c 0,20,21
 1120 803 1120 803 1206 788 c 1,10,-1
1171 410 m 1,22,23
 1131 440 1131 440 1091 505 c 1,24,-1
 1059 505 l 1,25,26
 1059 456 1059 456 1082 410 c 1,27,-1
 1171 410 l 1,22,23
965 410 m 1,28,29
 988 459 988 459 988 505 c 1,30,-1
 956 505 l 1,31,32
 917 441 917 441 875 410 c 1,33,-1
 965 410 l 1,28,29
1024 392 m 1,34,35
 1010 335 1010 335 990 313 c 128,-1,36
 970 291 970 291 937 267 c 0,37,38
 901 242 901 242 852 224.5 c 128,-1,39
 803 207 803 207 743 216 c 2,40,-1
 462 255 l 2,41,42
 445 257 445 257 431.5 255 c 128,-1,43
 418 253 418 253 406 253 c 0,44,45
 385 253 385 253 352.5 243.5 c 128,-1,46
 320 234 320 234 302 216 c 1,47,-1
 205 375 l 1,48,49
 223 395 223 395 237 403 c 128,-1,50
 251 411 251 411 270 420 c 0,51,52
 328 447 328 447 394 453 c 0,53,54
 422 455 422 455 449 454 c 128,-1,55
 476 453 476 453 505 456 c 1,56,57
 559 447 559 447 613.5 439.5 c 128,-1,58
 668 432 668 432 723 424 c 1,59,60
 783 424 783 424 804 436 c 0,61,62
 815 442 815 442 839 458 c 128,-1,63
 863 474 863 474 887 505 c 1,64,65
 834 511 834 511 779 525.5 c 128,-1,66
 724 540 724 540 682 556 c 1,67,-1
 786 814 l 1,68,69
 708 859 708 859 677 886.5 c 128,-1,70
 646 914 646 914 628 950 c 0,71,72
 602 996 602 996 594.5 1039 c 128,-1,73
 587 1082 587 1082 588 1116 c 0,74,75
 589 1176 589 1176 616.5 1248.5 c 128,-1,76
 644 1321 644 1321 720 1378 c 0,77,78
 783 1426 783 1426 843 1477 c 128,-1,79
 903 1528 903 1528 962 1596 c 1,80,81
 888 1634 888 1634 888 1717 c 0,82,83
 888 1773 888 1773 927.5 1813 c 128,-1,84
 967 1853 967 1853 1024 1853 c 0,85,86
 1080 1853 1080 1853 1120 1813 c 128,-1,87
 1160 1773 1160 1773 1160 1717 c 0,88,89
 1160 1635 1160 1635 1086 1596 c 1,90,91
 1144 1528 1144 1528 1203.5 1477 c 128,-1,92
 1263 1426 1263 1426 1328 1378 c 0,93,94
 1403 1321 1403 1321 1430 1248.5 c 128,-1,95
 1457 1176 1457 1176 1459 1116 c 0,96,97
 1459 1082 1459 1082 1452 1039 c 128,-1,98
 1445 996 1445 996 1420 950 c 0,99,100
 1400 914 1400 914 1369.5 886.5 c 128,-1,101
 1339 859 1339 859 1262 814 c 1,102,-1
 1366 556 l 1,103,104
 1322 540 1322 540 1267 525.5 c 128,-1,105
 1212 511 1212 511 1161 505 c 1,106,107
 1184 474 1184 474 1208 458 c 128,-1,108
 1232 442 1232 442 1244 436 c 0,109,110
 1265 424 1265 424 1325 424 c 1,111,112
 1379 432 1379 432 1433.5 439.5 c 128,-1,113
 1488 447 1488 447 1543 456 c 1,114,115
 1570 453 1570 453 1597.5 454 c 128,-1,116
 1625 455 1625 455 1654 453 c 0,117,118
 1718 447 1718 447 1778 420 c 0,119,120
 1796 411 1796 411 1810.5 403 c 128,-1,121
 1825 395 1825 395 1843 375 c 1,122,-1
 1745 216 l 1,123,124
 1727 234 1727 234 1694.5 243.5 c 128,-1,125
 1662 253 1662 253 1642 253 c 0,126,127
 1629 253 1629 253 1615.5 255 c 128,-1,128
 1602 257 1602 257 1585 255 c 2,129,-1
 1305 216 l 2,130,131
 1245 207 1245 207 1193.5 224 c 128,-1,132
 1142 241 1142 241 1109 269 c 0,133,134
 1076 296 1076 296 1056.5 315.5 c 128,-1,135
 1037 335 1037 335 1024 392 c 1,34,35
987 1136 m 1,136,-1
 987 1051 l 2,137,138
 987 1014 987 1014 1024 1014 c 256,139,140
 1061 1014 1061 1014 1061 1051 c 2,141,-1
 1061 1137 l 1,142,-1
 1151 1137 l 2,143,144
 1186 1137 1186 1137 1186 1173 c 256,145,146
 1186 1209 1186 1209 1151 1209 c 2,147,-1
 1061 1209 l 1,148,-1
 1061 1299 l 2,149,150
 1061 1336 1061 1336 1024 1336 c 256,151,152
 987 1336 987 1336 987 1299 c 2,153,-1
 987 1209 l 1,154,-1
 899 1209 l 2,155,156
 864 1209 864 1209 864 1173 c 256,157,158
 864 1137 864 1137 899 1137 c 2,159,-1
 987 1136 l 1,136,-1
EndSplineSet
EndChar
StartChar: r
Encoding: 114 114 8
Width: 2048
Flags: W
Fore
1161 1706 m 1,0,-1
 1331 1706 l 1,1,-1
 1331 1843 l 1,2,-1
 1605 1843 l 1,3,-1
 1605 1468 l 1,4,-1
 1383 1297 l 1,5,-1
 1383 819 l 1,6,-1
 1553 649 l 1,7,-1
 1553 444 l 1,8,-1
 1706 444 l 1,9,-1
 1706 205 l 1,10,-1
 341 205 l 1,11,-1
 341 444 l 1,12,-1
 494 444 l 1,13,-1
 494 649 l 1,14,-1
 665 819 l 1,15,-1
 665 1297 l 1,16,-1
 443 1468 l 1,17,-1
 443 1843 l 1,18,-1
 716 1843 l 1,19,-1
 716 1706 l 1,20,-1
 887 1706 l 1,21,-1
 887 1843 l 1,22,-1
 1161 1843 l 1,23,-1
 1161 1706 l 1,0,-1
1639 376 m 1,24,-1
 409 376 l 1,25,-1
 409 273 l 1,26,-1
 1639 273 l 1,27,-1
 1639 376 l 1,24,-1
1484 580 m 1,28,-1
 564 580 l 1,29,-1
 564 444 l 1,30,-1
 1484 444 l 1,31,-1
 1484 580 l 1,28,-1
1314 1297 m 1,32,-1
 734 1297 l 1,33,-1
 734 819 l 1,34,-1
 1314 819 l 1,35,-1
 1314 1297 l 1,32,-1
1536 1536 m 1,36,-1
 1536 1775 l 1,37,-1
 1399 1775 l 1,38,-1
 1399 1638 l 1,39,-1
 1091 1638 l 1,40,-1
 1091 1775 l 1,41,-1
 956 1775 l 1,42,-1
 956 1638 l 1,43,-1
 649 1638 l 1,44,-1
 649 1775 l 1,45,-1
 512 1775 l 1,46,-1
 512 1536 l 1,47,-1
 1536 1536 l 1,36,-1
1459 649 m 1,48,-1
 1356 751 l 1,49,-1
 693 751 l 1,50,-1
 588 649 l 1,51,-1
 1459 649 l 1,48,-1
1349 1365 m 1,52,-1
 1476 1468 l 1,53,-1
 572 1468 l 1,54,-1
 700 1365 l 1,55,-1
 1349 1365 l 1,52,-1
EndSplineSet
EndChar
StartChar: t
Encoding: 116 116 9
Width: 2048
Flags: W
Fore
1161 1706 m 1,0,-1
 1331 1706 l 1,1,-1
 1331 1843 l 1,2,-1
 1605 1843 l 1,3,-1
 1605 1468 l 1,4,-1
 1383 1297 l 1,5,-1
 1383 819 l 1,6,-1
 1553 649 l 1,7,-1
 1553 444 l 1,8,-1
 1706 444 l 1,9,-1
 1706 205 l 1,10,-1
 341 205 l 1,11,-1
 341 444 l 1,12,-1
 494 444 l 1,13,-1
 494 649 l 1,14,-1
 665 819 l 1,15,-1
 665 1297 l 1,16,-1
 443 1468 l 1,17,-1
 443 1843 l 1,18,-1
 716 1843 l 1,19,-1
 716 1706 l 1,20,-1
 887 1706 l 1,21,-1
 887 1843 l 1,22,-1
 1161 1843 l 1,23,-1
 1161 1706 l 1,0,-1
564 460 m 1,24,-1
 564 358 l 1,25,-1
 1484 358 l 1,26,-1
 1484 460 l 1,27,-1
 564 460 l 1,24,-1
1024 1552 m 1,28,-1
 512 1552 l 1,29,-1
 512 1506 l 1,30,-1
 585 1451 l 1,31,-1
 1464 1451 l 1,32,-1
 1535 1506 l 1,33,-1
 1535 1552 l 1,34,-1
 1024 1552 l 1,28,-1
1024 1383 m 1,35,-1
 674 1383 l 1,36,-1
 734 1336 l 1,37,-1
 734 1279 l 1,38,-1
 1314 1279 l 1,39,-1
 1314 1336 l 1,40,-1
 1374 1383 l 1,41,-1
 1024 1383 l 1,35,-1
1024 837 m 1,42,-1
 734 837 l 1,43,-1
 734 791 l 1,44,-1
 674 733 l 1,45,-1
 1374 733 l 1,46,-1
 1314 791 l 1,47,-1
 1314 837 l 1,48,-1
 1024 837 l 1,42,-1
1024 665 m 1,49,-1
 610 665 l 1,50,-1
 564 622 l 1,51,-1
 564 564 l 1,52,-1
 1484 564 l 1,53,-1
 1484 622 l 1,54,-1
 1438 665 l 1,55,-1
 1024 665 l 1,49,-1
EndSplineSet
EndChar
StartChar: q
Encoding: 113 113 10
Width: 2048
Flags: W
Fore
1024 1621 m 0,0,1
 967 1621 967 1621 927.5 1661 c 128,-1,2
 888 1701 888 1701 888 1758 c 0,3,4
 888 1814 888 1814 927.5 1854 c 128,-1,5
 967 1894 967 1894 1024 1894 c 0,6,7
 1080 1894 1080 1894 1120.5 1854 c 128,-1,8
 1161 1814 1161 1814 1161 1758 c 0,9,10
 1161 1701 1161 1701 1120.5 1661 c 128,-1,11
 1080 1621 1080 1621 1024 1621 c 0,0,1
1024 1691 m 0,12,13
 1091 1691 1091 1691 1091 1758 c 0,14,15
 1091 1824 1091 1824 1024 1824 c 0,16,17
 958 1824 958 1824 958 1758 c 0,18,19
 958 1691 958 1691 1024 1691 c 0,12,13
1533 684 m 1,20,21
 1340 733 1340 733 1028 733 c 0,22,23
 708 733 708 733 517 683 c 1,24,-1
 532 587 l 1,25,26
 727 633 727 633 1028 633 c 0,27,28
 1327 633 1327 633 1516 588 c 1,29,-1
 1533 684 l 1,20,21
1558 744 m 1,30,-1
 1623 859 l 1,31,32
 1575 840 1575 840 1525 840 c 0,33,34
 1391 840 1391 840 1311 949 c 1,35,36
 1251 899 1251 899 1177 899 c 0,37,38
 1081 899 1081 899 1024 974 c 1,39,40
 960 904 960 904 871 904 c 0,41,42
 799 904 799 904 739 953 c 1,43,44
 655 846 655 846 522 846 c 0,45,46
 471 846 471 846 421 865 c 1,47,-1
 491 745 l 1,48,49
 685 801 685 801 1024 801 c 0,50,51
 1369 801 1369 801 1558 744 c 1,30,-1
1110 983 m 1,52,-1
 1025 1472 l 1,53,-1
 940 989 l 1,54,55
 943 991 943 991 954 999 c 1,56,57
 977 1044 977 1044 1024 1044 c 0,58,59
 1075 1044 1075 1044 1090 999 c 1,60,61
 1096 993 1096 993 1110 983 c 1,52,-1
1387 964 m 1,62,-1
 1387 1427 l 1,63,-1
 1222 973 l 1,64,65
 1241 980 1241 980 1254 991 c 1,66,67
 1274 1016 1274 1016 1308 1016 c 0,68,69
 1348 1016 1348 1016 1372 981 c 0,70,71
 1375 977 1375 977 1379 972.5 c 128,-1,72
 1383 968 1383 968 1387 964 c 1,62,-1
825 978 m 1,73,-1
 661 1427 l 1,74,-1
 661 970 l 1,75,76
 664 974 664 974 670 980 c 1,77,78
 690 1022 690 1022 736 1022 c 0,79,80
 774 1022 774 1022 798 990 c 1,81,82
 824 978 824 978 825 978 c 1,73,-1
571 922 m 1,83,-1
 356 1293 l 1,84,-1
 411 955 l 1,85,86
 468 915 468 915 522 915 c 0,87,88
 543 915 543 915 571 922 c 1,83,-1
1474 917 m 1,89,90
 1497 910 1497 910 1525 910 c 0,91,92
 1586 910 1586 910 1639 948 c 1,93,-1
 1694 1294 l 1,94,-1
 1474 917 l 1,89,90
1534 411 m 1,95,-1
 1504 524 l 1,96,97
 1308 567 1308 567 1024 567 c 0,98,99
 743 567 743 567 545 524 c 1,100,-1
 514 410 l 1,101,102
 700 466 700 466 1025 466 c 0,103,104
 1342 466 1342 466 1534 411 c 1,95,-1
1640 283 m 1,105,106
 1591 240 1591 240 1420 211 c 128,-1,107
 1249 182 1249 182 1026 182 c 0,108,109
 799 182 799 182 627 212 c 128,-1,110
 455 242 455 242 410 287 c 1,111,-1
 473 527 l 1,112,-1
 445 684 l 1,113,-1
 357 837 l 1,114,-1
 272 1459 l 1,115,-1
 321 1478 l 1,116,-1
 595 1016 l 1,117,-1
 601 1566 l 1,118,-1
 669 1578 l 1,119,-1
 878 1025 l 1,120,-1
 990 1620 l 1,121,-1
 1059 1620 l 1,122,-1
 1171 1027 l 1,123,-1
 1378 1578 l 1,124,-1
 1447 1566 l 1,125,-1
 1453 1016 l 1,126,-1
 1728 1479 l 1,127,-1
 1775 1457 l 1,128,-1
 1692 838 l 1,129,-1
 1603 685 l 1,130,-1
 1575 526 l 1,131,-1
 1640 283 l 1,105,106
1559 319 m 1,132,133
 1376 395 1376 395 1028 395 c 0,134,135
 673 395 673 395 491 317 c 1,136,137
 666 248 666 248 1025 248 c 0,138,139
 1197 248 1197 248 1339.5 267 c 128,-1,140
 1482 286 1482 286 1559 319 c 1,132,133
604 1571 m 0,141,142
 547 1571 547 1571 507 1610.5 c 128,-1,143
 467 1650 467 1650 467 1707 c 0,144,145
 467 1763 467 1763 507 1803 c 128,-1,146
 547 1843 547 1843 604 1843 c 0,147,148
 660 1843 660 1843 700 1803 c 128,-1,149
 740 1763 740 1763 740 1707 c 0,150,151
 740 1650 740 1650 700 1610.5 c 128,-1,152
 660 1571 660 1571 604 1571 c 0,141,142
604 1641 m 0,153,154
 670 1641 670 1641 670 1707 c 256,155,156
 670 1773 670 1773 604 1773 c 0,157,158
 537 1773 537 1773 537 1707 c 256,159,160
 537 1641 537 1641 604 1641 c 0,153,154
1444 1641 m 0,161,162
 1511 1641 1511 1641 1511 1707 c 256,163,164
 1511 1773 1511 1773 1444 1773 c 0,165,166
 1378 1773 1378 1773 1378 1707 c 256,167,168
 1378 1641 1378 1641 1444 1641 c 0,161,162
1444 1571 m 256,169,170
 1387 1571 1387 1571 1347.5 1610.5 c 128,-1,171
 1308 1650 1308 1650 1308 1707 c 0,172,173
 1308 1763 1308 1763 1347.5 1803 c 128,-1,174
 1387 1843 1387 1843 1444 1843 c 256,175,176
 1501 1843 1501 1843 1541 1803 c 128,-1,177
 1581 1763 1581 1763 1581 1707 c 0,178,179
 1581 1650 1581 1650 1541 1610.5 c 128,-1,180
 1501 1571 1501 1571 1444 1571 c 256,169,170
236 1461 m 256,181,182
 179 1461 179 1461 139.5 1500.5 c 128,-1,183
 100 1540 100 1540 100 1597 c 0,184,185
 100 1653 100 1653 139.5 1693.5 c 128,-1,186
 179 1734 179 1734 236 1734 c 256,187,188
 293 1734 293 1734 333 1693.5 c 128,-1,189
 373 1653 373 1653 373 1597 c 0,190,191
 373 1540 373 1540 333 1500.5 c 128,-1,192
 293 1461 293 1461 236 1461 c 256,181,182
236 1531 m 0,193,194
 303 1531 303 1531 303 1597 c 0,195,196
 303 1664 303 1664 236 1664 c 0,197,198
 170 1664 170 1664 170 1597 c 0,199,200
 170 1531 170 1531 236 1531 c 0,193,194
1814 1531 m 0,201,202
 1880 1531 1880 1531 1880 1597 c 0,203,204
 1880 1664 1880 1664 1814 1664 c 0,205,206
 1747 1664 1747 1664 1747 1597 c 0,207,208
 1747 1531 1747 1531 1814 1531 c 0,201,202
1814 1461 m 0,209,210
 1757 1461 1757 1461 1717 1500.5 c 128,-1,211
 1677 1540 1677 1540 1677 1597 c 0,212,213
 1677 1653 1677 1653 1717 1693.5 c 128,-1,214
 1757 1734 1757 1734 1814 1734 c 0,215,216
 1870 1734 1870 1734 1910 1693.5 c 128,-1,217
 1950 1653 1950 1653 1950 1597 c 0,218,219
 1950 1540 1950 1540 1910 1500.5 c 128,-1,220
 1870 1461 1870 1461 1814 1461 c 0,209,210
EndSplineSet
EndChar
StartChar: w
Encoding: 119 119 11
Width: 2048
Flags: W
Fore
1588 793 m 1,0,1
 1505 823 1505 823 1354.5 842.5 c 128,-1,2
 1204 862 1204 862 1022 862 c 0,3,4
 844 862 844 862 696 843.5 c 128,-1,5
 548 825 548 825 463 795 c 1,6,-1
 513 704 l 1,7,8
 597 729 597 729 731 740 c 128,-1,9
 865 751 865 751 1024 751 c 256,10,11
 1183 751 1183 751 1318 740 c 128,-1,12
 1453 729 1453 729 1537 703 c 1,13,-1
 1588 793 l 1,0,1
1814 1461 m 0,14,15
 1757 1461 1757 1461 1717 1500.5 c 128,-1,16
 1677 1540 1677 1540 1677 1597 c 0,17,18
 1677 1653 1677 1653 1717 1693.5 c 128,-1,19
 1757 1734 1757 1734 1814 1734 c 0,20,21
 1870 1734 1870 1734 1910 1693.5 c 128,-1,22
 1950 1653 1950 1653 1950 1597 c 0,23,24
 1950 1540 1950 1540 1910 1500.5 c 128,-1,25
 1870 1461 1870 1461 1814 1461 c 0,14,15
236 1461 m 256,26,27
 179 1461 179 1461 139.5 1500.5 c 128,-1,28
 100 1540 100 1540 100 1597 c 0,29,30
 100 1653 100 1653 139.5 1693.5 c 128,-1,31
 179 1734 179 1734 236 1734 c 256,32,33
 293 1734 293 1734 333 1693.5 c 128,-1,34
 373 1653 373 1653 373 1597 c 0,35,36
 373 1540 373 1540 333 1500.5 c 128,-1,37
 293 1461 293 1461 236 1461 c 256,26,27
1444 1571 m 256,38,39
 1387 1571 1387 1571 1347.5 1610.5 c 128,-1,40
 1308 1650 1308 1650 1308 1707 c 0,41,42
 1308 1763 1308 1763 1347.5 1803 c 128,-1,43
 1387 1843 1387 1843 1444 1843 c 256,44,45
 1501 1843 1501 1843 1541 1803 c 128,-1,46
 1581 1763 1581 1763 1581 1707 c 0,47,48
 1581 1650 1581 1650 1541 1610.5 c 128,-1,49
 1501 1571 1501 1571 1444 1571 c 256,38,39
604 1571 m 0,50,51
 547 1571 547 1571 507 1610.5 c 128,-1,52
 467 1650 467 1650 467 1707 c 0,53,54
 467 1763 467 1763 507 1803 c 128,-1,55
 547 1843 547 1843 604 1843 c 0,56,57
 660 1843 660 1843 700 1803 c 128,-1,58
 740 1763 740 1763 740 1707 c 0,59,60
 740 1650 740 1650 700 1610.5 c 128,-1,61
 660 1571 660 1571 604 1571 c 0,50,51
1640 283 m 1,62,63
 1591 240 1591 240 1420 211 c 128,-1,64
 1249 182 1249 182 1026 182 c 0,65,66
 799 182 799 182 627 212 c 128,-1,67
 455 242 455 242 410 287 c 1,68,-1
 473 527 l 1,69,-1
 445 684 l 1,70,-1
 357 837 l 1,71,-1
 272 1459 l 1,72,-1
 321 1478 l 1,73,-1
 595 1016 l 1,74,-1
 601 1566 l 1,75,-1
 669 1578 l 1,76,-1
 878 1025 l 1,77,-1
 990 1620 l 1,78,-1
 1059 1620 l 1,79,-1
 1171 1027 l 1,80,-1
 1378 1578 l 1,81,-1
 1447 1566 l 1,82,-1
 1453 1016 l 1,83,-1
 1728 1479 l 1,84,-1
 1775 1457 l 1,85,-1
 1692 838 l 1,86,-1
 1603 685 l 1,87,-1
 1575 526 l 1,88,-1
 1640 283 l 1,62,63
1544 315 m 1,89,-1
 1514 433 l 1,90,91
 1319 478 1319 478 1024 478 c 0,92,93
 732 478 732 478 536 433 c 1,94,-1
 504 314 l 1,95,96
 694 372 694 372 1025 372 c 0,97,98
 1184 372 1184 372 1320 356 c 128,-1,99
 1456 340 1456 340 1544 315 c 1,89,-1
1518 614 m 1,100,101
 1334 665 1334 665 1028 665 c 0,102,103
 720 665 720 665 532 613 c 1,104,-1
 547 512 l 1,105,106
 736 561 736 561 1028 561 c 0,107,108
 1319 561 1319 561 1502 513 c 1,109,-1
 1518 614 l 1,100,101
1024 1621 m 0,110,111
 967 1621 967 1621 927.5 1661 c 128,-1,112
 888 1701 888 1701 888 1758 c 0,113,114
 888 1814 888 1814 927.5 1854 c 128,-1,115
 967 1894 967 1894 1024 1894 c 0,116,117
 1080 1894 1080 1894 1120.5 1854 c 128,-1,118
 1161 1814 1161 1814 1161 1758 c 0,119,120
 1161 1701 1161 1701 1120.5 1661 c 128,-1,121
 1080 1621 1080 1621 1024 1621 c 0,110,111
EndSplineSet
EndChar
StartChar: k
Encoding: 107 107 12
Width: 2048
Flags: W
Fore
524 583 m 1,0,1
 714 631 714 631 1028 631 c 0,2,3
 1336 631 1336 631 1525 585 c 1,4,-1
 1550 732 l 1,5,6
 1349 785 1349 785 1024 785 c 0,7,8
 697 785 697 785 499 731 c 1,9,-1
 524 583 l 1,0,1
463 522 m 1,10,-1
 430 709 l 1,11,12
 429 709 429 709 427 713 c 0,13,14
 422 720 422 720 398.5 731.5 c 128,-1,15
 375 743 375 743 344 771 c 0,16,17
 300 808 300 808 275.5 831 c 128,-1,18
 251 854 251 854 231 881 c 0,19,20
 170 965 170 965 163 1084 c 0,21,22
 153 1199 153 1199 256 1313 c 0,23,24
 360 1427 360 1427 537 1420 c 0,25,26
 603 1416 603 1416 692 1388 c 0,27,28
 721 1376 721 1376 751.5 1364.5 c 128,-1,29
 782 1353 782 1353 812 1341 c 0,30,31
 828 1333 828 1333 840 1325 c 1,32,33
 835 1346 835 1346 835 1367 c 0,34,35
 835 1445 835 1445 890.5 1500 c 128,-1,36
 946 1555 946 1555 1024 1556 c 0,37,38
 1102 1556 1102 1556 1157 1500.5 c 128,-1,39
 1212 1445 1212 1445 1212 1368 c 0,40,41
 1212 1352 1212 1352 1208 1326 c 1,42,43
 1222 1335 1222 1335 1235 1341 c 0,44,45
 1281 1361 1281 1361 1356 1388 c 0,46,47
 1442 1417 1442 1417 1511 1421 c 0,48,49
 1688 1429 1688 1429 1791 1314 c 0,50,51
 1892 1200 1892 1200 1885 1085 c 0,52,53
 1877 966 1877 966 1816 882 c 0,54,55
 1796 855 1796 855 1771 831.5 c 128,-1,56
 1746 808 1746 808 1704 772 c 0,57,58
 1671 744 1671 744 1648 732.5 c 128,-1,59
 1625 721 1625 721 1621 714 c 0,60,61
 1620 712 1620 712 1619 711 c 128,-1,62
 1618 710 1618 710 1618 709 c 2,63,-1
 1586 521 l 1,64,-1
 1652 274 l 1,65,66
 1602 229 1602 229 1428 200 c 128,-1,67
 1254 171 1254 171 1026 171 c 0,68,69
 794 171 794 171 618 201.5 c 128,-1,70
 442 232 442 232 397 278 c 1,71,-1
 463 522 l 1,10,-1
1544 405 m 1,72,-1
 1514 520 l 1,73,74
 1316 564 1316 564 1024 564 c 0,75,76
 733 564 733 564 535 520 c 1,77,-1
 503 404 l 1,78,79
 694 460 694 460 1025 460 c 0,80,81
 1354 460 1354 460 1544 405 c 1,72,-1
1570 311 m 1,82,83
 1377 389 1377 389 1028 389 c 0,84,85
 666 389 666 389 480 309 c 1,86,87
 656 239 656 239 1025 239 c 0,88,89
 1201 239 1201 239 1346 258.5 c 128,-1,90
 1491 278 1491 278 1570 311 c 1,82,83
989 853 m 1,91,92
 988 892 988 892 986 930.5 c 128,-1,93
 984 969 984 969 971 1016 c 0,94,95
 930 1150 930 1150 847 1232 c 0,96,97
 804 1274 804 1274 715 1310 c 0,98,99
 613 1350 613 1350 522 1350 c 0,100,101
 364 1350 364 1350 288 1237 c 0,102,103
 245 1177 245 1177 245 1087 c 0,104,105
 245 989 245 989 293 926 c 0,106,107
 322 889 322 889 367 852 c 128,-1,108
 412 815 412 815 451 785 c 1,109,110
 626 848 626 848 989 853 c 1,91,92
1024 1039 m 1,111,112
 1031 1067 1031 1067 1036 1078 c 2,113,114
 1046 1117 1046 1117 1059 1144 c 0,115,116
 1065 1161 1065 1161 1076.5 1183.5 c 128,-1,117
 1088 1206 1088 1206 1101 1235 c 0,118,119
 1109 1252 1109 1252 1118 1276.5 c 128,-1,120
 1127 1301 1127 1301 1136 1325 c 0,121,122
 1144 1345 1144 1345 1144 1368 c 0,123,124
 1144 1417 1144 1417 1109 1451.5 c 128,-1,125
 1074 1486 1074 1486 1024 1486 c 0,126,127
 905 1486 905 1486 905 1367 c 0,128,129
 905 1344 905 1344 913 1324 c 0,130,131
 935 1259 935 1259 947 1234 c 0,132,133
 960 1205 960 1205 971 1182.5 c 128,-1,134
 982 1160 982 1160 990 1143 c 0,135,136
 1003 1110 1003 1110 1012 1077 c 0,137,138
 1014 1071 1014 1071 1024 1039 c 1,111,112
1058 853 m 1,139,140
 1230 851 1230 851 1373 832.5 c 128,-1,141
 1516 814 1516 814 1597 786 c 1,142,143
 1635 816 1635 816 1680 852.5 c 128,-1,144
 1725 889 1725 889 1755 927 c 0,145,146
 1803 988 1803 988 1803 1088 c 0,147,148
 1803 1178 1803 1178 1760 1238 c 0,149,150
 1683 1350 1683 1350 1526 1350 c 0,151,152
 1432 1350 1432 1350 1333 1311 c 0,153,154
 1246 1276 1246 1276 1201 1233 c 0,155,156
 1117 1149 1117 1149 1077 1017 c 0,157,158
 1063 970 1063 970 1060.5 931.5 c 128,-1,159
 1058 893 1058 893 1058 853 c 1,139,140
1059 1559 m 1,160,-1
 988 1559 l 1,161,-1
 988 1690 l 1,162,-1
 905 1690 l 2,163,164
 871 1690 871 1690 871 1723 c 2,165,-1
 871 1724 l 2,166,167
 871 1757 871 1757 905 1757 c 2,168,-1
 988 1757 l 1,169,-1
 988 1842 l 2,170,171
 988 1877 988 1877 1024 1877 c 0,172,173
 1059 1877 1059 1877 1059 1842 c 2,174,-1
 1059 1757 l 1,175,-1
 1145 1757 l 2,176,177
 1178 1757 1178 1757 1178 1724 c 2,178,-1
 1178 1723 l 2,179,180
 1178 1690 1178 1690 1145 1690 c 2,181,-1
 1060 1689 l 1,182,-1
 1059 1559 l 1,160,-1
EndSplineSet
EndChar
StartChar: l
Encoding: 108 108 13
Width: 2048
Flags: W
Fore
1133 865 m 1,0,1
 1133 894 1133 894 1139.5 947.5 c 128,-1,2
 1146 1001 1146 1001 1160 1031 c 0,3,4
 1197 1112 1197 1112 1266 1181 c 0,5,6
 1286 1201 1286 1201 1352 1235 c 0,7,8
 1417 1267 1417 1267 1491 1267 c 0,9,10
 1547 1267 1547 1267 1602.5 1247.5 c 128,-1,11
 1658 1228 1658 1228 1686 1188 c 0,12,13
 1711 1154 1711 1154 1711 1078 c 0,14,15
 1711 1018 1711 1018 1662 966 c 0,16,17
 1630 933 1630 933 1593 899.5 c 128,-1,18
 1556 866 1556 866 1522 821 c 1,19,20
 1464 841 1464 841 1360.5 852 c 128,-1,21
 1257 863 1257 863 1133 865 c 1,0,1
1060 787 m 1,22,23
 1232 784 1232 784 1342 770 c 128,-1,24
 1452 756 1452 756 1540 737 c 1,25,26
 1595 791 1595 791 1662 840 c 128,-1,27
 1729 889 1729 889 1756 924 c 0,28,29
 1804 989 1804 989 1804 1086 c 0,30,31
 1804 1175 1804 1175 1761 1235 c 0,32,33
 1684 1348 1684 1348 1526 1348 c 0,34,35
 1434 1348 1434 1348 1334 1308 c 0,36,37
 1243 1272 1243 1272 1202 1230 c 0,38,39
 1117 1148 1117 1148 1078 1014 c 0,40,41
 1063 968 1063 968 1061.5 897 c 128,-1,42
 1060 826 1060 826 1060 787 c 1,22,23
1518 614 m 1,43,44
 1334 665 1334 665 1028 665 c 0,45,46
 720 665 720 665 532 613 c 1,47,-1
 547 512 l 1,48,49
 736 561 736 561 1028 561 c 0,50,51
 1319 561 1319 561 1502 513 c 1,52,-1
 1518 614 l 1,43,44
1544 315 m 1,53,-1
 1514 433 l 1,54,55
 1319 478 1319 478 1024 478 c 0,56,57
 732 478 732 478 536 433 c 1,58,-1
 504 314 l 1,59,60
 694 372 694 372 1025 372 c 0,61,62
 1184 372 1184 372 1320 356 c 128,-1,63
 1456 340 1456 340 1544 315 c 1,53,-1
463 522 m 1,64,-1
 430 709 l 1,65,66
 429 709 429 709 427 713 c 0,67,68
 422 720 422 720 398.5 731.5 c 128,-1,69
 375 743 375 743 344 771 c 0,70,71
 300 808 300 808 275.5 831 c 128,-1,72
 251 854 251 854 231 881 c 0,73,74
 170 965 170 965 163 1084 c 0,75,76
 153 1199 153 1199 256 1313 c 0,77,78
 360 1427 360 1427 537 1420 c 0,79,80
 603 1416 603 1416 692 1388 c 0,81,82
 721 1376 721 1376 751.5 1364.5 c 128,-1,83
 782 1353 782 1353 812 1341 c 0,84,85
 828 1333 828 1333 840 1325 c 1,86,87
 835 1346 835 1346 835 1367 c 0,88,89
 835 1445 835 1445 890.5 1500 c 128,-1,90
 946 1555 946 1555 1024 1556 c 0,91,92
 1102 1556 1102 1556 1157 1500.5 c 128,-1,93
 1212 1445 1212 1445 1212 1368 c 0,94,95
 1212 1352 1212 1352 1208 1326 c 1,96,97
 1222 1335 1222 1335 1235 1341 c 0,98,99
 1281 1361 1281 1361 1356 1388 c 0,100,101
 1442 1417 1442 1417 1511 1421 c 0,102,103
 1688 1429 1688 1429 1791 1314 c 0,104,105
 1892 1200 1892 1200 1885 1085 c 0,106,107
 1877 966 1877 966 1816 882 c 0,108,109
 1796 855 1796 855 1771 831.5 c 128,-1,110
 1746 808 1746 808 1704 772 c 0,111,112
 1671 744 1671 744 1648 732.5 c 128,-1,113
 1625 721 1625 721 1621 714 c 0,114,115
 1620 712 1620 712 1619 711 c 128,-1,116
 1618 710 1618 710 1618 709 c 2,117,-1
 1586 521 l 1,118,-1
 1652 274 l 1,119,120
 1602 229 1602 229 1428 200 c 128,-1,121
 1254 171 1254 171 1026 171 c 0,122,123
 794 171 794 171 618 201.5 c 128,-1,124
 442 232 442 232 397 278 c 1,125,-1
 463 522 l 1,64,-1
988 788 m 1,126,127
 988 828 988 828 986 898.5 c 128,-1,128
 984 969 984 969 971 1016 c 0,129,130
 930 1150 930 1150 847 1232 c 0,131,132
 804 1274 804 1274 715 1310 c 0,133,134
 613 1350 613 1350 522 1350 c 0,135,136
 364 1350 364 1350 288 1237 c 0,137,138
 245 1177 245 1177 245 1087 c 0,139,140
 245 989 245 989 293 926 c 0,141,142
 318 890 318 890 389 837 c 128,-1,143
 460 784 460 784 509 739 c 1,144,145
 596 758 596 758 705.5 772 c 128,-1,146
 815 786 815 786 988 788 c 1,126,127
1024 1039 m 1,147,148
 1031 1067 1031 1067 1036 1078 c 2,149,150
 1046 1117 1046 1117 1059 1144 c 0,151,152
 1065 1161 1065 1161 1076.5 1183.5 c 128,-1,153
 1088 1206 1088 1206 1101 1235 c 0,154,155
 1109 1252 1109 1252 1118 1276.5 c 128,-1,156
 1127 1301 1127 1301 1136 1325 c 0,157,158
 1144 1345 1144 1345 1144 1368 c 0,159,160
 1144 1417 1144 1417 1109 1451.5 c 128,-1,161
 1074 1486 1074 1486 1024 1486 c 0,162,163
 905 1486 905 1486 905 1367 c 0,164,165
 905 1344 905 1344 913 1324 c 0,166,167
 935 1259 935 1259 947 1234 c 0,168,169
 960 1205 960 1205 971 1182.5 c 128,-1,170
 982 1160 982 1160 990 1143 c 0,171,172
 1003 1110 1003 1110 1012 1077 c 0,173,174
 1014 1071 1014 1071 1024 1039 c 1,147,148
1059 1559 m 1,175,-1
 988 1559 l 1,176,-1
 988 1690 l 1,177,-1
 905 1690 l 2,178,179
 871 1690 871 1690 871 1723 c 2,180,-1
 871 1724 l 2,181,182
 871 1757 871 1757 905 1757 c 2,183,-1
 988 1757 l 1,184,-1
 988 1842 l 2,185,186
 988 1877 988 1877 1024 1877 c 0,187,188
 1059 1877 1059 1877 1059 1842 c 2,189,-1
 1059 1757 l 1,190,-1
 1145 1757 l 2,191,192
 1178 1757 1178 1757 1178 1724 c 2,193,-1
 1178 1723 l 2,194,195
 1178 1690 1178 1690 1145 1690 c 2,196,-1
 1060 1689 l 1,197,-1
 1059 1559 l 1,175,-1
912 865 m 1,198,199
 787 863 787 863 683.5 852 c 128,-1,200
 580 841 580 841 523 821 c 1,201,202
 493 858 493 858 453.5 895.5 c 128,-1,203
 414 933 414 933 384 966 c 0,204,205
 334 1017 334 1017 334 1078 c 0,206,207
 334 1153 334 1153 359 1188 c 0,208,209
 386 1228 386 1228 442 1247.5 c 128,-1,210
 498 1267 498 1267 555 1267 c 0,211,212
 627 1267 627 1267 693 1235 c 0,213,214
 758 1201 758 1201 779 1181 c 0,215,216
 847 1112 847 1112 885 1031 c 0,217,218
 898 1001 898 1001 904.5 947.5 c 128,-1,219
 911 894 911 894 912 865 c 1,198,199
1024 1210 m 1,220,221
 1022 1220 1022 1220 1019 1227 c 0,222,223
 1013 1247 1013 1247 1009 1256 c 0,224,225
 1006 1263 1006 1263 1001 1273.5 c 128,-1,226
 996 1284 996 1284 991 1296 c 0,227,228
 988 1303 988 1303 983.5 1314.5 c 128,-1,229
 979 1326 979 1326 976 1336 c 0,230,231
 973 1345 973 1345 973 1355 c 0,232,233
 973 1408 973 1408 1024 1408 c 0,234,235
 1077 1408 1077 1408 1077 1356 c 0,236,237
 1077 1343 1077 1343 1073 1337 c 1,238,239
 1059 1299 1059 1299 1058 1296 c 0,240,241
 1043 1266 1043 1266 1039 1257 c 0,242,243
 1032 1241 1032 1241 1030 1228 c 1,244,245
 1027 1222 1027 1222 1026 1217.5 c 128,-1,246
 1025 1213 1025 1213 1024 1210 c 1,220,221
EndSplineSet
EndChar
StartChar: P
Encoding: 80 80 14
Width: 2048
Flags: W
Fore
1024 205 m 1,0,-1
 484 205 l 1,1,2
 444 305 444 305 444 414 c 0,3,4
 444 599 444 599 549 746 c 128,-1,5
 654 893 654 893 819 956 c 1,6,7
 748 989 748 989 703.5 1055.5 c 128,-1,8
 659 1122 659 1122 659 1206 c 0,9,10
 659 1311 659 1311 729 1388 c 128,-1,11
 799 1465 799 1465 901 1477 c 1,12,13
 820 1538 820 1538 820 1638 c 0,14,15
 820 1722 820 1722 879.5 1782 c 128,-1,16
 939 1842 939 1842 1024 1842 c 0,17,18
 1108 1842 1108 1842 1168 1782 c 128,-1,19
 1228 1722 1228 1722 1228 1638 c 0,20,21
 1228 1538 1228 1538 1147 1477 c 1,22,23
 1249 1465 1249 1465 1319 1388 c 128,-1,24
 1389 1311 1389 1311 1389 1206 c 0,25,26
 1389 1122 1389 1122 1343.5 1055.5 c 128,-1,27
 1298 989 1298 989 1228 956 c 1,28,29
 1393 893 1393 893 1498 746 c 128,-1,30
 1603 599 1603 599 1603 414 c 0,31,32
 1603 306 1603 306 1564 205 c 1,33,-1
 1024 205 l 1,0,-1
1024 273 m 1,34,-1
 1515 273 l 1,35,36
 1536 345 1536 345 1536 414 c 0,37,38
 1536 570 1536 570 1449.5 697 c 128,-1,39
 1363 824 1363 824 1227 884 c 1,40,41
 1161 889 1161 889 1161 956 c 0,42,43
 1161 1009 1161 1009 1228 1034 c 1,44,45
 1321 1099 1321 1099 1321 1206 c 0,46,47
 1321 1283 1321 1283 1269 1341 c 128,-1,48
 1217 1399 1217 1399 1143 1408 c 0,49,50
 1083 1413 1083 1413 1083 1476 c 0,51,52
 1083 1504 1083 1504 1105 1528 c 1,53,54
 1159 1570 1159 1570 1159 1638 c 0,55,56
 1159 1694 1159 1694 1119 1734 c 128,-1,57
 1079 1774 1079 1774 1024 1774 c 0,58,59
 967 1774 967 1774 927.5 1734 c 128,-1,60
 888 1694 888 1694 888 1638 c 0,61,62
 888 1571 888 1571 942 1528 c 0,63,64
 964 1506 964 1506 964 1476 c 0,65,66
 964 1413 964 1413 905 1408 c 0,67,68
 830 1399 830 1399 778.5 1341 c 128,-1,69
 727 1283 727 1283 727 1206 c 0,70,71
 727 1099 727 1099 820 1034 c 1,72,73
 887 1008 887 1008 887 956 c 0,74,75
 887 889 887 889 820 884 c 1,76,77
 684 824 684 824 598 697 c 128,-1,78
 512 570 512 570 512 414 c 0,79,80
 512 340 512 340 533 273 c 1,81,-1
 1024 273 l 1,34,-1
1471 117 m 1,82,-1
 1520 117 l 1,83,-1
 1402 0 l 1,84,-1
 1353 0 l 1,85,-1
 1471 117 l 1,82,-1
1195 117 m 1,86,-1
 1241 117 l 1,87,-1
 1124 0 l 1,88,-1
 1077 0 l 1,89,-1
 1195 117 l 1,86,-1
912 117 m 1,90,-1
 957 117 l 1,91,-1
 839 0 l 1,92,-1
 794 0 l 1,93,-1
 912 117 l 1,90,-1
637 117 m 1,94,-1
 682 117 l 1,95,-1
 563 0 l 1,96,-1
 518 0 l 1,97,-1
 637 117 l 1,94,-1
359 117 m 1,98,-1
 404 117 l 1,99,-1
 286 0 l 1,100,-1
 241 0 l 1,101,-1
 359 117 l 1,98,-1
1255 1797 m 1,102,103
 1247 1810 1247 1810 1236 1822 c 1,104,-1
 1462 2047 l 1,105,-1
 1507 2047 l 1,106,-1
 1255 1797 l 1,102,103
578 1163 m 1,107,-1
 0 585 l 1,108,-1
 0 537 l 1,109,-1
 584 1122 l 1,110,111
 579 1141 579 1141 578 1163 c 1,107,-1
0 1413 m 1,112,-1
 632 2047 l 1,113,-1
 677 2047 l 1,114,-1
 0 1370 l 1,115,-1
 0 1413 l 1,112,-1
0 1691 m 1,116,-1
 356 2047 l 1,117,-1
 401 2047 l 1,118,-1
 0 1647 l 1,119,-1
 0 1691 l 1,116,-1
0 1136 m 1,120,-1
 909 2047 l 1,121,-1
 954 2047 l 1,122,-1
 0 1094 l 1,123,-1
 0 1136 l 1,120,-1
1092 1908 m 1,124,125
 1080 1912 1080 1912 1054 1916 c 1,126,-1
 1185 2047 l 1,127,-1
 1230 2047 l 1,128,-1
 1092 1908 l 1,124,125
748 1564 m 1,129,130
 743 1582 743 1582 742 1602 c 1,131,-1
 0 858 l 1,132,-1
 0 814 l 1,133,-1
 748 1564 l 1,129,130
1300 1562 m 1,134,135
 1308 1596 1308 1596 1308 1616 c 1,136,-1
 1738 2047 l 1,137,-1
 1783 2047 l 1,138,-1
 1300 1562 l 1,134,135
475 783 m 1,139,-1
 0 309 l 1,140,-1
 0 261 l 1,141,-1
 416 677 l 1,142,143
 441 734 441 734 475 783 c 1,139,-1
1949 0 m 1,144,-1
 1906 0 l 1,145,-1
 2048 140 l 1,146,-1
 2048 95 l 1,147,-1
 1949 0 l 1,144,-1
0 1923 m 1,148,-1
 0 1967 l 1,149,-1
 79 2047 l 1,150,-1
 124 2047 l 1,151,-1
 0 1923 l 1,148,-1
1630 0 m 1,152,-1
 2048 416 l 1,153,-1
 2048 370 l 1,154,-1
 1677 0 l 1,155,-1
 1630 0 l 1,152,-1
1677 274 m 1,156,157
 1681 292 1681 292 1685 330 c 1,158,-1
 2048 691 l 1,159,-1
 2048 646 l 1,160,-1
 1677 274 l 1,156,157
1674 549 m 1,161,162
 1673 554 1673 554 1663 585 c 1,163,-1
 2048 970 l 1,164,-1
 2048 923 l 1,165,-1
 1674 549 l 1,161,162
1594 751 m 1,166,167
 1589 758 1589 758 1584.5 765 c 128,-1,168
 1580 772 1580 772 1576 780 c 1,169,-1
 2048 1251 l 1,170,-1
 2048 1206 l 1,171,-1
 1594 751 l 1,166,167
1470 902 m 1,172,173
 1459 912 1459 912 1443 923 c 1,174,-1
 2048 1528 l 1,175,-1
 2048 1483 l 1,176,-1
 1470 902 l 1,172,173
1472 1183 m 1,177,178
 1472 1188 1472 1188 1472.5 1192.5 c 128,-1,179
 1473 1197 1473 1197 1473 1202 c 0,180,181
 1473 1213 1473 1213 1471 1229 c 1,182,-1
 2048 1804 l 1,183,-1
 2048 1759 l 1,184,-1
 1472 1183 l 1,177,178
1410 1400 m 1,185,186
 1405 1406 1405 1406 1400.5 1412 c 128,-1,187
 1396 1418 1396 1418 1392 1424 c 1,188,-1
 2015 2047 l 1,189,190
 2048 2047 2048 2047 2048 2040 c 1,191,-1
 1410 1400 l 1,185,186
359 390 m 1,192,193
 359 373 359 373 361 347 c 1,194,-1
 13 0 l 1,195,196
 0 0 0 0 0 32 c 1,197,-1
 359 390 l 1,192,193
EndSplineSet
EndChar
StartChar: O
Encoding: 79 79 15
Width: 2048
Flags: W
Fore
1024 205 m 1,0,-1
 484 205 l 1,1,2
 444 305 444 305 444 414 c 0,3,4
 444 599 444 599 549 746 c 128,-1,5
 654 893 654 893 819 956 c 1,6,7
 748 989 748 989 703.5 1055.5 c 128,-1,8
 659 1122 659 1122 659 1206 c 0,9,10
 659 1311 659 1311 729 1388 c 128,-1,11
 799 1465 799 1465 901 1477 c 1,12,13
 820 1538 820 1538 820 1638 c 0,14,15
 820 1722 820 1722 879.5 1782 c 128,-1,16
 939 1842 939 1842 1024 1842 c 0,17,18
 1108 1842 1108 1842 1168 1782 c 128,-1,19
 1228 1722 1228 1722 1228 1638 c 0,20,21
 1228 1538 1228 1538 1147 1477 c 1,22,23
 1249 1465 1249 1465 1319 1388 c 128,-1,24
 1389 1311 1389 1311 1389 1206 c 0,25,26
 1389 1122 1389 1122 1343.5 1055.5 c 128,-1,27
 1298 989 1298 989 1228 956 c 1,28,29
 1393 893 1393 893 1498 746 c 128,-1,30
 1603 599 1603 599 1603 414 c 0,31,32
 1603 306 1603 306 1564 205 c 1,33,-1
 1024 205 l 1,0,-1
359 390 m 1,34,35
 359 373 359 373 361 347 c 1,36,-1
 13 0 l 1,37,38
 0 0 0 0 0 32 c 1,39,-1
 359 390 l 1,34,35
1410 1400 m 1,40,41
 1405 1406 1405 1406 1400.5 1412 c 128,-1,42
 1396 1418 1396 1418 1392 1424 c 1,43,-1
 2015 2047 l 1,44,45
 2048 2047 2048 2047 2048 2040 c 1,46,-1
 1410 1400 l 1,40,41
1472 1183 m 1,47,48
 1472 1188 1472 1188 1472.5 1192.5 c 128,-1,49
 1473 1197 1473 1197 1473 1202 c 0,50,51
 1473 1213 1473 1213 1471 1229 c 1,52,-1
 2048 1804 l 1,53,-1
 2048 1759 l 1,54,-1
 1472 1183 l 1,47,48
1470 902 m 1,55,56
 1459 912 1459 912 1443 923 c 1,57,-1
 2048 1528 l 1,58,-1
 2048 1483 l 1,59,-1
 1470 902 l 1,55,56
1594 751 m 1,60,61
 1589 758 1589 758 1584.5 765 c 128,-1,62
 1580 772 1580 772 1576 780 c 1,63,-1
 2048 1251 l 1,64,-1
 2048 1206 l 1,65,-1
 1594 751 l 1,60,61
1674 549 m 1,66,67
 1673 554 1673 554 1663 585 c 1,68,-1
 2048 970 l 1,69,-1
 2048 923 l 1,70,-1
 1674 549 l 1,66,67
1677 274 m 1,71,72
 1681 292 1681 292 1685 330 c 1,73,-1
 2048 691 l 1,74,-1
 2048 646 l 1,75,-1
 1677 274 l 1,71,72
1630 0 m 1,76,-1
 2048 416 l 1,77,-1
 2048 370 l 1,78,-1
 1677 0 l 1,79,-1
 1630 0 l 1,76,-1
0 1923 m 1,80,-1
 0 1967 l 1,81,-1
 79 2047 l 1,82,-1
 124 2047 l 1,83,-1
 0 1923 l 1,80,-1
1949 0 m 1,84,-1
 1906 0 l 1,85,-1
 2048 140 l 1,86,-1
 2048 95 l 1,87,-1
 1949 0 l 1,84,-1
475 783 m 1,88,-1
 0 309 l 1,89,-1
 0 261 l 1,90,-1
 416 677 l 1,91,92
 441 734 441 734 475 783 c 1,88,-1
1300 1562 m 1,93,94
 1308 1596 1308 1596 1308 1616 c 1,95,-1
 1738 2047 l 1,96,-1
 1783 2047 l 1,97,-1
 1300 1562 l 1,93,94
748 1564 m 1,98,99
 743 1582 743 1582 742 1602 c 1,100,-1
 0 858 l 1,101,-1
 0 814 l 1,102,-1
 748 1564 l 1,98,99
1092 1908 m 1,103,104
 1080 1912 1080 1912 1054 1916 c 1,105,-1
 1185 2047 l 1,106,-1
 1230 2047 l 1,107,-1
 1092 1908 l 1,103,104
0 1136 m 1,108,-1
 909 2047 l 1,109,-1
 954 2047 l 1,110,-1
 0 1094 l 1,111,-1
 0 1136 l 1,108,-1
0 1691 m 1,112,-1
 356 2047 l 1,113,-1
 401 2047 l 1,114,-1
 0 1647 l 1,115,-1
 0 1691 l 1,112,-1
0 1413 m 1,116,-1
 632 2047 l 1,117,-1
 677 2047 l 1,118,-1
 0 1370 l 1,119,-1
 0 1413 l 1,116,-1
578 1163 m 1,120,-1
 0 585 l 1,121,-1
 0 537 l 1,122,-1
 584 1122 l 1,123,124
 579 1141 579 1141 578 1163 c 1,120,-1
1255 1797 m 1,125,126
 1247 1810 1247 1810 1236 1822 c 1,127,-1
 1462 2047 l 1,128,-1
 1507 2047 l 1,129,-1
 1255 1797 l 1,125,126
359 117 m 1,130,-1
 404 117 l 1,131,-1
 286 0 l 1,132,-1
 241 0 l 1,133,-1
 359 117 l 1,130,-1
637 117 m 1,134,-1
 682 117 l 1,135,-1
 563 0 l 1,136,-1
 518 0 l 1,137,-1
 637 117 l 1,134,-1
912 117 m 1,138,-1
 957 117 l 1,139,-1
 839 0 l 1,140,-1
 794 0 l 1,141,-1
 912 117 l 1,138,-1
1195 117 m 1,142,-1
 1241 117 l 1,143,-1
 1124 0 l 1,144,-1
 1077 0 l 1,145,-1
 1195 117 l 1,142,-1
1471 117 m 1,146,-1
 1520 117 l 1,147,-1
 1402 0 l 1,148,-1
 1353 0 l 1,149,-1
 1471 117 l 1,146,-1
EndSplineSet
EndChar
StartChar: N
Encoding: 78 78 16
Width: 2048
Flags: W
Fore
1756 274 m 1,0,1
 1755 274 1755 274 1758 328.5 c 128,-1,2
 1761 383 1761 383 1761 446 c 0,3,4
 1762 571 1762 571 1761 704.5 c 128,-1,5
 1760 838 1760 838 1725 971 c 0,6,7
 1691 1099 1691 1099 1650 1189.5 c 128,-1,8
 1609 1280 1609 1280 1561 1346 c 0,9,10
 1489 1454 1489 1454 1365 1529 c 128,-1,11
 1241 1604 1241 1604 1106 1627 c 1,12,13
 1115 1578 1115 1578 1114 1531 c 0,14,15
 1112 1495 1112 1495 1080 1495 c 0,16,17
 1043 1495 1043 1495 1047 1531 c 0,18,19
 1050 1663 1050 1663 953 1757 c 1,20,21
 877 1677 877 1677 871 1571 c 0,22,23
 869 1536 869 1536 835 1540 c 0,24,25
 803 1541 803 1541 803 1577 c 1,26,-1
 805 1585 l 1,27,28
 764 1572 764 1572 719 1548 c 0,29,30
 690 1528 690 1528 672 1558 c 256,31,32
 654 1588 654 1588 688 1605 c 0,33,34
 731 1627 731 1627 753 1638 c 1,35,36
 667 1726 667 1726 557 1780 c 1,37,38
 569 1641 569 1641 633 1517 c 0,39,40
 650 1491 650 1491 625 1471 c 0,41,42
 597 1449 597 1449 578 1478 c 0,43,44
 571 1488 571 1488 558 1514 c 1,45,46
 537 1493 537 1493 530 1483 c 0,47,48
 523 1474 523 1474 505.5 1443 c 128,-1,49
 488 1412 488 1412 480 1392 c 0,50,51
 471 1367 471 1367 472.5 1351.5 c 128,-1,52
 474 1336 474 1336 475 1317 c 1,53,54
 466 1258 466 1258 434.5 1206 c 128,-1,55
 403 1154 403 1154 354 1079 c 0,56,57
 307 1007 307 1007 282 971 c 128,-1,58
 257 935 257 935 244 879 c 0,59,60
 235 845 235 845 244 796.5 c 128,-1,61
 253 748 253 748 283 721 c 0,62,63
 329 674 329 674 372 678 c 0,64,65
 386 678 386 678 409.5 689 c 128,-1,66
 433 700 433 700 446 731 c 0,67,68
 472 788 472 788 489 788 c 0,69,70
 514 788 514 788 516 760 c 0,71,72
 516 754 516 754 500 710 c 0,73,74
 491 690 491 690 476 668 c 0,75,76
 457 642 457 642 459 646 c 1,77,78
 475 589 475 589 512 626 c 0,79,80
 523 637 523 637 537 667 c 128,-1,81
 551 697 551 697 581 748 c 0,82,83
 616 807 616 807 656 844 c 128,-1,84
 696 881 696 881 727 904 c 0,85,86
 745 917 745 917 771 934 c 128,-1,87
 797 951 797 951 841 969 c 0,88,89
 876 983 876 983 918.5 1003.5 c 128,-1,90
 961 1024 961 1024 994 1056 c 0,91,92
 1040 1101 1040 1101 1065 1167 c 0,93,94
 1078 1204 1078 1204 1075 1258 c 1,95,96
 1066 1292 1066 1292 1109 1292 c 0,97,98
 1141 1292 1141 1292 1145 1259 c 0,99,100
 1145 1146 1145 1146 1081 1053 c 1,101,102
 1102 989 1102 989 1092 913 c 0,103,104
 1083 852 1083 852 1049.5 782.5 c 128,-1,105
 1016 713 1016 713 914 628 c 0,106,107
 707 456 707 456 718 274 c 1,108,109
 1059 274 1059 274 1209 274 c 2,110,-1
 1756 274 l 1,0,1
1079 1697 m 1,111,112
 1236 1687 1236 1687 1370 1616 c 128,-1,113
 1504 1545 1504 1545 1598 1434 c 0,114,115
 1664 1356 1664 1356 1722.5 1246 c 128,-1,116
 1781 1136 1781 1136 1816 1013 c 0,117,118
 1856 870 1856 870 1866.5 712.5 c 128,-1,119
 1877 555 1877 555 1877 421 c 2,120,-1
 1877 203 l 1,121,122
 1566 203 1566 203 1318 203 c 2,123,-1
 647 203 l 2,124,125
 638 203 638 203 638.5 252 c 128,-1,126
 639 301 639 301 645 331 c 0,127,128
 649 355 649 355 664 399 c 128,-1,129
 679 443 679 443 714 506 c 0,130,131
 730 538 730 538 790 599.5 c 128,-1,132
 850 661 850 661 928 742 c 0,133,134
 973 788 973 788 998.5 858 c 128,-1,135
 1024 928 1024 928 1020 985 c 1,136,137
 983 955 983 955 939 936 c 0,138,139
 727 860 727 860 632 716 c 0,140,141
 625 707 625 707 587 635 c 0,142,143
 567 597 567 597 553 583 c 0,144,145
 534 564 534 564 498 562 c 0,146,147
 442 559 442 559 411 616 c 1,148,149
 369 604 369 604 336 606 c 1,150,151
 280 627 280 627 255 651 c 0,152,153
 204 702 204 702 188.5 753 c 128,-1,154
 173 804 173 804 173 863 c 0,155,156
 173 947 173 947 277 1085 c 0,157,158
 399 1244 399 1244 407 1327 c 0,159,160
 407 1363 407 1363 414 1408 c 0,161,162
 420 1439 420 1439 439 1468 c 0,163,164
 452 1488 452 1488 456.5 1495.5 c 128,-1,165
 461 1503 461 1503 473 1518 c 0,166,167
 482 1530 482 1530 488 1536.5 c 128,-1,168
 494 1543 494 1543 503 1554 c 0,169,170
 514 1567 514 1567 531 1584 c 1,171,172
 478 1730 478 1730 488 1885 c 1,173,174
 687 1814 687 1814 822 1662 c 1,175,176
 855 1775 855 1775 952 1845 c 1,177,178
 1032 1789 1032 1789 1079 1697 c 1,111,112
400 882 m 0,179,180
 371 864 371 864 365 834 c 1,181,182
 366 801 366 801 334 798 c 0,183,184
 299 794 299 794 298 828 c 0,185,186
 302 894 302 894 357 933 c 0,187,188
 383 954 383 954 405 929 c 0,189,190
 427 902 427 902 400 882 c 0,179,180
697 1359 m 1,191,192
 710 1339 710 1339 707 1317 c 0,193,194
 697 1253 697 1253 636 1263 c 0,195,196
 618 1266 618 1266 607 1275 c 1,197,198
 603 1270 603 1270 595 1253 c 0,199,200
 584 1221 584 1221 553 1231 c 0,201,202
 522 1243 522 1243 529 1276 c 1,203,204
 574 1391 574 1391 692 1434 c 0,205,206
 726 1444 726 1444 737 1414 c 0,207,208
 749 1382 749 1382 719 1370 c 0,209,210
 713 1367 713 1367 708 1364.5 c 128,-1,211
 703 1362 703 1362 697 1359 c 1,191,192
1799 119 m 1,212,-1
 1677 0 l 1,213,-1
 1630 0 l 1,214,-1
 1749 119 l 1,215,-1
 1799 119 l 1,212,-1
1523 119 m 1,216,-1
 1402 0 l 1,217,-1
 1353 0 l 1,218,-1
 1477 119 l 1,219,-1
 1523 119 l 1,216,-1
1246 119 m 1,220,-1
 1124 0 l 1,221,-1
 1077 0 l 1,222,-1
 1196 119 l 1,223,-1
 1246 119 l 1,220,-1
960 119 m 1,224,-1
 839 0 l 1,225,-1
 794 0 l 1,226,-1
 914 119 l 1,227,-1
 960 119 l 1,224,-1
683 119 m 1,228,-1
 563 0 l 1,229,-1
 518 0 l 1,230,-1
 635 119 l 1,231,-1
 683 119 l 1,228,-1
1226 1764 m 1,232,233
 1191 1772 1191 1772 1185 1773 c 1,234,-1
 1462 2047 l 1,235,-1
 1507 2047 l 1,236,-1
 1226 1764 l 1,232,233
120 705 m 1,237,238
 124 684 124 684 134 669 c 1,239,-1
 0 537 l 1,240,-1
 0 585 l 1,241,-1
 120 705 l 1,237,238
580 1953 m 1,242,243
 578 1954 578 1954 551 1966 c 1,244,-1
 632 2047 l 1,245,-1
 677 2047 l 1,246,-1
 580 1953 l 1,242,243
391 1807 m 1,247,-1
 0 1413 l 1,248,-1
 0 1370 l 1,249,-1
 396 1765 l 1,250,251
 392 1789 392 1789 391 1807 c 1,247,-1
0 1691 m 1,252,-1
 356 2047 l 1,253,-1
 401 2047 l 1,254,-1
 0 1647 l 1,255,-1
 0 1691 l 1,252,-1
753 1847 m 1,256,257
 751 1848 751 1848 728 1866 c 1,258,-1
 909 2047 l 1,259,-1
 954 2047 l 1,260,-1
 753 1847 l 1,256,257
350 1487 m 1,261,-1
 0 1136 l 1,262,-1
 0 1094 l 1,263,-1
 339 1432 l 1,264,265
 339 1438 339 1438 340.5 1445.5 c 128,-1,266
 342 1453 342 1453 343 1462 c 0,267,268
 343 1468 343 1468 350 1487 c 1,261,-1
1049 1868 m 1,269,270
 1034 1884 1034 1884 1029 1891 c 1,271,-1
 1185 2047 l 1,272,-1
 1230 2047 l 1,273,-1
 1049 1868 l 1,269,270
103 962 m 1,274,275
 90 937 90 937 80 894 c 1,276,-1
 0 814 l 1,277,-1
 0 858 l 1,278,-1
 103 962 l 1,274,275
1422 1682 m 1,279,280
 1416 1686 1416 1686 1391 1699 c 1,281,-1
 1738 2047 l 1,282,-1
 1783 2047 l 1,283,-1
 1422 1682 l 1,279,280
236 546 m 1,284,285
 242 542 242 542 251 538 c 128,-1,286
 269 530 l 1,287,-1
 0 261 l 1,288,-1
 0 309 l 1,289,-1
 236 546 l 1,284,285
1949 0 m 1,290,-1
 1906 0 l 1,291,-1
 2048 140 l 1,292,-1
 2048 95 l 1,293,-1
 1949 0 l 1,290,-1
0 1923 m 1,294,-1
 0 1967 l 1,295,-1
 79 2047 l 1,296,-1
 124 2047 l 1,297,-1
 0 1923 l 1,294,-1
1964 285 m 1,298,-1
 1964 332 l 1,299,-1
 2048 416 l 1,300,-1
 2048 370 l 1,301,-1
 1964 285 l 1,298,-1
1962 559 m 1,302,303
 1960 587 1960 587 1960 604 c 1,304,-1
 2048 691 l 1,305,-1
 2048 646 l 1,306,-1
 1962 559 l 1,302,303
1941 816 m 1,307,308
 1939 830 1939 830 1935 856 c 1,309,-1
 2048 970 l 1,310,-1
 2048 923 l 1,311,-1
 1941 816 l 1,307,308
1893 1048 m 1,312,313
 1887 1071 1887 1071 1881 1086 c 1,314,-1
 2048 1251 l 1,315,-1
 2048 1206 l 1,316,-1
 1893 1048 l 1,312,313
1813 1249 m 1,317,318
 1808 1261 1808 1261 1798 1278 c 1,319,-1
 2048 1528 l 1,320,-1
 2048 1483 l 1,321,-1
 1813 1249 l 1,317,318
1710 1422 m 1,322,323
 1692 1446 1692 1446 2048 1804 c 1,324,-1
 2048 1759 l 1,325,-1
 1710 1422 l 1,322,323
567 326 m 1,326,327
 563 303 563 303 562 274 c 1,328,-1
 286 0 l 1,329,-1
 241 0 l 1,330,-1
 567 326 l 1,326,327
1581 1568 m 1,331,332
 1569 1579 1569 1579 1556 1590 c 1,333,-1
 2015 2047 l 1,334,335
 2048 2047 2048 2047 2048 2040 c 1,336,-1
 1581 1568 l 1,331,332
442 473 m 1,337,338
 463 467 463 467 481 469 c 1,339,-1
 13 0 l 1,340,341
 0 0 0 0 0 32 c 1,342,-1
 442 473 l 1,337,338
EndSplineSet
EndChar
StartChar: M
Encoding: 77 77 17
Width: 2048
Flags: W
Fore
490 683 m 0,0,1
 494 692 494 692 503 710 c 0,2,3
 520 752 520 752 520 760 c 0,4,5
 518 788 518 788 491 788 c 0,6,7
 471 788 471 788 444 731 c 0,8,9
 440 723 440 723 432 717 c 1,10,11
 405 689 405 689 440 670 c 0,12,13
 472 651 472 651 490 683 c 0,0,1
1080 1054 m 1,14,15
 1150 1146 1150 1146 1149 1259 c 0,16,17
 1145 1292 1145 1292 1111 1292 c 0,18,19
 1065 1292 1065 1292 1075 1258 c 1,20,21
 1078 1203 1078 1203 1064 1167 c 0,22,23
 1041 1110 1041 1110 1013 1082 c 1,24,25
 998 1052 998 1052 1031 1038 c 0,26,27
 1063 1023 1063 1023 1080 1054 c 1,14,15
819 1542 m 1,28,29
 814 1578 814 1578 821 1620 c 1,30,31
 761 1608 761 1608 708 1564 c 1,32,33
 676 1547 676 1547 693 1517 c 0,34,35
 710 1486 710 1486 740 1507 c 0,36,37
 761 1518 761 1518 778.5 1527.5 c 128,-1,38
 796 1537 796 1537 819 1542 c 1,28,29
1756 274 m 1,39,40
 1755 274 1755 274 1758 328.5 c 128,-1,41
 1761 383 1761 383 1761 446 c 0,42,43
 1762 571 1762 571 1761 704.5 c 128,-1,44
 1760 838 1760 838 1725 971 c 0,45,46
 1691 1099 1691 1099 1650 1189.5 c 128,-1,47
 1609 1280 1609 1280 1561 1346 c 0,48,49
 1489 1454 1489 1454 1365 1529 c 128,-1,50
 1241 1604 1241 1604 1106 1627 c 1,51,52
 1110 1604 1110 1604 1108.5 1580 c 128,-1,53
 1107 1556 1107 1556 1109 1534 c 1,54,55
 1206 1501 1206 1501 1292 1452 c 128,-1,56
 1378 1403 1378 1403 1418 1346 c 0,57,58
 1466 1280 1466 1280 1507 1189.5 c 128,-1,59
 1548 1099 1548 1099 1582 971 c 0,60,61
 1616 838 1616 838 1617 704.5 c 128,-1,62
 1618 571 1618 571 1618 446 c 0,63,64
 1618 383 1618 383 1615 328.5 c 128,-1,65
 1612 274 1612 274 1615 274 c 2,66,-1
 1756 274 l 1,39,40
1079 1697 m 1,67,68
 1236 1687 1236 1687 1370 1616 c 128,-1,69
 1504 1545 1504 1545 1598 1434 c 0,70,71
 1664 1356 1664 1356 1722.5 1246 c 128,-1,72
 1781 1136 1781 1136 1816 1013 c 0,73,74
 1856 870 1856 870 1866.5 712.5 c 128,-1,75
 1877 555 1877 555 1877 421 c 2,76,-1
 1877 203 l 1,77,78
 1566 203 1566 203 1318 203 c 2,79,-1
 647 203 l 2,80,81
 638 203 638 203 638.5 252 c 128,-1,82
 639 301 639 301 645 331 c 0,83,84
 649 355 649 355 664 399 c 128,-1,85
 679 443 679 443 714 506 c 0,86,87
 730 538 730 538 790 599.5 c 128,-1,88
 850 661 850 661 928 742 c 0,89,90
 973 788 973 788 998.5 858 c 128,-1,91
 1024 928 1024 928 1020 985 c 1,92,93
 983 955 983 955 939 936 c 0,94,95
 727 860 727 860 632 716 c 0,96,97
 625 707 625 707 587 635 c 0,98,99
 567 597 567 597 553 583 c 0,100,101
 534 564 534 564 498 562 c 0,102,103
 442 559 442 559 411 616 c 1,104,105
 369 604 369 604 336 606 c 1,106,107
 280 627 280 627 255 651 c 0,108,109
 204 702 204 702 188.5 753 c 128,-1,110
 173 804 173 804 173 863 c 0,111,112
 173 947 173 947 277 1085 c 0,113,114
 399 1244 399 1244 407 1327 c 0,115,116
 407 1363 407 1363 414 1408 c 0,117,118
 420 1439 420 1439 439 1468 c 0,119,120
 452 1488 452 1488 456.5 1495.5 c 128,-1,121
 461 1503 461 1503 473 1518 c 0,122,123
 482 1530 482 1530 488 1536.5 c 128,-1,124
 494 1543 494 1543 503 1554 c 0,125,126
 514 1567 514 1567 531 1584 c 1,127,128
 478 1730 478 1730 488 1885 c 1,129,130
 687 1814 687 1814 822 1662 c 1,131,132
 855 1775 855 1775 952 1845 c 1,133,134
 1032 1789 1032 1789 1079 1697 c 1,67,68
404 861 m 0,135,136
 433 881 433 881 410 909 c 0,137,138
 386 932 386 932 357 913 c 0,139,140
 296 873 296 873 292 808 c 0,141,142
 293 775 293 775 331 777 c 0,143,144
 367 780 367 780 366 814 c 1,145,146
 374 846 374 846 404 861 c 0,135,136
656 1359 m 1,147,148
 678 1370 678 1370 693 1376 c 128,-1,149
 708 1382 708 1382 697 1414 c 0,150,151
 685 1444 685 1444 651 1434 c 0,152,153
 533 1391 533 1391 488 1276 c 1,154,155
 481 1243 481 1243 512 1231 c 0,156,157
 543 1221 543 1221 554 1253 c 0,158,159
 562 1270 562 1270 566 1275 c 1,160,161
 577 1266 577 1266 595 1263 c 0,162,163
 656 1253 656 1253 666 1317 c 0,164,165
 669 1339 669 1339 656 1359 c 1,147,148
442 473 m 1,166,167
 463 467 463 467 481 469 c 1,168,-1
 13 0 l 1,169,170
 0 0 0 0 0 32 c 1,171,-1
 442 473 l 1,166,167
1581 1568 m 1,172,173
 1569 1579 1569 1579 1556 1590 c 1,174,-1
 2015 2047 l 1,175,176
 2048 2047 2048 2047 2048 2040 c 1,177,-1
 1581 1568 l 1,172,173
567 326 m 1,178,179
 563 303 563 303 562 274 c 1,180,-1
 286 0 l 1,181,-1
 241 0 l 1,182,-1
 567 326 l 1,178,179
1710 1422 m 1,183,184
 1692 1446 1692 1446 2048 1804 c 1,185,-1
 2048 1759 l 1,186,-1
 1710 1422 l 1,183,184
1813 1249 m 1,187,188
 1808 1261 1808 1261 1798 1278 c 1,189,-1
 2048 1528 l 1,190,-1
 2048 1483 l 1,191,-1
 1813 1249 l 1,187,188
1893 1048 m 1,192,193
 1887 1071 1887 1071 1881 1086 c 1,194,-1
 2048 1251 l 1,195,-1
 2048 1206 l 1,196,-1
 1893 1048 l 1,192,193
1941 816 m 1,197,198
 1939 830 1939 830 1935 856 c 1,199,-1
 2048 970 l 1,200,-1
 2048 923 l 1,201,-1
 1941 816 l 1,197,198
1962 559 m 1,202,203
 1960 587 1960 587 1960 604 c 1,204,-1
 2048 691 l 1,205,-1
 2048 646 l 1,206,-1
 1962 559 l 1,202,203
1964 285 m 1,207,-1
 1964 332 l 1,208,-1
 2048 416 l 1,209,-1
 2048 370 l 1,210,-1
 1964 285 l 1,207,-1
0 1923 m 1,211,-1
 0 1967 l 1,212,-1
 79 2047 l 1,213,-1
 124 2047 l 1,214,-1
 0 1923 l 1,211,-1
1949 0 m 1,215,-1
 1906 0 l 1,216,-1
 2048 140 l 1,217,-1
 2048 95 l 1,218,-1
 1949 0 l 1,215,-1
236 546 m 1,219,220
 242 542 242 542 251 538 c 128,-1,221
 269 530 l 1,222,-1
 0 261 l 1,223,-1
 0 309 l 1,224,-1
 236 546 l 1,219,220
1422 1682 m 1,225,226
 1416 1686 1416 1686 1391 1699 c 1,227,-1
 1738 2047 l 1,228,-1
 1783 2047 l 1,229,-1
 1422 1682 l 1,225,226
103 962 m 1,230,231
 90 937 90 937 80 894 c 1,232,-1
 0 814 l 1,233,-1
 0 858 l 1,234,-1
 103 962 l 1,230,231
1049 1868 m 1,235,236
 1034 1884 1034 1884 1029 1891 c 1,237,-1
 1185 2047 l 1,238,-1
 1230 2047 l 1,239,-1
 1049 1868 l 1,235,236
350 1487 m 1,240,-1
 0 1136 l 1,241,-1
 0 1094 l 1,242,-1
 339 1432 l 1,243,244
 339 1438 339 1438 340.5 1445.5 c 128,-1,245
 342 1453 342 1453 343 1462 c 0,246,247
 343 1468 343 1468 350 1487 c 1,240,-1
753 1847 m 1,248,249
 751 1848 751 1848 728 1866 c 1,250,-1
 909 2047 l 1,251,-1
 954 2047 l 1,252,-1
 753 1847 l 1,248,249
0 1691 m 1,253,-1
 356 2047 l 1,254,-1
 401 2047 l 1,255,-1
 0 1647 l 1,256,-1
 0 1691 l 1,253,-1
391 1807 m 1,257,-1
 0 1413 l 1,258,-1
 0 1370 l 1,259,-1
 396 1765 l 1,260,261
 392 1789 392 1789 391 1807 c 1,257,-1
580 1953 m 1,262,263
 578 1954 578 1954 551 1966 c 1,264,-1
 632 2047 l 1,265,-1
 677 2047 l 1,266,-1
 580 1953 l 1,262,263
120 705 m 1,267,268
 124 684 124 684 134 669 c 1,269,-1
 0 537 l 1,270,-1
 0 585 l 1,271,-1
 120 705 l 1,267,268
1226 1764 m 1,272,273
 1191 1772 1191 1772 1185 1773 c 1,274,-1
 1462 2047 l 1,275,-1
 1507 2047 l 1,276,-1
 1226 1764 l 1,272,273
683 119 m 1,277,-1
 563 0 l 1,278,-1
 518 0 l 1,279,-1
 635 119 l 1,280,-1
 683 119 l 1,277,-1
960 119 m 1,281,-1
 839 0 l 1,282,-1
 794 0 l 1,283,-1
 914 119 l 1,284,-1
 960 119 l 1,281,-1
1246 119 m 1,285,-1
 1124 0 l 1,286,-1
 1077 0 l 1,287,-1
 1196 119 l 1,288,-1
 1246 119 l 1,285,-1
1523 119 m 1,289,-1
 1402 0 l 1,290,-1
 1353 0 l 1,291,-1
 1477 119 l 1,292,-1
 1523 119 l 1,289,-1
1799 119 m 1,293,-1
 1677 0 l 1,294,-1
 1630 0 l 1,295,-1
 1749 119 l 1,296,-1
 1799 119 l 1,293,-1
EndSplineSet
EndChar
StartChar: B
Encoding: 66 66 18
Width: 2048
Flags: W
Fore
1059 505 m 1,0,1
 1059 439 1059 439 1089.5 392.5 c 128,-1,2
 1120 346 1120 346 1155 320 c 0,3,4
 1210 280 1210 280 1316 280 c 0,5,6
 1342 280 1342 280 1418 291 c 0,7,8
 1480 301 1480 301 1518 305.5 c 128,-1,9
 1556 310 1556 310 1569 313 c 0,10,11
 1607 318 1607 318 1649 311 c 0,12,13
 1665 307 1665 307 1684.5 303.5 c 128,-1,14
 1704 300 1704 300 1717 288 c 1,15,-1
 1765 366 l 1,16,17
 1724 387 1724 387 1678 395 c 0,18,19
 1602 408 1602 408 1545 401 c 0,20,21
 1528 399 1528 399 1500.5 391 c 128,-1,22
 1473 383 1473 383 1426 376 c 0,23,24
 1325 360 1325 360 1319 360 c 0,25,26
 1280 360 1280 360 1251 370 c 128,-1,27
 1222 380 1222 380 1199 392 c 0,28,29
 1146 416 1146 416 1091 505 c 1,30,-1
 1059 505 l 1,0,1
1024 392 m 1,31,32
 1010 335 1010 335 990 313 c 128,-1,33
 970 291 970 291 937 267 c 0,34,35
 901 242 901 242 852 224.5 c 128,-1,36
 803 207 803 207 743 216 c 2,37,-1
 462 255 l 2,38,39
 445 257 445 257 431.5 255 c 128,-1,40
 418 253 418 253 406 253 c 0,41,42
 385 253 385 253 352.5 243.5 c 128,-1,43
 320 234 320 234 302 216 c 1,44,-1
 205 375 l 1,45,46
 223 395 223 395 237 403 c 128,-1,47
 251 411 251 411 270 420 c 0,48,49
 328 447 328 447 394 453 c 0,50,51
 422 455 422 455 449 454 c 128,-1,52
 476 453 476 453 505 456 c 1,53,54
 559 447 559 447 613.5 439.5 c 128,-1,55
 668 432 668 432 723 424 c 1,56,57
 783 424 783 424 804 436 c 0,58,59
 815 442 815 442 839 458 c 128,-1,60
 863 474 863 474 887 505 c 1,61,62
 834 511 834 511 779 525.5 c 128,-1,63
 724 540 724 540 682 556 c 1,64,-1
 786 814 l 1,65,66
 708 859 708 859 677 886.5 c 128,-1,67
 646 914 646 914 628 950 c 0,68,69
 602 996 602 996 594.5 1039 c 128,-1,70
 587 1082 587 1082 588 1116 c 0,71,72
 589 1176 589 1176 616.5 1248.5 c 128,-1,73
 644 1321 644 1321 720 1378 c 0,74,75
 783 1426 783 1426 843 1477 c 128,-1,76
 903 1528 903 1528 962 1596 c 1,77,78
 888 1634 888 1634 888 1717 c 0,79,80
 888 1773 888 1773 927.5 1813 c 128,-1,81
 967 1853 967 1853 1024 1853 c 0,82,83
 1080 1853 1080 1853 1120 1813 c 128,-1,84
 1160 1773 1160 1773 1160 1717 c 0,85,86
 1160 1635 1160 1635 1086 1596 c 1,87,88
 1144 1528 1144 1528 1203.5 1477 c 128,-1,89
 1263 1426 1263 1426 1328 1378 c 0,90,91
 1403 1321 1403 1321 1430 1248.5 c 128,-1,92
 1457 1176 1457 1176 1459 1116 c 0,93,94
 1459 1082 1459 1082 1452 1039 c 128,-1,95
 1445 996 1445 996 1420 950 c 0,96,97
 1400 914 1400 914 1369.5 886.5 c 128,-1,98
 1339 859 1339 859 1262 814 c 1,99,-1
 1366 556 l 1,100,101
 1322 540 1322 540 1267 525.5 c 128,-1,102
 1212 511 1212 511 1161 505 c 1,103,104
 1184 474 1184 474 1208 458 c 128,-1,105
 1232 442 1232 442 1244 436 c 0,106,107
 1265 424 1265 424 1325 424 c 1,108,109
 1379 432 1379 432 1433.5 439.5 c 128,-1,110
 1488 447 1488 447 1543 456 c 1,111,112
 1570 453 1570 453 1597.5 454 c 128,-1,113
 1625 455 1625 455 1654 453 c 0,114,115
 1718 447 1718 447 1778 420 c 0,116,117
 1796 411 1796 411 1810.5 403 c 128,-1,118
 1825 395 1825 395 1843 375 c 1,119,-1
 1745 216 l 1,120,121
 1727 234 1727 234 1694.5 243.5 c 128,-1,122
 1662 253 1662 253 1642 253 c 0,123,124
 1629 253 1629 253 1615.5 255 c 128,-1,125
 1602 257 1602 257 1585 255 c 2,126,-1
 1305 216 l 2,127,128
 1245 207 1245 207 1193.5 224 c 128,-1,129
 1142 241 1142 241 1109 269 c 0,130,131
 1076 296 1076 296 1056.5 315.5 c 128,-1,132
 1037 335 1037 335 1024 392 c 1,31,32
988 505 m 1,133,-1
 956 505 l 1,134,135
 900 415 900 415 849 392 c 0,136,137
 825 380 825 380 796 370 c 128,-1,138
 767 360 767 360 729 360 c 0,139,140
 722 360 722 360 622 376 c 0,141,142
 574 383 574 383 546 391 c 128,-1,143
 518 399 518 399 502 401 c 0,144,145
 445 408 445 408 369 395 c 0,146,147
 323 387 323 387 283 366 c 1,148,-1
 331 288 l 1,149,150
 343 300 343 300 362.5 303.5 c 128,-1,151
 382 307 382 307 398 311 c 0,152,153
 440 318 440 318 478 313 c 0,154,155
 491 310 491 310 529 305.5 c 128,-1,156
 567 301 567 301 630 291 c 0,157,158
 705 280 705 280 732 280 c 0,159,160
 837 280 837 280 893 320 c 0,161,162
 927 346 927 346 957.5 392.5 c 128,-1,163
 988 439 988 439 988 505 c 1,133,-1
1024 882 m 0,164,165
 1121 882 1121 882 1210 867 c 1,166,167
 1308 902 1308 902 1352 976 c 0,168,169
 1390 1040 1390 1040 1390 1117 c 0,170,171
 1390 1163 1390 1163 1367 1218.5 c 128,-1,172
 1344 1274 1344 1274 1292 1319 c 0,173,174
 1233 1368 1233 1368 1163 1426.5 c 128,-1,175
 1093 1485 1093 1485 1024 1563 c 1,176,177
 954 1485 954 1485 884 1426.5 c 128,-1,178
 814 1368 814 1368 756 1319 c 0,179,180
 703 1274 703 1274 680.5 1218.5 c 128,-1,181
 658 1163 658 1163 658 1117 c 0,182,183
 658 1040 658 1040 695 976 c 0,184,185
 738 902 738 902 838 867 c 1,186,187
 926 882 926 882 1024 882 c 0,164,165
1024 700 m 0,188,189
 1141 700 1141 700 1249 677 c 1,190,-1
 1201 800 l 1,191,192
 1113 814 1113 814 1024 814 c 0,193,194
 933 814 933 814 846 800 c 1,195,-1
 798 677 l 1,196,197
 905 700 905 700 1024 700 c 0,188,189
1024 1649 m 256,198,199
 1092 1649 1092 1649 1092 1717 c 256,200,201
 1092 1785 1092 1785 1024 1785 c 256,202,203
 956 1785 956 1785 956 1717 c 256,204,205
 956 1649 956 1649 1024 1649 c 256,198,199
1024 560 m 0,206,207
 1092 560 1092 560 1156.5 571.5 c 128,-1,208
 1221 583 1221 583 1281 599 c 1,209,210
 1164 630 1164 630 1024 630 c 0,211,212
 882 630 882 630 767 599 c 1,213,214
 825 583 825 583 890 571.5 c 128,-1,215
 955 560 955 560 1024 560 c 0,206,207
988 1138 m 1,216,-1
 905 1139 l 2,217,218
 871 1139 871 1139 871 1173 c 256,219,220
 871 1207 871 1207 905 1207 c 2,221,-1
 988 1207 l 1,222,-1
 988 1293 l 2,223,224
 988 1328 988 1328 1024 1328 c 0,225,226
 1059 1328 1059 1328 1059 1293 c 2,227,-1
 1059 1207 l 1,228,-1
 1145 1207 l 2,229,230
 1178 1207 1178 1207 1178 1173 c 256,231,232
 1178 1139 1178 1139 1145 1139 c 2,233,-1
 1059 1139 l 1,234,-1
 1059 1057 l 2,235,236
 1059 1021 1059 1021 1024 1021 c 0,237,238
 988 1021 988 1021 988 1057 c 2,239,-1
 988 1138 l 1,216,-1
1503 149 m 1,240,-1
 1552 149 l 1,241,-1
 1402 0 l 1,242,-1
 1353 0 l 1,243,-1
 1503 149 l 1,240,-1
1227 149 m 1,244,-1
 1274 150 l 1,245,-1
 1124 0 l 1,246,-1
 1077 0 l 1,247,-1
 1227 149 l 1,244,-1
944 149 m 1,248,-1
 989 149 l 1,249,-1
 839 0 l 1,250,-1
 794 0 l 1,251,-1
 944 149 l 1,248,-1
668 149 m 1,252,-1
 715 149 l 1,253,-1
 563 0 l 1,254,-1
 518 0 l 1,255,-1
 668 149 l 1,252,-1
392 149 m 1,256,-1
 436 149 l 1,257,-1
 286 0 l 1,258,-1
 241 0 l 1,259,-1
 392 149 l 1,256,-1
1238 1778 m 1,260,261
 1232 1792 1232 1792 1224 1810 c 1,262,-1
 1462 2047 l 1,263,-1
 1507 2047 l 1,264,-1
 1238 1778 l 1,260,261
502 1086 m 1,265,266
 502 1073 502 1073 506 1043 c 1,267,-1
 0 537 l 1,268,-1
 0 585 l 1,269,-1
 502 1086 l 1,265,266
0 1413 m 1,270,-1
 632 2047 l 1,271,-1
 677 2047 l 1,272,-1
 0 1370 l 1,273,-1
 0 1413 l 1,270,-1
0 1691 m 1,274,-1
 356 2047 l 1,275,-1
 401 2047 l 1,276,-1
 0 1647 l 1,277,-1
 0 1691 l 1,274,-1
0 1136 m 1,278,-1
 909 2047 l 1,279,-1
 954 2047 l 1,280,-1
 0 1094 l 1,281,-1
 0 1136 l 1,278,-1
1102 1919 m 1,282,283
 1086 1925 1086 1925 1068 1929 c 1,284,-1
 1185 2047 l 1,285,-1
 1230 2047 l 1,286,-1
 1102 1919 l 1,282,283
804 1664 m 1,287,-1
 0 858 l 1,288,-1
 0 814 l 1,289,-1
 814 1629 l 1,290,291
 810 1640 810 1640 804 1664 c 1,287,-1
1263 1527 m 1,292,293
 1255 1533 1255 1533 1239 1547 c 1,294,-1
 1738 2047 l 1,295,-1
 1783 2047 l 1,296,-1
 1263 1527 l 1,292,293
570 878 m 1,297,298
 584 862 584 862 592 854 c 1,299,-1
 0 261 l 1,300,-1
 0 309 l 1,301,-1
 570 878 l 1,297,298
1949 0 m 1,302,-1
 1906 0 l 1,303,-1
 2048 140 l 1,304,-1
 2048 95 l 1,305,-1
 1949 0 l 1,302,-1
0 1923 m 1,306,-1
 0 1967 l 1,307,-1
 79 2047 l 1,308,-1
 124 2047 l 1,309,-1
 0 1923 l 1,306,-1
1630 0 m 1,310,-1
 2048 416 l 1,311,-1
 2048 370 l 1,312,-1
 1677 0 l 1,313,-1
 1630 0 l 1,310,-1
1878 474 m 1,314,315
 1869 481 1869 481 1849 493 c 1,316,-1
 2048 691 l 1,317,-1
 2048 646 l 1,318,-1
 1878 474 l 1,314,315
1668 544 m 1,319,320
 1653 545 1653 545 1622 545 c 1,321,-1
 2048 970 l 1,322,-1
 2048 923 l 1,323,-1
 1668 544 l 1,319,320
1446 605 m 1,324,-1
 1433 637 l 1,325,-1
 2048 1251 l 1,326,-1
 2048 1206 l 1,327,-1
 1446 605 l 1,324,-1
1518 953 m 1,328,329
 1529 980 1529 980 1537 1018 c 1,330,-1
 2048 1528 l 1,331,-1
 2048 1483 l 1,332,-1
 1518 953 l 1,328,329
1525 1236 m 1,333,334
 1521 1247 1521 1247 1513 1268 c 1,335,-1
 2048 1804 l 1,336,-1
 2048 1759 l 1,337,-1
 1525 1236 l 1,333,334
1415 1405 m 1,338,339
 1407 1413 1407 1413 1392 1423 c 1,340,-1
 2015 2047 l 1,341,342
 2048 2047 2048 2047 2048 2040 c 1,343,-1
 1415 1405 l 1,338,339
621 652 m 1,344,-1
 591 579 l 1,345,-1
 552 540 l 1,346,347
 542 540 542 540 515 545 c 1,348,-1
 621 652 l 1,344,-1
196 228 m 1,349,-1
 213 200 l 1,350,-1
 13 0 l 1,351,352
 0 0 0 0 0 32 c 1,353,-1
 196 228 l 1,349,-1
EndSplineSet
EndChar
StartChar: V
Encoding: 86 86 19
Width: 2048
Flags: W
Fore
1290 582 m 1,0,-1
 1248 684 l 1,1,2
 1146 706 1146 706 1024 706 c 0,3,4
 903 706 903 706 802 684 c 1,5,-1
 760 583 l 1,6,7
 884 614 884 614 1024 614 c 0,8,9
 1162 614 1162 614 1290 582 c 1,0,-1
1206 788 m 1,10,-1
 1177 858 l 1,11,-1
 1177 885 l 1,12,13
 1101 896 1101 896 1024 896 c 0,14,15
 949 896 949 896 872 885 c 1,16,-1
 871 858 l 1,17,-1
 844 788 l 1,18,19
 929 803 929 803 1024 803 c 0,20,21
 1120 803 1120 803 1206 788 c 1,10,-1
1171 410 m 1,22,23
 1131 440 1131 440 1091 505 c 1,24,-1
 1059 505 l 1,25,26
 1059 456 1059 456 1082 410 c 1,27,-1
 1171 410 l 1,22,23
965 410 m 1,28,29
 988 459 988 459 988 505 c 1,30,-1
 956 505 l 1,31,32
 917 441 917 441 875 410 c 1,33,-1
 965 410 l 1,28,29
1024 392 m 1,34,35
 1010 335 1010 335 990 313 c 128,-1,36
 970 291 970 291 937 267 c 0,37,38
 901 242 901 242 852 224.5 c 128,-1,39
 803 207 803 207 743 216 c 2,40,-1
 462 255 l 2,41,42
 445 257 445 257 431.5 255 c 128,-1,43
 418 253 418 253 406 253 c 0,44,45
 385 253 385 253 352.5 243.5 c 128,-1,46
 320 234 320 234 302 216 c 1,47,-1
 205 375 l 1,48,49
 223 395 223 395 237 403 c 128,-1,50
 251 411 251 411 270 420 c 0,51,52
 328 447 328 447 394 453 c 0,53,54
 422 455 422 455 449 454 c 128,-1,55
 476 453 476 453 505 456 c 1,56,57
 559 447 559 447 613.5 439.5 c 128,-1,58
 668 432 668 432 723 424 c 1,59,60
 783 424 783 424 804 436 c 0,61,62
 815 442 815 442 839 458 c 128,-1,63
 863 474 863 474 887 505 c 1,64,65
 834 511 834 511 779 525.5 c 128,-1,66
 724 540 724 540 682 556 c 1,67,-1
 786 814 l 1,68,69
 708 859 708 859 677 886.5 c 128,-1,70
 646 914 646 914 628 950 c 0,71,72
 602 996 602 996 594.5 1039 c 128,-1,73
 587 1082 587 1082 588 1116 c 0,74,75
 589 1176 589 1176 616.5 1248.5 c 128,-1,76
 644 1321 644 1321 720 1378 c 0,77,78
 783 1426 783 1426 843 1477 c 128,-1,79
 903 1528 903 1528 962 1596 c 1,80,81
 888 1634 888 1634 888 1717 c 0,82,83
 888 1773 888 1773 927.5 1813 c 128,-1,84
 967 1853 967 1853 1024 1853 c 0,85,86
 1080 1853 1080 1853 1120 1813 c 128,-1,87
 1160 1773 1160 1773 1160 1717 c 0,88,89
 1160 1635 1160 1635 1086 1596 c 1,90,91
 1144 1528 1144 1528 1203.5 1477 c 128,-1,92
 1263 1426 1263 1426 1328 1378 c 0,93,94
 1403 1321 1403 1321 1430 1248.5 c 128,-1,95
 1457 1176 1457 1176 1459 1116 c 0,96,97
 1459 1082 1459 1082 1452 1039 c 128,-1,98
 1445 996 1445 996 1420 950 c 0,99,100
 1400 914 1400 914 1369.5 886.5 c 128,-1,101
 1339 859 1339 859 1262 814 c 1,102,-1
 1366 556 l 1,103,104
 1322 540 1322 540 1267 525.5 c 128,-1,105
 1212 511 1212 511 1161 505 c 1,106,107
 1184 474 1184 474 1208 458 c 128,-1,108
 1232 442 1232 442 1244 436 c 0,109,110
 1265 424 1265 424 1325 424 c 1,111,112
 1379 432 1379 432 1433.5 439.5 c 128,-1,113
 1488 447 1488 447 1543 456 c 1,114,115
 1570 453 1570 453 1597.5 454 c 128,-1,116
 1625 455 1625 455 1654 453 c 0,117,118
 1718 447 1718 447 1778 420 c 0,119,120
 1796 411 1796 411 1810.5 403 c 128,-1,121
 1825 395 1825 395 1843 375 c 1,122,-1
 1745 216 l 1,123,124
 1727 234 1727 234 1694.5 243.5 c 128,-1,125
 1662 253 1662 253 1642 253 c 0,126,127
 1629 253 1629 253 1615.5 255 c 128,-1,128
 1602 257 1602 257 1585 255 c 2,129,-1
 1305 216 l 2,130,131
 1245 207 1245 207 1193.5 224 c 128,-1,132
 1142 241 1142 241 1109 269 c 0,133,134
 1076 296 1076 296 1056.5 315.5 c 128,-1,135
 1037 335 1037 335 1024 392 c 1,34,35
987 1136 m 1,136,-1
 987 1051 l 2,137,138
 987 1014 987 1014 1024 1014 c 256,139,140
 1061 1014 1061 1014 1061 1051 c 2,141,-1
 1061 1137 l 1,142,-1
 1151 1137 l 2,143,144
 1186 1137 1186 1137 1186 1173 c 256,145,146
 1186 1209 1186 1209 1151 1209 c 2,147,-1
 1061 1209 l 1,148,-1
 1061 1299 l 2,149,150
 1061 1336 1061 1336 1024 1336 c 256,151,152
 987 1336 987 1336 987 1299 c 2,153,-1
 987 1209 l 1,154,-1
 899 1209 l 2,155,156
 864 1209 864 1209 864 1173 c 256,157,158
 864 1137 864 1137 899 1137 c 2,159,-1
 987 1136 l 1,136,-1
196 228 m 1,160,-1
 213 200 l 1,161,-1
 13 0 l 1,162,163
 0 0 0 0 0 32 c 1,164,-1
 196 228 l 1,160,-1
621 652 m 1,165,-1
 591 579 l 1,166,-1
 552 540 l 1,167,168
 542 540 542 540 515 545 c 1,169,-1
 621 652 l 1,165,-1
1415 1405 m 1,170,171
 1407 1413 1407 1413 1392 1423 c 1,172,-1
 2015 2047 l 1,173,174
 2048 2047 2048 2047 2048 2040 c 1,175,-1
 1415 1405 l 1,170,171
1525 1236 m 1,176,177
 1521 1247 1521 1247 1513 1268 c 1,178,-1
 2048 1804 l 1,179,-1
 2048 1759 l 1,180,-1
 1525 1236 l 1,176,177
1518 953 m 1,181,182
 1529 980 1529 980 1537 1018 c 1,183,-1
 2048 1528 l 1,184,-1
 2048 1483 l 1,185,-1
 1518 953 l 1,181,182
1446 605 m 1,186,-1
 1433 637 l 1,187,-1
 2048 1251 l 1,188,-1
 2048 1206 l 1,189,-1
 1446 605 l 1,186,-1
1668 544 m 1,190,191
 1653 545 1653 545 1622 545 c 1,192,-1
 2048 970 l 1,193,-1
 2048 923 l 1,194,-1
 1668 544 l 1,190,191
1878 474 m 1,195,196
 1869 481 1869 481 1849 493 c 1,197,-1
 2048 691 l 1,198,-1
 2048 646 l 1,199,-1
 1878 474 l 1,195,196
1630 0 m 1,200,-1
 2048 416 l 1,201,-1
 2048 370 l 1,202,-1
 1677 0 l 1,203,-1
 1630 0 l 1,200,-1
0 1923 m 1,204,-1
 0 1967 l 1,205,-1
 79 2047 l 1,206,-1
 124 2047 l 1,207,-1
 0 1923 l 1,204,-1
1949 0 m 1,208,-1
 1906 0 l 1,209,-1
 2048 140 l 1,210,-1
 2048 95 l 1,211,-1
 1949 0 l 1,208,-1
570 878 m 1,212,213
 584 862 584 862 592 854 c 1,214,-1
 0 261 l 1,215,-1
 0 309 l 1,216,-1
 570 878 l 1,212,213
1263 1527 m 1,217,218
 1255 1533 1255 1533 1239 1547 c 1,219,-1
 1738 2047 l 1,220,-1
 1783 2047 l 1,221,-1
 1263 1527 l 1,217,218
804 1664 m 1,222,-1
 0 858 l 1,223,-1
 0 814 l 1,224,-1
 814 1629 l 1,225,226
 810 1640 810 1640 804 1664 c 1,222,-1
1102 1919 m 1,227,228
 1086 1925 1086 1925 1068 1929 c 1,229,-1
 1185 2047 l 1,230,-1
 1230 2047 l 1,231,-1
 1102 1919 l 1,227,228
0 1136 m 1,232,-1
 909 2047 l 1,233,-1
 954 2047 l 1,234,-1
 0 1094 l 1,235,-1
 0 1136 l 1,232,-1
0 1691 m 1,236,-1
 356 2047 l 1,237,-1
 401 2047 l 1,238,-1
 0 1647 l 1,239,-1
 0 1691 l 1,236,-1
0 1413 m 1,240,-1
 632 2047 l 1,241,-1
 677 2047 l 1,242,-1
 0 1370 l 1,243,-1
 0 1413 l 1,240,-1
502 1086 m 1,244,245
 502 1073 502 1073 506 1043 c 1,246,-1
 0 537 l 1,247,-1
 0 585 l 1,248,-1
 502 1086 l 1,244,245
1238 1778 m 1,249,250
 1232 1792 1232 1792 1224 1810 c 1,251,-1
 1462 2047 l 1,252,-1
 1507 2047 l 1,253,-1
 1238 1778 l 1,249,250
392 149 m 1,254,-1
 436 149 l 1,255,-1
 286 0 l 1,256,-1
 241 0 l 1,257,-1
 392 149 l 1,254,-1
668 149 m 1,258,-1
 715 149 l 1,259,-1
 563 0 l 1,260,-1
 518 0 l 1,261,-1
 668 149 l 1,258,-1
944 149 m 1,262,-1
 989 149 l 1,263,-1
 839 0 l 1,264,-1
 794 0 l 1,265,-1
 944 149 l 1,262,-1
1227 149 m 1,266,-1
 1274 150 l 1,267,-1
 1124 0 l 1,268,-1
 1077 0 l 1,269,-1
 1227 149 l 1,266,-1
1503 149 m 1,270,-1
 1552 149 l 1,271,-1
 1402 0 l 1,272,-1
 1353 0 l 1,273,-1
 1503 149 l 1,270,-1
EndSplineSet
EndChar
StartChar: R
Encoding: 82 82 20
Width: 2048
Flags: W
Fore
1349 1365 m 1,0,-1
 1476 1468 l 1,1,-1
 572 1468 l 1,2,-1
 700 1365 l 1,3,-1
 1349 1365 l 1,0,-1
1459 649 m 1,4,-1
 1356 751 l 1,5,-1
 693 751 l 1,6,-1
 588 649 l 1,7,-1
 1459 649 l 1,4,-1
1536 1536 m 1,8,-1
 1536 1775 l 1,9,-1
 1399 1775 l 1,10,-1
 1399 1638 l 1,11,-1
 1091 1638 l 1,12,-1
 1091 1775 l 1,13,-1
 956 1775 l 1,14,-1
 956 1638 l 1,15,-1
 649 1638 l 1,16,-1
 649 1775 l 1,17,-1
 512 1775 l 1,18,-1
 512 1536 l 1,19,-1
 1536 1536 l 1,8,-1
1314 1297 m 1,20,-1
 734 1297 l 1,21,-1
 734 819 l 1,22,-1
 1314 819 l 1,23,-1
 1314 1297 l 1,20,-1
1484 580 m 1,24,-1
 564 580 l 1,25,-1
 564 444 l 1,26,-1
 1484 444 l 1,27,-1
 1484 580 l 1,24,-1
1639 376 m 1,28,-1
 409 376 l 1,29,-1
 409 273 l 1,30,-1
 1639 273 l 1,31,-1
 1639 376 l 1,28,-1
1161 1706 m 1,32,-1
 1331 1706 l 1,33,-1
 1331 1843 l 1,34,-1
 1605 1843 l 1,35,-1
 1605 1468 l 1,36,-1
 1383 1297 l 1,37,-1
 1383 819 l 1,38,-1
 1553 649 l 1,39,-1
 1553 444 l 1,40,-1
 1706 444 l 1,41,-1
 1706 205 l 1,42,-1
 341 205 l 1,43,-1
 341 444 l 1,44,-1
 494 444 l 1,45,-1
 494 649 l 1,46,-1
 665 819 l 1,47,-1
 665 1297 l 1,48,-1
 443 1468 l 1,49,-1
 443 1843 l 1,50,-1
 716 1843 l 1,51,-1
 716 1706 l 1,52,-1
 887 1706 l 1,53,-1
 887 1843 l 1,54,-1
 1161 1843 l 1,55,-1
 1161 1706 l 1,32,-1
360 1774 m 1,56,-1
 0 1413 l 1,57,-1
 0 1370 l 1,58,-1
 360 1730 l 1,59,-1
 360 1774 l 1,56,-1
359 1497 m 1,60,-1
 0 1136 l 1,61,-1
 0 1094 l 1,62,-1
 359 1452 l 1,63,-1
 359 1497 l 1,60,-1
580 1118 m 1,64,-1
 0 537 l 1,65,-1
 0 585 l 1,66,-1
 580 1165 l 1,67,-1
 580 1118 l 1,64,-1
579 842 m 1,68,-1
 579 888 l 1,69,-1
 0 309 l 1,70,-1
 0 261 l 1,71,-1
 579 842 l 1,68,-1
253 285 m 1,72,-1
 253 239 l 1,73,-1
 13 0 l 1,74,75
 0 0 0 0 0 32 c 1,76,-1
 253 285 l 1,72,-1
637 119 m 1,77,-1
 683 119 l 1,78,-1
 563 0 l 1,79,-1
 518 0 l 1,80,-1
 637 119 l 1,77,-1
913 119 m 1,81,-1
 957 119 l 1,82,-1
 839 0 l 1,83,-1
 794 0 l 1,84,-1
 913 119 l 1,81,-1
1198 119 m 1,85,-1
 1244 119 l 1,86,-1
 1124 0 l 1,87,-1
 1077 0 l 1,88,-1
 1198 119 l 1,85,-1
1791 390 m 1,89,-1
 1792 436 l 1,90,-1
 2048 691 l 1,91,-1
 2048 646 l 1,92,-1
 1791 390 l 1,89,-1
1468 905 m 1,93,-1
 1469 949 l 1,94,-1
 2048 1528 l 1,95,-1
 2048 1483 l 1,96,-1
 1468 905 l 1,93,-1
1468 1182 m 1,97,-1
 1468 1225 l 1,98,-1
 2048 1804 l 1,99,-1
 2048 1759 l 1,100,-1
 1468 1182 l 1,97,-1
1688 1681 m 1,101,-1
 1688 1720 l 1,102,-1
 2015 2047 l 1,103,104
 2048 2047 2048 2047 2048 2040 c 1,105,-1
 1688 1681 l 1,101,-1
1386 1927 m 1,106,-1
 1342 1927 l 1,107,-1
 1462 2047 l 1,108,-1
 1507 2047 l 1,109,-1
 1386 1927 l 1,106,-1
1111 1927 m 1,110,-1
 1067 1927 l 1,111,-1
 1185 2047 l 1,112,-1
 1230 2047 l 1,113,-1
 1111 1927 l 1,110,-1
835 1928 m 1,114,-1
 788 1927 l 1,115,-1
 909 2047 l 1,116,-1
 954 2047 l 1,117,-1
 835 1928 l 1,114,-1
0 1691 m 1,118,-1
 356 2047 l 1,119,-1
 401 2047 l 1,120,-1
 0 1647 l 1,121,-1
 0 1691 l 1,118,-1
504 1317 m 1,122,-1
 0 814 l 1,123,-1
 0 858 l 1,124,-1
 478 1338 l 1,125,-1
 504 1317 l 1,122,-1
1949 0 m 1,126,-1
 1906 0 l 1,127,-1
 2048 140 l 1,128,-1
 2048 95 l 1,129,-1
 1949 0 l 1,126,-1
0 1923 m 1,130,-1
 0 1967 l 1,131,-1
 79 2047 l 1,132,-1
 124 2047 l 1,133,-1
 0 1923 l 1,130,-1
1630 0 m 1,134,-1
 2048 416 l 1,135,-1
 2048 370 l 1,136,-1
 1677 0 l 1,137,-1
 1630 0 l 1,134,-1
1522 119 m 1,138,-1
 1402 0 l 1,139,-1
 1353 0 l 1,140,-1
 1474 119 l 1,141,-1
 1522 119 l 1,138,-1
1579 736 m 1,142,-1
 1555 760 l 1,143,-1
 2048 1251 l 1,144,-1
 2048 1206 l 1,145,-1
 1579 736 l 1,142,-1
1639 516 m 1,146,-1
 1639 562 l 1,147,-1
 2048 970 l 1,148,-1
 2048 923 l 1,149,-1
 1639 516 l 1,146,-1
1663 1927 m 1,150,-1
 1618 1927 l 1,151,-1
 1738 2047 l 1,152,-1
 1783 2047 l 1,153,-1
 1663 1927 l 1,150,-1
361 119 m 1,154,-1
 405 119 l 1,155,-1
 286 0 l 1,156,-1
 241 0 l 1,157,-1
 361 119 l 1,154,-1
557 1928 m 1,158,-1
 512 1928 l 1,159,-1
 632 2047 l 1,160,-1
 677 2047 l 1,161,-1
 557 1928 l 1,158,-1
EndSplineSet
EndChar
StartChar: Q
Encoding: 81 81 21
Width: 2048
Flags: W
Fore
1814 1461 m 0,0,1
 1757 1461 1757 1461 1717 1500.5 c 128,-1,2
 1677 1540 1677 1540 1677 1597 c 0,3,4
 1677 1653 1677 1653 1717 1693.5 c 128,-1,5
 1757 1734 1757 1734 1814 1734 c 0,6,7
 1870 1734 1870 1734 1910 1693.5 c 128,-1,8
 1950 1653 1950 1653 1950 1597 c 0,9,10
 1950 1540 1950 1540 1910 1500.5 c 128,-1,11
 1870 1461 1870 1461 1814 1461 c 0,0,1
1814 1531 m 0,12,13
 1880 1531 1880 1531 1880 1597 c 0,14,15
 1880 1664 1880 1664 1814 1664 c 0,16,17
 1747 1664 1747 1664 1747 1597 c 0,18,19
 1747 1531 1747 1531 1814 1531 c 0,12,13
236 1531 m 0,20,21
 303 1531 303 1531 303 1597 c 0,22,23
 303 1664 303 1664 236 1664 c 0,24,25
 170 1664 170 1664 170 1597 c 0,26,27
 170 1531 170 1531 236 1531 c 0,20,21
236 1461 m 256,28,29
 179 1461 179 1461 139.5 1500.5 c 128,-1,30
 100 1540 100 1540 100 1597 c 0,31,32
 100 1653 100 1653 139.5 1693.5 c 128,-1,33
 179 1734 179 1734 236 1734 c 256,34,35
 293 1734 293 1734 333 1693.5 c 128,-1,36
 373 1653 373 1653 373 1597 c 0,37,38
 373 1540 373 1540 333 1500.5 c 128,-1,39
 293 1461 293 1461 236 1461 c 256,28,29
1444 1571 m 256,40,41
 1387 1571 1387 1571 1347.5 1610.5 c 128,-1,42
 1308 1650 1308 1650 1308 1707 c 0,43,44
 1308 1763 1308 1763 1347.5 1803 c 128,-1,45
 1387 1843 1387 1843 1444 1843 c 256,46,47
 1501 1843 1501 1843 1541 1803 c 128,-1,48
 1581 1763 1581 1763 1581 1707 c 0,49,50
 1581 1650 1581 1650 1541 1610.5 c 128,-1,51
 1501 1571 1501 1571 1444 1571 c 256,40,41
1444 1641 m 0,52,53
 1511 1641 1511 1641 1511 1707 c 256,54,55
 1511 1773 1511 1773 1444 1773 c 0,56,57
 1378 1773 1378 1773 1378 1707 c 256,58,59
 1378 1641 1378 1641 1444 1641 c 0,52,53
604 1641 m 0,60,61
 670 1641 670 1641 670 1707 c 256,62,63
 670 1773 670 1773 604 1773 c 0,64,65
 537 1773 537 1773 537 1707 c 256,66,67
 537 1641 537 1641 604 1641 c 0,60,61
604 1571 m 0,68,69
 547 1571 547 1571 507 1610.5 c 128,-1,70
 467 1650 467 1650 467 1707 c 0,71,72
 467 1763 467 1763 507 1803 c 128,-1,73
 547 1843 547 1843 604 1843 c 0,74,75
 660 1843 660 1843 700 1803 c 128,-1,76
 740 1763 740 1763 740 1707 c 0,77,78
 740 1650 740 1650 700 1610.5 c 128,-1,79
 660 1571 660 1571 604 1571 c 0,68,69
1559 319 m 1,80,81
 1376 395 1376 395 1028 395 c 0,82,83
 673 395 673 395 491 317 c 1,84,85
 666 248 666 248 1025 248 c 0,86,87
 1197 248 1197 248 1339.5 267 c 128,-1,88
 1482 286 1482 286 1559 319 c 1,80,81
1640 283 m 1,89,90
 1591 240 1591 240 1420 211 c 128,-1,91
 1249 182 1249 182 1026 182 c 0,92,93
 799 182 799 182 627 212 c 128,-1,94
 455 242 455 242 410 287 c 1,95,-1
 473 527 l 1,96,-1
 445 684 l 1,97,-1
 357 837 l 1,98,-1
 272 1459 l 1,99,-1
 321 1478 l 1,100,-1
 595 1016 l 1,101,-1
 601 1566 l 1,102,-1
 669 1578 l 1,103,-1
 878 1025 l 1,104,-1
 990 1620 l 1,105,-1
 1059 1620 l 1,106,-1
 1171 1027 l 1,107,-1
 1378 1578 l 1,108,-1
 1447 1566 l 1,109,-1
 1453 1016 l 1,110,-1
 1728 1479 l 1,111,-1
 1775 1457 l 1,112,-1
 1692 838 l 1,113,-1
 1603 685 l 1,114,-1
 1575 526 l 1,115,-1
 1640 283 l 1,89,90
1534 411 m 1,116,-1
 1504 524 l 1,117,118
 1308 567 1308 567 1024 567 c 0,119,120
 743 567 743 567 545 524 c 1,121,-1
 514 410 l 1,122,123
 700 466 700 466 1025 466 c 0,124,125
 1342 466 1342 466 1534 411 c 1,116,-1
1474 917 m 1,126,127
 1497 910 1497 910 1525 910 c 0,128,129
 1586 910 1586 910 1639 948 c 1,130,-1
 1694 1294 l 1,131,-1
 1474 917 l 1,126,127
571 922 m 1,132,-1
 356 1293 l 1,133,-1
 411 955 l 1,134,135
 468 915 468 915 522 915 c 0,136,137
 543 915 543 915 571 922 c 1,132,-1
825 978 m 1,138,-1
 661 1427 l 1,139,-1
 661 970 l 1,140,141
 664 974 664 974 670 980 c 1,142,143
 690 1022 690 1022 736 1022 c 0,144,145
 774 1022 774 1022 798 990 c 1,146,147
 824 978 824 978 825 978 c 1,138,-1
1387 964 m 1,148,-1
 1387 1427 l 1,149,-1
 1222 973 l 1,150,151
 1241 980 1241 980 1254 991 c 1,152,153
 1274 1016 1274 1016 1308 1016 c 0,154,155
 1348 1016 1348 1016 1372 981 c 0,156,157
 1375 977 1375 977 1379 972.5 c 128,-1,158
 1383 968 1383 968 1387 964 c 1,148,-1
1110 983 m 1,159,-1
 1025 1472 l 1,160,-1
 940 989 l 1,161,162
 943 991 943 991 954 999 c 1,163,164
 977 1044 977 1044 1024 1044 c 0,165,166
 1075 1044 1075 1044 1090 999 c 1,167,168
 1096 993 1096 993 1110 983 c 1,159,-1
1558 744 m 1,169,-1
 1623 859 l 1,170,171
 1575 840 1575 840 1525 840 c 0,172,173
 1391 840 1391 840 1311 949 c 1,174,175
 1251 899 1251 899 1177 899 c 0,176,177
 1081 899 1081 899 1024 974 c 1,178,179
 960 904 960 904 871 904 c 0,180,181
 799 904 799 904 739 953 c 1,182,183
 655 846 655 846 522 846 c 0,184,185
 471 846 471 846 421 865 c 1,186,-1
 491 745 l 1,187,188
 685 801 685 801 1024 801 c 0,189,190
 1369 801 1369 801 1558 744 c 1,169,-1
1533 684 m 1,191,192
 1340 733 1340 733 1028 733 c 0,193,194
 708 733 708 733 517 683 c 1,195,-1
 532 587 l 1,196,197
 727 633 727 633 1028 633 c 0,198,199
 1327 633 1327 633 1516 588 c 1,200,-1
 1533 684 l 1,191,192
1024 1691 m 0,201,202
 1091 1691 1091 1691 1091 1758 c 0,203,204
 1091 1824 1091 1824 1024 1824 c 0,205,206
 958 1824 958 1824 958 1758 c 0,207,208
 958 1691 958 1691 1024 1691 c 0,201,202
1024 1621 m 0,209,210
 967 1621 967 1621 927.5 1661 c 128,-1,211
 888 1701 888 1701 888 1758 c 0,212,213
 888 1814 888 1814 927.5 1854 c 128,-1,214
 967 1894 967 1894 1024 1894 c 0,215,216
 1080 1894 1080 1894 1120.5 1854 c 128,-1,217
 1161 1814 1161 1814 1161 1758 c 0,218,219
 1161 1701 1161 1701 1120.5 1661 c 128,-1,220
 1080 1621 1080 1621 1024 1621 c 0,209,210
1263 1804 m 1,221,-1
 1241 1782 l 1,222,223
 1239 1791 1239 1791 1237 1801 c 128,-1,224
 1235 1811 1235 1811 1234 1820 c 1,225,-1
 1462 2047 l 1,226,-1
 1507 2047 l 1,227,-1
 1343 1885 l 1,228,229
 1292 1858 1292 1858 1263 1804 c 1,221,-1
271 855 m 1,230,-1
 277 814 l 1,231,-1
 0 537 l 1,232,-1
 0 585 l 1,233,-1
 271 855 l 1,230,-1
407 1776 m 1,234,-1
 385 1755 l 1,235,236
 372 1768 372 1768 360 1777 c 1,237,-1
 632 2047 l 1,238,-1
 677 2047 l 1,239,-1
 531 1904 l 1,240,241
 433 1869 433 1869 407 1776 c 1,234,-1
58 1471 m 1,242,243
 62 1465 62 1465 78 1447 c 1,244,-1
 0 1370 l 1,245,-1
 0 1413 l 1,246,-1
 58 1471 l 1,242,243
152 1798 m 1,247,248
 71 1764 71 1764 37 1685 c 1,249,-1
 0 1647 l 1,250,-1
 0 1691 l 1,251,-1
 356 2047 l 1,252,-1
 401 2047 l 1,253,-1
 152 1798 l 1,247,248
764 1855 m 1,254,255
 752 1867 752 1867 739 1877 c 1,256,-1
 909 2047 l 1,257,-1
 954 2047 l 1,258,-1
 764 1855 l 1,254,255
205 1341 m 1,259,-1
 210 1303 l 1,260,-1
 0 1094 l 1,261,-1
 0 1136 l 1,262,-1
 205 1341 l 1,259,-1
1132 1947 m 1,263,264
 1110 1958 1110 1958 1099 1962 c 1,265,-1
 1185 2047 l 1,266,-1
 1230 2047 l 1,267,-1
 1132 1947 l 1,263,264
238 1097 m 1,268,-1
 243 1056 l 1,269,-1
 0 814 l 1,270,-1
 0 858 l 1,271,-1
 238 1097 l 1,268,-1
1598 1862 m 1,272,273
 1588 1872 1588 1872 1573 1881 c 1,274,-1
 1738 2047 l 1,275,-1
 1783 2047 l 1,276,-1
 1598 1862 l 1,272,273
358 667 m 1,277,-1
 376 636 l 1,278,-1
 0 261 l 1,279,-1
 0 309 l 1,280,-1
 358 667 l 1,277,-1
1949 0 m 1,281,-1
 1906 0 l 1,282,-1
 2048 140 l 1,283,-1
 2048 95 l 1,284,-1
 1949 0 l 1,281,-1
0 1923 m 1,285,-1
 0 1967 l 1,286,-1
 79 2047 l 1,287,-1
 124 2047 l 1,288,-1
 0 1923 l 1,285,-1
1630 0 m 1,289,-1
 2048 416 l 1,290,-1
 2048 370 l 1,291,-1
 1677 0 l 1,292,-1
 1630 0 l 1,289,-1
1724 319 m 1,293,-1
 1714 357 l 1,294,-1
 2048 691 l 1,295,-1
 2048 646 l 1,296,-1
 1724 319 l 1,293,-1
1503 149 m 1,297,298
 1539 157 1539 157 1565 164 c 1,299,-1
 1402 0 l 1,300,-1
 1353 0 l 1,301,-1
 1503 149 l 1,297,298
1646 520 m 1,302,-1
 1657 580 l 1,303,-1
 2048 970 l 1,304,-1
 2048 923 l 1,305,-1
 1646 520 l 1,302,-1
1189 111 m 1,306,307
 1216 114 1216 114 1240 114 c 1,308,-1
 1124 0 l 1,309,-1
 1077 0 l 1,310,-1
 1189 111 l 1,306,307
1791 950 m 1,311,-1
 1799 1003 l 1,312,-1
 2048 1251 l 1,313,-1
 2048 1206 l 1,314,-1
 1791 950 l 1,311,-1
948 109 m 1,315,-1
 839 0 l 1,316,-1
 794 0 l 1,317,-1
 903 110 l 1,318,319
 933 110 933 110 948 109 c 1,315,-1
1835 1270 m 1,320,-1
 1842 1323 l 1,321,-1
 2048 1528 l 1,322,-1
 2048 1483 l 1,323,-1
 1835 1270 l 1,320,-1
649 131 m 1,324,325
 659 130 659 130 689 126 c 1,326,-1
 563 0 l 1,327,-1
 518 0 l 1,328,-1
 649 131 l 1,324,325
2000 1712 m 1,329,330
 1994 1720 1994 1720 1981 1736 c 1,331,-1
 2048 1804 l 1,332,-1
 2048 1759 l 1,333,-1
 2000 1712 l 1,329,330
427 184 m 1,334,335
 442 176 442 176 460 172 c 1,336,-1
 286 0 l 1,337,-1
 241 0 l 1,338,-1
 427 184 l 1,334,335
1824 1814 m 1,339,340
 1818 1816 1818 1816 1814 1816 c 0,341,342
 1794 1816 1794 1816 1780 1812 c 1,343,-1
 2015 2047 l 1,344,345
 2048 2047 2048 2047 2048 2040 c 1,346,-1
 1824 1814 l 1,339,340
338 369 m 1,347,-1
 0 32 l 1,348,349
 0 0 0 0 13 0 c 1,350,-1
 322 308 l 1,351,-1
 338 369 l 1,347,-1
EndSplineSet
EndChar
StartChar: W
Encoding: 87 87 22
Width: 2048
Flags: W
Fore
1588 793 m 1,0,1
 1505 823 1505 823 1354.5 842.5 c 128,-1,2
 1204 862 1204 862 1022 862 c 0,3,4
 844 862 844 862 696 843.5 c 128,-1,5
 548 825 548 825 463 795 c 1,6,-1
 513 704 l 1,7,8
 597 729 597 729 731 740 c 128,-1,9
 865 751 865 751 1024 751 c 256,10,11
 1183 751 1183 751 1318 740 c 128,-1,12
 1453 729 1453 729 1537 703 c 1,13,-1
 1588 793 l 1,0,1
1814 1461 m 0,14,15
 1757 1461 1757 1461 1717 1500.5 c 128,-1,16
 1677 1540 1677 1540 1677 1597 c 0,17,18
 1677 1653 1677 1653 1717 1693.5 c 128,-1,19
 1757 1734 1757 1734 1814 1734 c 0,20,21
 1870 1734 1870 1734 1910 1693.5 c 128,-1,22
 1950 1653 1950 1653 1950 1597 c 0,23,24
 1950 1540 1950 1540 1910 1500.5 c 128,-1,25
 1870 1461 1870 1461 1814 1461 c 0,14,15
236 1461 m 256,26,27
 179 1461 179 1461 139.5 1500.5 c 128,-1,28
 100 1540 100 1540 100 1597 c 0,29,30
 100 1653 100 1653 139.5 1693.5 c 128,-1,31
 179 1734 179 1734 236 1734 c 256,32,33
 293 1734 293 1734 333 1693.5 c 128,-1,34
 373 1653 373 1653 373 1597 c 0,35,36
 373 1540 373 1540 333 1500.5 c 128,-1,37
 293 1461 293 1461 236 1461 c 256,26,27
1444 1571 m 256,38,39
 1387 1571 1387 1571 1347.5 1610.5 c 128,-1,40
 1308 1650 1308 1650 1308 1707 c 0,41,42
 1308 1763 1308 1763 1347.5 1803 c 128,-1,43
 1387 1843 1387 1843 1444 1843 c 256,44,45
 1501 1843 1501 1843 1541 1803 c 128,-1,46
 1581 1763 1581 1763 1581 1707 c 0,47,48
 1581 1650 1581 1650 1541 1610.5 c 128,-1,49
 1501 1571 1501 1571 1444 1571 c 256,38,39
604 1571 m 0,50,51
 547 1571 547 1571 507 1610.5 c 128,-1,52
 467 1650 467 1650 467 1707 c 0,53,54
 467 1763 467 1763 507 1803 c 128,-1,55
 547 1843 547 1843 604 1843 c 0,56,57
 660 1843 660 1843 700 1803 c 128,-1,58
 740 1763 740 1763 740 1707 c 0,59,60
 740 1650 740 1650 700 1610.5 c 128,-1,61
 660 1571 660 1571 604 1571 c 0,50,51
1640 283 m 1,62,63
 1591 240 1591 240 1420 211 c 128,-1,64
 1249 182 1249 182 1026 182 c 0,65,66
 799 182 799 182 627 212 c 128,-1,67
 455 242 455 242 410 287 c 1,68,-1
 473 527 l 1,69,-1
 445 684 l 1,70,-1
 357 837 l 1,71,-1
 272 1459 l 1,72,-1
 321 1478 l 1,73,-1
 595 1016 l 1,74,-1
 601 1566 l 1,75,-1
 669 1578 l 1,76,-1
 878 1025 l 1,77,-1
 990 1620 l 1,78,-1
 1059 1620 l 1,79,-1
 1171 1027 l 1,80,-1
 1378 1578 l 1,81,-1
 1447 1566 l 1,82,-1
 1453 1016 l 1,83,-1
 1728 1479 l 1,84,-1
 1775 1457 l 1,85,-1
 1692 838 l 1,86,-1
 1603 685 l 1,87,-1
 1575 526 l 1,88,-1
 1640 283 l 1,62,63
1544 315 m 1,89,-1
 1514 433 l 1,90,91
 1319 478 1319 478 1024 478 c 0,92,93
 732 478 732 478 536 433 c 1,94,-1
 504 314 l 1,95,96
 694 372 694 372 1025 372 c 0,97,98
 1184 372 1184 372 1320 356 c 128,-1,99
 1456 340 1456 340 1544 315 c 1,89,-1
1518 614 m 1,100,101
 1334 665 1334 665 1028 665 c 0,102,103
 720 665 720 665 532 613 c 1,104,-1
 547 512 l 1,105,106
 736 561 736 561 1028 561 c 0,107,108
 1319 561 1319 561 1502 513 c 1,109,-1
 1518 614 l 1,100,101
1024 1621 m 0,110,111
 967 1621 967 1621 927.5 1661 c 128,-1,112
 888 1701 888 1701 888 1758 c 0,113,114
 888 1814 888 1814 927.5 1854 c 128,-1,115
 967 1894 967 1894 1024 1894 c 0,116,117
 1080 1894 1080 1894 1120.5 1854 c 128,-1,118
 1161 1814 1161 1814 1161 1758 c 0,119,120
 1161 1701 1161 1701 1120.5 1661 c 128,-1,121
 1080 1621 1080 1621 1024 1621 c 0,110,111
338 369 m 1,122,-1
 0 32 l 1,123,124
 0 0 0 0 13 0 c 1,125,-1
 322 308 l 1,126,-1
 338 369 l 1,122,-1
1824 1814 m 1,127,128
 1818 1816 1818 1816 1814 1816 c 0,129,130
 1794 1816 1794 1816 1780 1812 c 1,131,-1
 2015 2047 l 1,132,133
 2048 2047 2048 2047 2048 2040 c 1,134,-1
 1824 1814 l 1,127,128
427 184 m 1,135,136
 442 176 442 176 460 172 c 1,137,-1
 286 0 l 1,138,-1
 241 0 l 1,139,-1
 427 184 l 1,135,136
2000 1712 m 1,140,141
 1994 1720 1994 1720 1981 1736 c 1,142,-1
 2048 1804 l 1,143,-1
 2048 1759 l 1,144,-1
 2000 1712 l 1,140,141
649 131 m 1,145,146
 659 130 659 130 689 126 c 1,147,-1
 563 0 l 1,148,-1
 518 0 l 1,149,-1
 649 131 l 1,145,146
1835 1270 m 1,150,-1
 1842 1323 l 1,151,-1
 2048 1528 l 1,152,-1
 2048 1483 l 1,153,-1
 1835 1270 l 1,150,-1
948 109 m 1,154,-1
 839 0 l 1,155,-1
 794 0 l 1,156,-1
 903 110 l 1,157,158
 933 110 933 110 948 109 c 1,154,-1
1791 950 m 1,159,-1
 1799 1003 l 1,160,-1
 2048 1251 l 1,161,-1
 2048 1206 l 1,162,-1
 1791 950 l 1,159,-1
1189 111 m 1,163,164
 1216 114 1216 114 1240 114 c 1,165,-1
 1124 0 l 1,166,-1
 1077 0 l 1,167,-1
 1189 111 l 1,163,164
1646 520 m 1,168,-1
 1657 580 l 1,169,-1
 2048 970 l 1,170,-1
 2048 923 l 1,171,-1
 1646 520 l 1,168,-1
1503 149 m 1,172,173
 1539 157 1539 157 1565 164 c 1,174,-1
 1402 0 l 1,175,-1
 1353 0 l 1,176,-1
 1503 149 l 1,172,173
1724 319 m 1,177,-1
 1714 357 l 1,178,-1
 2048 691 l 1,179,-1
 2048 646 l 1,180,-1
 1724 319 l 1,177,-1
1630 0 m 1,181,-1
 2048 416 l 1,182,-1
 2048 370 l 1,183,-1
 1677 0 l 1,184,-1
 1630 0 l 1,181,-1
0 1923 m 1,185,-1
 0 1967 l 1,186,-1
 79 2047 l 1,187,-1
 124 2047 l 1,188,-1
 0 1923 l 1,185,-1
1949 0 m 1,189,-1
 1906 0 l 1,190,-1
 2048 140 l 1,191,-1
 2048 95 l 1,192,-1
 1949 0 l 1,189,-1
358 667 m 1,193,-1
 376 636 l 1,194,-1
 0 261 l 1,195,-1
 0 309 l 1,196,-1
 358 667 l 1,193,-1
1598 1862 m 1,197,198
 1588 1872 1588 1872 1573 1881 c 1,199,-1
 1738 2047 l 1,200,-1
 1783 2047 l 1,201,-1
 1598 1862 l 1,197,198
238 1097 m 1,202,-1
 243 1056 l 1,203,-1
 0 814 l 1,204,-1
 0 858 l 1,205,-1
 238 1097 l 1,202,-1
1132 1947 m 1,206,207
 1110 1958 1110 1958 1099 1962 c 1,208,-1
 1185 2047 l 1,209,-1
 1230 2047 l 1,210,-1
 1132 1947 l 1,206,207
205 1341 m 1,211,-1
 210 1303 l 1,212,-1
 0 1094 l 1,213,-1
 0 1136 l 1,214,-1
 205 1341 l 1,211,-1
764 1855 m 1,215,216
 752 1867 752 1867 739 1877 c 1,217,-1
 909 2047 l 1,218,-1
 954 2047 l 1,219,-1
 764 1855 l 1,215,216
152 1798 m 1,220,221
 71 1764 71 1764 37 1685 c 1,222,-1
 0 1647 l 1,223,-1
 0 1691 l 1,224,-1
 356 2047 l 1,225,-1
 401 2047 l 1,226,-1
 152 1798 l 1,220,221
58 1471 m 1,227,228
 62 1465 62 1465 78 1447 c 1,229,-1
 0 1370 l 1,230,-1
 0 1413 l 1,231,-1
 58 1471 l 1,227,228
407 1776 m 1,232,-1
 385 1755 l 1,233,234
 372 1768 372 1768 360 1777 c 1,235,-1
 632 2047 l 1,236,-1
 677 2047 l 1,237,-1
 531 1904 l 1,238,239
 433 1869 433 1869 407 1776 c 1,232,-1
271 855 m 1,240,-1
 277 814 l 1,241,-1
 0 537 l 1,242,-1
 0 585 l 1,243,-1
 271 855 l 1,240,-1
1263 1804 m 1,244,-1
 1241 1782 l 1,245,246
 1239 1791 1239 1791 1237 1801 c 128,-1,247
 1235 1811 1235 1811 1234 1820 c 1,248,-1
 1462 2047 l 1,249,-1
 1507 2047 l 1,250,-1
 1343 1885 l 1,251,252
 1292 1858 1292 1858 1263 1804 c 1,244,-1
EndSplineSet
EndChar
StartChar: K
Encoding: 75 75 23
Width: 2048
Flags: W
Fore
427 184 m 1,0,1
 442 176 442 176 460 172 c 1,2,-1
 286 0 l 1,3,-1
 241 0 l 1,4,-1
 427 184 l 1,0,1
649 131 m 1,5,6
 659 130 659 130 689 126 c 1,7,-1
 563 0 l 1,8,-1
 518 0 l 1,9,-1
 649 131 l 1,5,6
948 109 m 1,10,-1
 839 0 l 1,11,-1
 794 0 l 1,12,-1
 903 110 l 1,13,14
 933 110 933 110 948 109 c 1,10,-1
1189 111 m 1,15,16
 1216 114 1216 114 1240 114 c 1,17,-1
 1124 0 l 1,18,-1
 1077 0 l 1,19,-1
 1189 111 l 1,15,16
1503 149 m 1,20,21
 1539 157 1539 157 1565 164 c 1,22,-1
 1402 0 l 1,23,-1
 1353 0 l 1,24,-1
 1503 149 l 1,20,21
1103 1919 m 1,25,26
 1089 1931 1089 1931 1074 1935 c 1,27,-1
 1185 2047 l 1,28,-1
 1230 2047 l 1,29,-1
 1103 1919 l 1,25,26
1233 1771 m 1,30,31
 1226 1788 1226 1788 1212 1798 c 1,32,-1
 1462 2047 l 1,33,-1
 1507 2047 l 1,34,-1
 1233 1771 l 1,30,31
834 1649 m 1,35,36
 820 1663 820 1663 812 1675 c 1,37,-1
 626 1487 l 1,38,39
 660 1477 660 1477 663 1477 c 1,40,-1
 834 1649 l 1,35,36
199 787 m 1,41,42
 205 780 205 780 223 760 c 1,43,-1
 0 537 l 1,44,-1
 0 585 l 1,45,-1
 199 787 l 1,41,42
0 1413 m 1,46,-1
 632 2047 l 1,47,-1
 677 2047 l 1,48,-1
 0 1370 l 1,49,-1
 0 1413 l 1,46,-1
0 1691 m 1,50,-1
 356 2047 l 1,51,-1
 401 2047 l 1,52,-1
 0 1647 l 1,53,-1
 0 1691 l 1,50,-1
399 1492 m 1,54,55
 366 1483 366 1483 329 1466 c 1,56,-1
 909 2047 l 1,57,-1
 954 2047 l 1,58,-1
 399 1492 l 1,54,55
142 1285 m 1,59,60
 121 1246 121 1246 109 1202 c 1,61,-1
 0 1094 l 1,62,-1
 0 1136 l 1,63,-1
 142 1285 l 1,59,60
110 967 m 1,64,65
 113 958 113 958 114.5 949.5 c 128,-1,66
 116 941 116 941 119 933 c 1,67,-1
 0 814 l 1,68,-1
 0 858 l 1,69,-1
 110 967 l 1,64,65
1254 1515 m 1,70,71
 1246 1526 1246 1526 1233 1542 c 1,72,-1
 1738 2047 l 1,73,-1
 1783 2047 l 1,74,-1
 1254 1515 l 1,70,71
349 659 m 1,75,-1
 357 617 l 1,76,-1
 0 261 l 1,77,-1
 0 309 l 1,78,-1
 349 659 l 1,75,-1
1949 0 m 1,79,-1
 1906 0 l 1,80,-1
 2048 140 l 1,81,-1
 2048 95 l 1,82,-1
 1949 0 l 1,79,-1
0 1923 m 1,83,-1
 0 1967 l 1,84,-1
 79 2047 l 1,85,-1
 124 2047 l 1,86,-1
 0 1923 l 1,83,-1
1630 0 m 1,87,-1
 2048 416 l 1,88,-1
 2048 370 l 1,89,-1
 1677 0 l 1,90,-1
 1630 0 l 1,87,-1
1717 314 m 1,91,-1
 1708 352 l 1,92,-1
 2048 691 l 1,93,-1
 2048 646 l 1,94,-1
 1717 314 l 1,91,-1
1681 557 m 1,95,-1
 1691 613 l 1,96,-1
 2048 970 l 1,97,-1
 2048 923 l 1,98,-1
 1681 557 l 1,95,-1
1953 1111 m 1,99,100
 1953 1121 1953 1121 1951.5 1132 c 128,-1,101
 1950 1143 1950 1143 1950 1154 c 1,102,-1
 2048 1251 l 1,103,-1
 2048 1206 l 1,104,-1
 1953 1111 l 1,99,100
1884 1320 m 1,105,106
 1877 1327 1877 1327 1865 1345 c 1,107,-1
 2048 1528 l 1,108,-1
 2048 1483 l 1,109,-1
 1884 1320 l 1,105,106
1742 1454 m 1,110,111
 1735 1458 1735 1458 1713 1471 c 1,112,-1
 2048 1804 l 1,113,-1
 2048 1759 l 1,114,-1
 1742 1454 l 1,110,111
1514 1505 m 1,115,116
 1488 1502 1488 1502 1466 1499 c 1,117,-1
 2015 2047 l 1,118,119
 2048 2047 2048 2047 2048 2040 c 1,120,-1
 1514 1505 l 1,115,116
350 381 m 1,121,-1
 333 320 l 1,122,-1
 13 0 l 1,123,124
 0 0 0 0 0 32 c 1,125,-1
 350 381 l 1,121,-1
1059 1559 m 1,126,-1
 988 1559 l 1,127,-1
 988 1690 l 1,128,-1
 905 1690 l 2,129,130
 871 1690 871 1690 871 1723 c 2,131,-1
 871 1724 l 2,132,133
 871 1757 871 1757 905 1757 c 2,134,-1
 988 1757 l 1,135,-1
 988 1842 l 2,136,137
 988 1877 988 1877 1024 1877 c 0,138,139
 1059 1877 1059 1877 1059 1842 c 2,140,-1
 1059 1757 l 1,141,-1
 1145 1757 l 2,142,143
 1178 1757 1178 1757 1178 1724 c 2,144,-1
 1178 1723 l 2,145,146
 1178 1690 1178 1690 1145 1690 c 2,147,-1
 1060 1689 l 1,148,-1
 1059 1559 l 1,126,-1
1058 853 m 1,149,150
 1230 851 1230 851 1373 832.5 c 128,-1,151
 1516 814 1516 814 1597 786 c 1,152,153
 1635 816 1635 816 1680 852.5 c 128,-1,154
 1725 889 1725 889 1755 927 c 0,155,156
 1803 988 1803 988 1803 1088 c 0,157,158
 1803 1178 1803 1178 1760 1238 c 0,159,160
 1683 1350 1683 1350 1526 1350 c 0,161,162
 1432 1350 1432 1350 1333 1311 c 0,163,164
 1246 1276 1246 1276 1201 1233 c 0,165,166
 1117 1149 1117 1149 1077 1017 c 0,167,168
 1063 970 1063 970 1060.5 931.5 c 128,-1,169
 1058 893 1058 893 1058 853 c 1,149,150
1024 1039 m 1,170,171
 1031 1067 1031 1067 1036 1078 c 2,172,173
 1046 1117 1046 1117 1059 1144 c 0,174,175
 1065 1161 1065 1161 1076.5 1183.5 c 128,-1,176
 1088 1206 1088 1206 1101 1235 c 0,177,178
 1109 1252 1109 1252 1118 1276.5 c 128,-1,179
 1127 1301 1127 1301 1136 1325 c 0,180,181
 1144 1345 1144 1345 1144 1368 c 0,182,183
 1144 1417 1144 1417 1109 1451.5 c 128,-1,184
 1074 1486 1074 1486 1024 1486 c 0,185,186
 905 1486 905 1486 905 1367 c 0,187,188
 905 1344 905 1344 913 1324 c 0,189,190
 935 1259 935 1259 947 1234 c 0,191,192
 960 1205 960 1205 971 1182.5 c 128,-1,193
 982 1160 982 1160 990 1143 c 0,194,195
 1003 1110 1003 1110 1012 1077 c 0,196,197
 1014 1071 1014 1071 1024 1039 c 1,170,171
989 853 m 1,198,199
 988 892 988 892 986 930.5 c 128,-1,200
 984 969 984 969 971 1016 c 0,201,202
 930 1150 930 1150 847 1232 c 0,203,204
 804 1274 804 1274 715 1310 c 0,205,206
 613 1350 613 1350 522 1350 c 0,207,208
 364 1350 364 1350 288 1237 c 0,209,210
 245 1177 245 1177 245 1087 c 0,211,212
 245 989 245 989 293 926 c 0,213,214
 322 889 322 889 367 852 c 128,-1,215
 412 815 412 815 451 785 c 1,216,217
 626 848 626 848 989 853 c 1,198,199
1570 311 m 1,218,219
 1377 389 1377 389 1028 389 c 0,220,221
 666 389 666 389 480 309 c 1,222,223
 656 239 656 239 1025 239 c 0,224,225
 1201 239 1201 239 1346 258.5 c 128,-1,226
 1491 278 1491 278 1570 311 c 1,218,219
1544 405 m 1,227,-1
 1514 520 l 1,228,229
 1316 564 1316 564 1024 564 c 0,230,231
 733 564 733 564 535 520 c 1,232,-1
 503 404 l 1,233,234
 694 460 694 460 1025 460 c 0,235,236
 1354 460 1354 460 1544 405 c 1,227,-1
463 522 m 1,237,-1
 430 709 l 1,238,239
 429 709 429 709 427 713 c 0,240,241
 422 720 422 720 398.5 731.5 c 128,-1,242
 375 743 375 743 344 771 c 0,243,244
 300 808 300 808 275.5 831 c 128,-1,245
 251 854 251 854 231 881 c 0,246,247
 170 965 170 965 163 1084 c 0,248,249
 153 1199 153 1199 256 1313 c 0,250,251
 360 1427 360 1427 537 1420 c 0,252,253
 603 1416 603 1416 692 1388 c 0,254,255
 721 1376 721 1376 751.5 1364.5 c 128,-1,256
 782 1353 782 1353 812 1341 c 0,257,258
 828 1333 828 1333 840 1325 c 1,259,260
 835 1346 835 1346 835 1367 c 0,261,262
 835 1445 835 1445 890.5 1500 c 128,-1,263
 946 1555 946 1555 1024 1556 c 0,264,265
 1102 1556 1102 1556 1157 1500.5 c 128,-1,266
 1212 1445 1212 1445 1212 1368 c 0,267,268
 1212 1352 1212 1352 1208 1326 c 1,269,270
 1222 1335 1222 1335 1235 1341 c 0,271,272
 1281 1361 1281 1361 1356 1388 c 0,273,274
 1442 1417 1442 1417 1511 1421 c 0,275,276
 1688 1429 1688 1429 1791 1314 c 0,277,278
 1892 1200 1892 1200 1885 1085 c 0,279,280
 1877 966 1877 966 1816 882 c 0,281,282
 1796 855 1796 855 1771 831.5 c 128,-1,283
 1746 808 1746 808 1704 772 c 0,284,285
 1671 744 1671 744 1648 732.5 c 128,-1,286
 1625 721 1625 721 1621 714 c 0,287,288
 1620 712 1620 712 1619 711 c 128,-1,289
 1618 710 1618 710 1618 709 c 2,290,-1
 1586 521 l 1,291,-1
 1652 274 l 1,292,293
 1602 229 1602 229 1428 200 c 128,-1,294
 1254 171 1254 171 1026 171 c 0,295,296
 794 171 794 171 618 201.5 c 128,-1,297
 442 232 442 232 397 278 c 1,298,-1
 463 522 l 1,237,-1
524 583 m 1,299,300
 714 631 714 631 1028 631 c 0,301,302
 1336 631 1336 631 1525 585 c 1,303,-1
 1550 732 l 1,304,305
 1349 785 1349 785 1024 785 c 0,306,307
 697 785 697 785 499 731 c 1,308,-1
 524 583 l 1,299,300
EndSplineSet
EndChar
StartChar: L
Encoding: 76 76 24
Width: 2048
Flags: W
Fore
427 184 m 1,0,1
 442 176 442 176 460 172 c 1,2,-1
 286 0 l 1,3,-1
 241 0 l 1,4,-1
 427 184 l 1,0,1
649 131 m 1,5,6
 659 130 659 130 689 126 c 1,7,-1
 563 0 l 1,8,-1
 518 0 l 1,9,-1
 649 131 l 1,5,6
948 109 m 1,10,-1
 839 0 l 1,11,-1
 794 0 l 1,12,-1
 903 110 l 1,13,14
 933 110 933 110 948 109 c 1,10,-1
1189 111 m 1,15,16
 1216 114 1216 114 1240 114 c 1,17,-1
 1124 0 l 1,18,-1
 1077 0 l 1,19,-1
 1189 111 l 1,15,16
1503 149 m 1,20,21
 1539 157 1539 157 1565 164 c 1,22,-1
 1402 0 l 1,23,-1
 1353 0 l 1,24,-1
 1503 149 l 1,20,21
1103 1919 m 1,25,26
 1089 1931 1089 1931 1074 1935 c 1,27,-1
 1185 2047 l 1,28,-1
 1230 2047 l 1,29,-1
 1103 1919 l 1,25,26
1233 1771 m 1,30,31
 1226 1788 1226 1788 1212 1798 c 1,32,-1
 1462 2047 l 1,33,-1
 1507 2047 l 1,34,-1
 1233 1771 l 1,30,31
834 1649 m 1,35,36
 820 1663 820 1663 812 1675 c 1,37,-1
 626 1487 l 1,38,39
 660 1477 660 1477 663 1477 c 1,40,-1
 834 1649 l 1,35,36
199 787 m 1,41,42
 205 780 205 780 223 760 c 1,43,-1
 0 537 l 1,44,-1
 0 585 l 1,45,-1
 199 787 l 1,41,42
0 1413 m 1,46,-1
 632 2047 l 1,47,-1
 677 2047 l 1,48,-1
 0 1370 l 1,49,-1
 0 1413 l 1,46,-1
0 1691 m 1,50,-1
 356 2047 l 1,51,-1
 401 2047 l 1,52,-1
 0 1647 l 1,53,-1
 0 1691 l 1,50,-1
399 1492 m 1,54,55
 366 1483 366 1483 329 1466 c 1,56,-1
 909 2047 l 1,57,-1
 954 2047 l 1,58,-1
 399 1492 l 1,54,55
142 1285 m 1,59,60
 121 1246 121 1246 109 1202 c 1,61,-1
 0 1094 l 1,62,-1
 0 1136 l 1,63,-1
 142 1285 l 1,59,60
110 967 m 1,64,65
 113 958 113 958 114.5 949.5 c 128,-1,66
 116 941 116 941 119 933 c 1,67,-1
 0 814 l 1,68,-1
 0 858 l 1,69,-1
 110 967 l 1,64,65
1254 1515 m 1,70,71
 1246 1526 1246 1526 1233 1542 c 1,72,-1
 1738 2047 l 1,73,-1
 1783 2047 l 1,74,-1
 1254 1515 l 1,70,71
349 659 m 1,75,-1
 357 617 l 1,76,-1
 0 261 l 1,77,-1
 0 309 l 1,78,-1
 349 659 l 1,75,-1
1949 0 m 1,79,-1
 1906 0 l 1,80,-1
 2048 140 l 1,81,-1
 2048 95 l 1,82,-1
 1949 0 l 1,79,-1
0 1923 m 1,83,-1
 0 1967 l 1,84,-1
 79 2047 l 1,85,-1
 124 2047 l 1,86,-1
 0 1923 l 1,83,-1
1630 0 m 1,87,-1
 2048 416 l 1,88,-1
 2048 370 l 1,89,-1
 1677 0 l 1,90,-1
 1630 0 l 1,87,-1
1717 314 m 1,91,-1
 1708 352 l 1,92,-1
 2048 691 l 1,93,-1
 2048 646 l 1,94,-1
 1717 314 l 1,91,-1
1681 557 m 1,95,-1
 1691 613 l 1,96,-1
 2048 970 l 1,97,-1
 2048 923 l 1,98,-1
 1681 557 l 1,95,-1
1953 1111 m 1,99,100
 1953 1121 1953 1121 1951.5 1132 c 128,-1,101
 1950 1143 1950 1143 1950 1154 c 1,102,-1
 2048 1251 l 1,103,-1
 2048 1206 l 1,104,-1
 1953 1111 l 1,99,100
1884 1320 m 1,105,106
 1877 1327 1877 1327 1865 1345 c 1,107,-1
 2048 1528 l 1,108,-1
 2048 1483 l 1,109,-1
 1884 1320 l 1,105,106
1742 1454 m 1,110,111
 1735 1458 1735 1458 1713 1471 c 1,112,-1
 2048 1804 l 1,113,-1
 2048 1759 l 1,114,-1
 1742 1454 l 1,110,111
1514 1505 m 1,115,116
 1488 1502 1488 1502 1466 1499 c 1,117,-1
 2015 2047 l 1,118,119
 2048 2047 2048 2047 2048 2040 c 1,120,-1
 1514 1505 l 1,115,116
350 381 m 1,121,-1
 333 320 l 1,122,-1
 13 0 l 1,123,124
 0 0 0 0 0 32 c 1,125,-1
 350 381 l 1,121,-1
1024 1210 m 1,126,127
 1022 1220 1022 1220 1019 1227 c 0,128,129
 1013 1247 1013 1247 1009 1256 c 0,130,131
 1006 1263 1006 1263 1001 1273.5 c 128,-1,132
 996 1284 996 1284 991 1296 c 0,133,134
 988 1303 988 1303 983.5 1314.5 c 128,-1,135
 979 1326 979 1326 976 1336 c 0,136,137
 973 1345 973 1345 973 1355 c 0,138,139
 973 1408 973 1408 1024 1408 c 0,140,141
 1077 1408 1077 1408 1077 1356 c 0,142,143
 1077 1343 1077 1343 1073 1337 c 1,144,145
 1059 1299 1059 1299 1058 1296 c 0,146,147
 1043 1266 1043 1266 1039 1257 c 0,148,149
 1032 1241 1032 1241 1030 1228 c 1,150,151
 1027 1222 1027 1222 1026 1217.5 c 128,-1,152
 1025 1213 1025 1213 1024 1210 c 1,126,127
912 865 m 1,153,154
 787 863 787 863 683.5 852 c 128,-1,155
 580 841 580 841 523 821 c 1,156,157
 493 858 493 858 453.5 895.5 c 128,-1,158
 414 933 414 933 384 966 c 0,159,160
 334 1017 334 1017 334 1078 c 0,161,162
 334 1153 334 1153 359 1188 c 0,163,164
 386 1228 386 1228 442 1247.5 c 128,-1,165
 498 1267 498 1267 555 1267 c 0,166,167
 627 1267 627 1267 693 1235 c 0,168,169
 758 1201 758 1201 779 1181 c 0,170,171
 847 1112 847 1112 885 1031 c 0,172,173
 898 1001 898 1001 904.5 947.5 c 128,-1,174
 911 894 911 894 912 865 c 1,153,154
1059 1559 m 1,175,-1
 988 1559 l 1,176,-1
 988 1690 l 1,177,-1
 905 1690 l 2,178,179
 871 1690 871 1690 871 1723 c 2,180,-1
 871 1724 l 2,181,182
 871 1757 871 1757 905 1757 c 2,183,-1
 988 1757 l 1,184,-1
 988 1842 l 2,185,186
 988 1877 988 1877 1024 1877 c 0,187,188
 1059 1877 1059 1877 1059 1842 c 2,189,-1
 1059 1757 l 1,190,-1
 1145 1757 l 2,191,192
 1178 1757 1178 1757 1178 1724 c 2,193,-1
 1178 1723 l 2,194,195
 1178 1690 1178 1690 1145 1690 c 2,196,-1
 1060 1689 l 1,197,-1
 1059 1559 l 1,175,-1
1024 1039 m 1,198,199
 1031 1067 1031 1067 1036 1078 c 2,200,201
 1046 1117 1046 1117 1059 1144 c 0,202,203
 1065 1161 1065 1161 1076.5 1183.5 c 128,-1,204
 1088 1206 1088 1206 1101 1235 c 0,205,206
 1109 1252 1109 1252 1118 1276.5 c 128,-1,207
 1127 1301 1127 1301 1136 1325 c 0,208,209
 1144 1345 1144 1345 1144 1368 c 0,210,211
 1144 1417 1144 1417 1109 1451.5 c 128,-1,212
 1074 1486 1074 1486 1024 1486 c 0,213,214
 905 1486 905 1486 905 1367 c 0,215,216
 905 1344 905 1344 913 1324 c 0,217,218
 935 1259 935 1259 947 1234 c 0,219,220
 960 1205 960 1205 971 1182.5 c 128,-1,221
 982 1160 982 1160 990 1143 c 0,222,223
 1003 1110 1003 1110 1012 1077 c 0,224,225
 1014 1071 1014 1071 1024 1039 c 1,198,199
988 788 m 1,226,227
 988 828 988 828 986 898.5 c 128,-1,228
 984 969 984 969 971 1016 c 0,229,230
 930 1150 930 1150 847 1232 c 0,231,232
 804 1274 804 1274 715 1310 c 0,233,234
 613 1350 613 1350 522 1350 c 0,235,236
 364 1350 364 1350 288 1237 c 0,237,238
 245 1177 245 1177 245 1087 c 0,239,240
 245 989 245 989 293 926 c 0,241,242
 318 890 318 890 389 837 c 128,-1,243
 460 784 460 784 509 739 c 1,244,245
 596 758 596 758 705.5 772 c 128,-1,246
 815 786 815 786 988 788 c 1,226,227
463 522 m 1,247,-1
 430 709 l 1,248,249
 429 709 429 709 427 713 c 0,250,251
 422 720 422 720 398.5 731.5 c 128,-1,252
 375 743 375 743 344 771 c 0,253,254
 300 808 300 808 275.5 831 c 128,-1,255
 251 854 251 854 231 881 c 0,256,257
 170 965 170 965 163 1084 c 0,258,259
 153 1199 153 1199 256 1313 c 0,260,261
 360 1427 360 1427 537 1420 c 0,262,263
 603 1416 603 1416 692 1388 c 0,264,265
 721 1376 721 1376 751.5 1364.5 c 128,-1,266
 782 1353 782 1353 812 1341 c 0,267,268
 828 1333 828 1333 840 1325 c 1,269,270
 835 1346 835 1346 835 1367 c 0,271,272
 835 1445 835 1445 890.5 1500 c 128,-1,273
 946 1555 946 1555 1024 1556 c 0,274,275
 1102 1556 1102 1556 1157 1500.5 c 128,-1,276
 1212 1445 1212 1445 1212 1368 c 0,277,278
 1212 1352 1212 1352 1208 1326 c 1,279,280
 1222 1335 1222 1335 1235 1341 c 0,281,282
 1281 1361 1281 1361 1356 1388 c 0,283,284
 1442 1417 1442 1417 1511 1421 c 0,285,286
 1688 1429 1688 1429 1791 1314 c 0,287,288
 1892 1200 1892 1200 1885 1085 c 0,289,290
 1877 966 1877 966 1816 882 c 0,291,292
 1796 855 1796 855 1771 831.5 c 128,-1,293
 1746 808 1746 808 1704 772 c 0,294,295
 1671 744 1671 744 1648 732.5 c 128,-1,296
 1625 721 1625 721 1621 714 c 0,297,298
 1620 712 1620 712 1619 711 c 128,-1,299
 1618 710 1618 710 1618 709 c 2,300,-1
 1586 521 l 1,301,-1
 1652 274 l 1,302,303
 1602 229 1602 229 1428 200 c 128,-1,304
 1254 171 1254 171 1026 171 c 0,305,306
 794 171 794 171 618 201.5 c 128,-1,307
 442 232 442 232 397 278 c 1,308,-1
 463 522 l 1,247,-1
1544 315 m 1,309,-1
 1514 433 l 1,310,311
 1319 478 1319 478 1024 478 c 0,312,313
 732 478 732 478 536 433 c 1,314,-1
 504 314 l 1,315,316
 694 372 694 372 1025 372 c 0,317,318
 1184 372 1184 372 1320 356 c 128,-1,319
 1456 340 1456 340 1544 315 c 1,309,-1
1518 614 m 1,320,321
 1334 665 1334 665 1028 665 c 0,322,323
 720 665 720 665 532 613 c 1,324,-1
 547 512 l 1,325,326
 736 561 736 561 1028 561 c 0,327,328
 1319 561 1319 561 1502 513 c 1,329,-1
 1518 614 l 1,320,321
1060 787 m 1,330,331
 1232 784 1232 784 1342 770 c 128,-1,332
 1452 756 1452 756 1540 737 c 1,333,334
 1595 791 1595 791 1662 840 c 128,-1,335
 1729 889 1729 889 1756 924 c 0,336,337
 1804 989 1804 989 1804 1086 c 0,338,339
 1804 1175 1804 1175 1761 1235 c 0,340,341
 1684 1348 1684 1348 1526 1348 c 0,342,343
 1434 1348 1434 1348 1334 1308 c 0,344,345
 1243 1272 1243 1272 1202 1230 c 0,346,347
 1117 1148 1117 1148 1078 1014 c 0,348,349
 1063 968 1063 968 1061.5 897 c 128,-1,350
 1060 826 1060 826 1060 787 c 1,330,331
1133 865 m 1,351,352
 1133 894 1133 894 1139.5 947.5 c 128,-1,353
 1146 1001 1146 1001 1160 1031 c 0,354,355
 1197 1112 1197 1112 1266 1181 c 0,356,357
 1286 1201 1286 1201 1352 1235 c 0,358,359
 1417 1267 1417 1267 1491 1267 c 0,360,361
 1547 1267 1547 1267 1602.5 1247.5 c 128,-1,362
 1658 1228 1658 1228 1686 1188 c 0,363,364
 1711 1154 1711 1154 1711 1078 c 0,365,366
 1711 1018 1711 1018 1662 966 c 0,367,368
 1630 933 1630 933 1593 899.5 c 128,-1,369
 1556 866 1556 866 1522 821 c 1,370,371
 1464 841 1464 841 1360.5 852 c 128,-1,372
 1257 863 1257 863 1133 865 c 1,351,352
EndSplineSet
EndChar
StartChar: one
Encoding: 49 49 25
Width: 2048
Flags: W
Fore
1912 135 m 1,0,-1
 2047 135 l 1,1,-1
 2047 35 l 1,2,-1
 2015 35 l 1,3,-1
 2015 0 l 1,4,-1
 1912 0 l 1,5,-1
 1912 135 l 1,0,-1
EndSplineSet
EndChar
StartChar: two
Encoding: 50 50 26
Width: 2048
Flags: W
Fore
0 135 m 1,0,-1
 2048 135 l 1,1,-1
 2048 35 l 1,2,-1
 0 35 l 1,3,-1
 0 135 l 1,0,-1
EndSplineSet
EndChar
StartChar: three
Encoding: 51 51 27
Width: 2048
Flags: W
Fore
135 135 m 1,0,-1
 135 0 l 1,1,-1
 32 0 l 1,2,-1
 32 35 l 1,3,-1
 0 35 l 1,4,-1
 0 135 l 1,5,-1
 135 135 l 1,0,-1
EndSplineSet
EndChar
StartChar: four
Encoding: 52 52 28
Width: 2048
Flags: W
Fore
1915 0 m 1,0,-1
 1916 2049 l 1,1,-1
 2015 2049 l 1,2,-1
 2015 0 l 1,3,-1
 1915 0 l 1,0,-1
EndSplineSet
EndChar
StartChar: five
Encoding: 53 53 29
Width: 2048
Flags: W
Fore
32 0 m 1,0,-1
 32 2049 l 1,1,-1
 132 2049 l 1,2,-1
 132 0 l 1,3,-1
 32 0 l 1,0,-1
EndSplineSet
EndChar
StartChar: seven
Encoding: 55 55 30
Width: 2048
Flags: W
Fore
1913 1913 m 1,0,-1
 1913 2049 l 1,1,-1
 2016 2049 l 1,2,-1
 2016 2013 l 1,3,-1
 2048 2013 l 1,4,-1
 2048 1913 l 1,5,-1
 1913 1913 l 1,0,-1
EndSplineSet
EndChar
StartChar: eight
Encoding: 56 56 31
Width: 2048
Flags: W
Fore
0 2013 m 1,0,-1
 2048 2013 l 1,1,-1
 2048 1913 l 1,2,-1
 0 1913 l 1,3,-1
 0 2013 l 1,0,-1
EndSplineSet
EndChar
StartChar: nine
Encoding: 57 57 32
Width: 2048
Flags: W
Fore
135 1913 m 1,0,-1
 0 1913 l 1,1,-1
 0 2013 l 1,2,-1
 32 2013 l 1,3,-1
 32 2049 l 1,4,-1
 135 2049 l 1,5,-1
 135 1913 l 1,0,-1
EndSplineSet
EndChar
StartChar: exclam
Encoding: 33 33 33
Width: 2048
Flags: W
Fore
1912 135 m 1,0,-1
 2047 135 l 1,1,-1
 2047 35 l 1,2,-1
 2015 35 l 1,3,-1
 2015 0 l 1,4,-1
 1912 0 l 1,5,-1
 1912 135 l 1,0,-1
1639 410 m 1,6,-1
 2047 410 l 1,7,-1
 2047 239 l 1,8,-1
 1809 239 l 1,9,-1
 1809 0 l 1,10,-1
 1639 0 l 1,11,-1
 1639 410 l 1,6,-1
EndSplineSet
EndChar
StartChar: quotedbl
Encoding: 34 34 34
Width: 2048
Flags: W
Fore
0 135 m 1,0,-1
 2048 135 l 1,1,-1
 2048 35 l 1,2,-1
 0 35 l 1,3,-1
 0 135 l 1,0,-1
0 410 m 1,4,-1
 2047 410 l 1,5,-1
 2047 239 l 1,6,-1
 0 239 l 1,7,-1
 0 410 l 1,4,-1
EndSplineSet
EndChar
StartChar: numbersign
Encoding: 35 35 35
Width: 2048
Flags: W
Fore
135 135 m 1,0,-1
 135 0 l 1,1,-1
 32 0 l 1,2,-1
 32 35 l 1,3,-1
 0 35 l 1,4,-1
 0 135 l 1,5,-1
 135 135 l 1,0,-1
409 410 m 1,6,-1
 409 0 l 1,7,-1
 238 0 l 1,8,-1
 238 239 l 1,9,-1
 0 239 l 1,10,-1
 0 410 l 1,11,-1
 409 410 l 1,6,-1
EndSplineSet
EndChar
StartChar: dollar
Encoding: 36 36 36
Width: 2048
Flags: W
Fore
1915 0 m 1,0,-1
 1916 2049 l 1,1,-1
 2015 2049 l 1,2,-1
 2015 0 l 1,3,-1
 1915 0 l 1,0,-1
1640 0 m 1,4,-1
 1642 2049 l 1,5,-1
 1813 2049 l 1,6,-1
 1812 0 l 1,7,-1
 1640 0 l 1,4,-1
EndSplineSet
EndChar
StartChar: percent
Encoding: 37 37 37
Width: 2048
Flags: W
Fore
132 0 m 1,0,-1
 32 0 l 1,1,-1
 32 2049 l 1,2,-1
 132 2049 l 1,3,-1
 132 0 l 1,0,-1
407 0 m 1,4,-1
 236 0 l 1,5,-1
 235 2049 l 1,6,-1
 406 2049 l 1,7,-1
 407 0 l 1,4,-1
EndSplineSet
EndChar
StartChar: slash
Encoding: 47 47 38
Width: 2048
Flags: W
Fore
1912 1913 m 1,0,-1
 1912 2049 l 1,1,-1
 2015 2049 l 1,2,-1
 2015 2013 l 1,3,-1
 2047 2013 l 1,4,-1
 2047 1913 l 1,5,-1
 1912 1913 l 1,0,-1
1639 1638 m 1,6,-1
 1639 2049 l 1,7,-1
 1809 2049 l 1,8,-1
 1809 1809 l 1,9,-1
 2047 1809 l 1,10,-1
 2047 1638 l 1,11,-1
 1639 1638 l 1,6,-1
EndSplineSet
EndChar
StartChar: parenleft
Encoding: 40 40 39
Width: 2048
Flags: W
Fore
0 1913 m 1,0,-1
 0 2013 l 1,1,-1
 2048 2013 l 1,2,-1
 2048 1913 l 1,3,-1
 0 1913 l 1,0,-1
0 1638 m 1,4,-1
 0 1809 l 1,5,-1
 2047 1809 l 1,6,-1
 2047 1638 l 1,7,-1
 0 1638 l 1,4,-1
EndSplineSet
EndChar
StartChar: parenright
Encoding: 41 41 40
Width: 2048
Flags: W
Fore
135 1913 m 1,0,-1
 0 1913 l 1,1,-1
 0 2013 l 1,2,-1
 32 2013 l 1,3,-1
 32 2049 l 1,4,-1
 135 2049 l 1,5,-1
 135 1913 l 1,0,-1
409 1638 m 1,6,-1
 0 1638 l 1,7,-1
 0 1809 l 1,8,-1
 238 1809 l 1,9,-1
 238 2049 l 1,10,-1
 409 2049 l 1,11,-1
 409 1638 l 1,6,-1
EndSplineSet
EndChar
StartChar: a
Encoding: 97 97 41
Width: 2048
Flags: W
Fore
1912 0 m 1,0,1
 1912 55 1912 55 1951.5 94.5 c 128,-1,2
 1991 134 1991 134 2047 135 c 1,3,-1
 2047 32 l 1,4,5
 2015 30 2015 30 2015 0 c 1,6,-1
 1912 0 l 1,0,1
EndSplineSet
EndChar
StartChar: s
Encoding: 115 115 42
Width: 2048
Flags: W
Fore
135 0 m 1,0,-1
 32 0 l 1,1,2
 32 30 32 30 0 32 c 1,3,-1
 0 135 l 1,4,5
 56 134 56 134 95.5 94.5 c 128,-1,6
 135 55 135 55 135 0 c 1,0,-1
EndSplineSet
EndChar
StartChar: d
Encoding: 100 100 43
Width: 2048
Flags: W
Fore
1912 2049 m 1,0,-1
 2015 2049 l 1,1,2
 2015 2017 2015 2017 2047 2016 c 1,3,-1
 2047 1913 l 1,4,5
 1991 1913 1991 1913 1951.5 1952.5 c 128,-1,6
 1912 1992 1912 1992 1912 2049 c 1,0,-1
EndSplineSet
EndChar
StartChar: f
Encoding: 102 102 44
Width: 2048
Flags: W
Fore
135 2049 m 1,0,1
 135 1992 135 1992 95.5 1952.5 c 128,-1,2
 56 1913 56 1913 0 1913 c 1,3,-1
 0 2016 l 1,4,5
 32 2017 32 2017 32 2049 c 1,6,-1
 135 2049 l 1,0,1
EndSplineSet
EndChar
StartChar: A
Encoding: 65 65 45
Width: 2048
Flags: W
Fore
1639 0 m 1,0,1
 1639 168 1639 168 1758.5 288.5 c 128,-1,2
 1878 409 1878 409 2047 410 c 1,3,-1
 2047 239 l 1,4,5
 1948 238 1948 238 1878.5 168 c 128,-1,6
 1809 98 1809 98 1809 0 c 1,7,-1
 1639 0 l 1,0,1
2047 137 m 1,8,-1
 2047 35 l 1,9,10
 2014 33 2014 33 2014 0 c 1,11,-1
 1912 0 l 1,12,13
 1912 55 1912 55 1951.5 96 c 128,-1,14
 1991 137 1991 137 2047 137 c 1,8,-1
EndSplineSet
EndChar
StartChar: S
Encoding: 83 83 46
Width: 2048
Flags: W
Fore
409 0 m 1,0,-1
 238 0 l 1,1,2
 238 98 238 98 168 168 c 128,-1,3
 98 238 98 238 0 239 c 1,4,-1
 0 410 l 1,5,6
 168 409 168 409 288.5 288.5 c 128,-1,7
 409 168 409 168 409 0 c 1,0,-1
0 137 m 1,8,9
 56 137 56 137 95.5 96 c 128,-1,10
 135 55 135 55 135 0 c 1,11,-1
 34 0 l 1,12,13
 34 33 34 33 0 35 c 1,14,-1
 0 137 l 1,8,9
EndSplineSet
EndChar
StartChar: D
Encoding: 68 68 47
Width: 2048
Flags: W
Fore
1639 2049 m 1,0,-1
 1809 2049 l 1,1,2
 1809 1950 1809 1950 1878.5 1879.5 c 128,-1,3
 1948 1809 1948 1809 2047 1809 c 1,4,-1
 2047 1638 l 1,5,6
 1878 1638 1878 1638 1758.5 1759 c 128,-1,7
 1639 1880 1639 1880 1639 2049 c 1,0,-1
2047 1911 m 1,8,9
 1991 1910 1991 1910 1951.5 1951 c 128,-1,10
 1912 1992 1912 1992 1912 2049 c 1,11,-1
 2014 2049 l 1,12,13
 2014 2014 2014 2014 2047 2013 c 1,14,-1
 2047 1911 l 1,8,9
EndSplineSet
EndChar
StartChar: F
Encoding: 70 70 48
Width: 2048
Flags: W
Fore
409 2049 m 1,0,1
 409 1880 409 1880 288.5 1759 c 128,-1,2
 168 1638 168 1638 0 1638 c 1,3,-1
 0 1809 l 1,4,5
 98 1809 98 1809 168 1879.5 c 128,-1,6
 238 1950 238 1950 238 2049 c 1,7,-1
 409 2049 l 1,0,1
0 1911 m 1,8,-1
 0 2013 l 1,9,10
 34 2014 34 2014 34 2049 c 1,11,-1
 135 2049 l 1,12,13
 135 1992 135 1992 95.5 1951 c 128,-1,14
 56 1910 56 1910 0 1911 c 1,8,-1
EndSplineSet
EndChar
StartChar: Agrave
Encoding: 192 192 49
Width: 2048
Flags: W
Fore
1915 0 m 1,0,-1
 1916 2049 l 1,1,-1
 2015 2049 l 1,2,-1
 2015 0 l 1,3,-1
 1915 0 l 1,0,-1
1115 1446 m 1,4,-1
 1115 722 l 2,5,6
 1115 660 1115 660 1145 640 c 0,7,8
 1167 624 1167 624 1230 624 c 1,9,-1
 1230 596 l 1,10,-1
 896 596 l 1,11,-1
 896 624 l 1,12,13
 961 624 961 624 982 641 c 0,14,15
 1010 667 1010 667 1010 728 c 2,16,-1
 1010 1269 l 2,17,18
 1010 1286 1010 1286 1004 1301 c 1,19,-1
 997 1313 l 2,20,21
 991 1322 991 1322 976 1322 c 0,22,23
 965 1322 965 1322 940 1312 c 2,24,-1
 896 1293 l 1,25,-1
 896 1322 l 1,26,-1
 1115 1446 l 1,4,-1
EndSplineSet
EndChar
StartChar: Aacute
Encoding: 193 193 50
Width: 2048
Flags: W
Fore
1915 0 m 1,0,-1
 1916 2049 l 1,1,-1
 2015 2049 l 1,2,-1
 2015 0 l 1,3,-1
 1915 0 l 1,0,-1
1055 701 m 1,4,-1
 1112 702 l 2,5,6
 1150 703 1150 703 1169 724 c 2,7,-1
 1193 752 l 1,8,-1
 1212 777 l 1,9,-1
 1230 768 l 1,10,-1
 1163 596 l 1,11,-1
 676 596 l 1,12,-1
 676 616 l 1,13,-1
 785 732 l 1,14,-1
 884 837 l 2,15,16
 940 902 940 902 974 947 c 0,17,18
 1016 1003 1016 1003 1033 1049 c 0,19,20
 1048 1097 1048 1097 1048 1160 c 0,21,22
 1048 1242 1048 1242 1011 1291 c 0,23,24
 964 1350 964 1350 890 1350 c 0,25,26
 769 1350 769 1350 710 1222 c 2,27,-1
 700 1197 l 1,28,-1
 676 1208 l 1,29,-1
 682 1231 l 2,30,31
 707 1323 707 1323 770 1377 c 0,32,33
 803 1407 803 1407 850 1426 c 0,34,35
 902 1446 902 1446 952 1446 c 0,36,37
 1049 1444 1049 1444 1111 1381 c 0,38,39
 1173 1314 1173 1314 1173 1220 c 0,40,41
 1173 1110 1173 1110 1068 977 c 0,42,43
 1009 907 1009 907 955 851 c 2,44,-1
 872 765 l 1,45,-1
 812 705 l 1,46,-1
 812 701 l 1,47,-1
 1055 701 l 1,4,-1
EndSplineSet
EndChar
StartChar: Acircumflex
Encoding: 194 194 51
Width: 2048
Flags: W
Fore
1915 0 m 1,0,-1
 1916 2049 l 1,1,-1
 2015 2049 l 1,2,-1
 2015 0 l 1,3,-1
 1915 0 l 1,0,-1
766 1292 m 2,4,5
 793 1369 793 1369 856 1414 c 0,6,7
 890 1439 890 1439 918 1448 c 0,8,9
 954 1459 954 1459 994 1459 c 0,10,11
 1067 1459 1067 1459 1118 1421 c 0,12,13
 1183 1373 1183 1373 1182 1292 c 0,14,15
 1180 1196 1180 1196 1105 1138 c 2,16,-1
 1077 1118 l 1,17,-1
 1077 1115 l 1,18,19
 1157 1076 1157 1076 1191 1024 c 0,20,21
 1228 965 1228 965 1230 884 c 0,22,23
 1230 747 1230 747 1126 665 c 0,24,25
 1033 590 1033 590 896 590 c 0,26,27
 750 587 750 587 752 661 c 0,28,29
 752 679 752 679 767 698 c 0,30,31
 781 714 781 714 804 714 c 0,32,33
 815 714 815 714 835 708 c 0,34,35
 861 698 861 698 877 690 c 0,36,37
 921 667 921 667 929 665 c 2,38,39
 951 656 951 656 981 656 c 0,40,41
 1047 656 1047 656 1093 708 c 0,42,43
 1133 754 1133 754 1135 828 c 0,44,45
 1131 915 1131 915 1068 972 c 0,46,47
 1016 1017 1016 1017 911 1019 c 2,48,-1
 877 1019 l 1,49,-1
 877 1048 l 1,50,51
 1051 1101 1051 1101 1080 1196 c 0,52,53
 1087 1214 1087 1214 1087 1237 c 0,54,55
 1085 1293 1085 1293 1044 1329 c 0,56,57
 1007 1363 1007 1363 949 1363 c 0,58,59
 888 1363 888 1363 844 1328 c 0,60,61
 816 1307 816 1307 776 1239 c 1,62,-1
 752 1250 l 1,63,-1
 766 1292 l 2,4,5
EndSplineSet
EndChar
StartChar: Atilde
Encoding: 195 195 52
Width: 2048
Flags: W
Fore
742 896 m 1,0,-1
 742 899 l 1,1,-1
 1021 899 l 1,2,-1
 1021 1295 l 1,3,-1
 1023 1295 l 1,4,-1
 742 896 l 1,0,-1
1069 1453 m 1,5,-1
 1126 1453 l 1,6,-1
 1126 899 l 1,7,-1
 1251 899 l 1,8,-1
 1251 803 l 1,9,-1
 1126 803 l 1,10,-1
 1126 603 l 1,11,-1
 1021 603 l 1,12,-1
 1021 803 l 1,13,-1
 696 803 l 1,14,-1
 696 913 l 1,15,-1
 1069 1453 l 1,5,-1
1915 0 m 1,16,-1
 1916 2049 l 1,17,-1
 2015 2049 l 1,18,-1
 2015 0 l 1,19,-1
 1915 0 l 1,16,-1
EndSplineSet
EndChar
StartChar: Adieresis
Encoding: 196 196 53
Width: 2048
Flags: W
Fore
1915 0 m 1,0,-1
 1916 2049 l 1,1,-1
 2015 2049 l 1,2,-1
 2015 0 l 1,3,-1
 1915 0 l 1,0,-1
905 1447 m 1,4,-1
 1230 1447 l 1,5,-1
 1176 1341 l 1,6,-1
 913 1341 l 1,7,-1
 913 1338 l 1,8,-1
 864 1240 l 1,9,-1
 864 1241 l 1,10,-1
 909 1233 l 2,11,12
 1209 1175 1209 1175 1211 915 c 0,13,14
 1211 774 1211 774 1109 683 c 0,15,16
 1013 596 1013 596 871 596 c 0,17,18
 816 596 816 596 775 609 c 0,19,20
 714 628 714 628 714 675 c 0,21,22
 714 728 714 728 773 730 c 0,23,24
 804 730 804 730 869 690 c 0,25,26
 912 663 912 663 955 663 c 0,27,28
 1026 663 1026 663 1074 729 c 0,29,30
 1115 785 1115 785 1115 861 c 0,31,32
 1115 1071 1115 1071 820 1121 c 2,33,-1
 752 1131 l 1,34,-1
 905 1447 l 1,4,-1
EndSplineSet
EndChar
StartChar: Aring
Encoding: 197 197 54
Width: 2048
Flags: W
Fore
1915 0 m 1,0,-1
 1916 2049 l 1,1,-1
 2015 2049 l 1,2,-1
 2015 0 l 1,3,-1
 1915 0 l 1,0,-1
832 1023 m 1,4,-1
 823 978 l 2,5,6
 819 958 819 958 819 920 c 0,7,8
 819 834 819 834 839 758 c 0,9,10
 846 724 846 724 871 687 c 0,11,12
 908 627 908 627 974 629 c 0,13,14
 1104 625 1104 625 1106 833 c 0,15,16
 1106 920 1106 920 1074 984 c 0,17,18
 1030 1068 1030 1068 954 1068 c 0,19,20
 901 1068 901 1068 832 1023 c 1,4,-1
850 1087 m 1,21,22
 940 1135 940 1135 1010 1135 c 0,23,24
 1086 1135 1086 1135 1138 1093 c 0,25,26
 1196 1045 1196 1045 1216 980 c 0,27,28
 1230 936 1230 936 1230 881 c 0,29,30
 1230 709 1230 709 1115 627 c 0,31,32
 1087 605 1087 605 1054 595 c 0,33,34
 1012 581 1012 581 967 581 c 0,35,36
 839 581 839 581 759 696 c 0,37,38
 695 788 695 788 695 932 c 0,39,40
 695 1113 695 1113 787 1240 c 0,41,42
 828 1299 828 1299 895 1348 c 0,43,44
 955 1393 955 1393 1019 1419 c 0,45,46
 1089 1447 1089 1447 1166 1451 c 2,47,-1
 1211 1450 l 1,48,-1
 1211 1422 l 1,49,-1
 1176 1414 l 2,50,51
 1135 1403 1135 1403 1079 1381 c 0,52,53
 922 1313 922 1313 864 1137 c 2,54,-1
 850 1087 l 1,21,22
EndSplineSet
EndChar
StartChar: AE
Encoding: 198 198 55
Width: 2048
Flags: W
Fore
1915 0 m 1,0,-1
 1916 2049 l 1,1,-1
 2015 2049 l 1,2,-1
 2015 0 l 1,3,-1
 1915 0 l 1,0,-1
762 1433 m 1,4,-1
 1230 1433 l 1,5,-1
 952 602 l 1,6,-1
 867 602 l 1,7,-1
 1114 1324 l 1,8,-1
 1114 1328 l 1,9,-1
 871 1328 l 1,10,-1
 827 1325 l 2,11,12
 769 1320 769 1320 744 1278 c 2,13,-1
 714 1232 l 1,14,-1
 685 1242 l 1,15,-1
 762 1433 l 1,4,-1
EndSplineSet
EndChar
StartChar: Ccedilla
Encoding: 199 199 56
Width: 2048
Flags: W
Fore
1915 0 m 1,0,-1
 1916 2049 l 1,1,-1
 2015 2049 l 1,2,-1
 2015 0 l 1,3,-1
 1915 0 l 1,0,-1
994 1096 m 1,4,-1
 1001 1096 l 1,5,-1
 1032 1119 l 2,6,7
 1075 1152 1075 1152 1094 1187 c 0,8,9
 1115 1224 1115 1224 1115 1276 c 0,10,11
 1115 1336 1115 1336 1076 1369 c 0,12,13
 1039 1403 1039 1403 980 1403 c 0,14,15
 923 1403 923 1403 887 1370 c 0,16,17
 848 1336 848 1336 848 1283 c 0,18,19
 848 1205 848 1205 955 1123 c 2,20,-1
 994 1096 l 1,4,-1
948 987 m 1,21,-1
 945 987 l 1,22,-1
 904 957 l 2,23,24
 829 894 829 894 829 801 c 0,25,26
 829 732 829 732 879 681 c 0,27,28
 932 629 932 629 1001 629 c 0,29,30
 1063 629 1063 629 1099 665 c 0,31,32
 1134 700 1134 700 1134 762 c 0,33,34
 1134 830 1134 830 1069 891 c 0,35,36
 1040 917 1040 917 1008 943 c 2,37,-1
 948 987 l 1,21,-1
862 1054 m 2,38,39
 832 1075 832 1075 802 1110 c 0,40,41
 752 1166 752 1166 752 1243 c 0,42,43
 752 1340 752 1340 820 1398 c 0,44,45
 882 1451 882 1451 983 1451 c 0,46,47
 1078 1451 1078 1451 1137 1409 c 0,48,49
 1211 1357 1211 1357 1211 1271 c 0,50,51
 1209 1184 1209 1184 1138 1123 c 0,52,53
 1106 1095 1106 1095 1078 1080 c 2,54,-1
 1045 1064 l 1,55,-1
 1043 1064 l 1,56,-1
 1089 1030 l 2,57,58
 1134 997 1134 997 1167 960 c 0,59,60
 1202 921 1202 921 1217 875 c 0,61,62
 1230 840 1230 840 1230 799 c 0,63,64
 1228 691 1228 691 1153 633 c 0,65,66
 1083 580 1083 580 977 582 c 0,67,68
 877 582 877 582 811 635 c 0,69,70
 733 698 733 698 733 792 c 0,71,72
 733 830 733 830 748 868 c 0,73,74
 776 943 776 943 875 1001 c 2,75,-1
 907 1020 l 1,76,-1
 905 1020 l 1,77,-1
 862 1054 l 2,38,39
EndSplineSet
EndChar
StartChar: Egrave
Encoding: 200 200 57
Width: 2048
Flags: W
Fore
0 2013 m 1,0,-1
 2048 2013 l 1,1,-1
 2048 1913 l 1,2,-1
 0 1913 l 1,3,-1
 0 2013 l 1,0,-1
1081 888 m 1,4,-1
 1019 862 l 2,5,6
 888 806 888 806 890 720 c 0,7,8
 890 682 890 682 911 658 c 0,9,10
 933 630 933 630 969 630 c 0,11,12
 1019 630 1019 630 1064 669 c 2,13,-1
 1081 687 l 1,14,-1
 1081 888 l 1,4,-1
1081 970 m 1,15,-1
 1081 1001 l 2,16,17
 1081 1030 1081 1030 1077 1052 c 0,18,19
 1068 1125 1068 1125 997 1127 c 0,20,21
 921 1127 921 1127 919 1067 c 2,22,-1
 919 1027 l 2,23,24
 917 964 917 964 860 964 c 0,25,26
 831 964 831 964 817 983 c 0,27,28
 804 1001 804 1001 804 1028 c 0,29,30
 804 1068 804 1068 840 1106 c 0,31,32
 868 1135 868 1135 914 1151 c 0,33,34
 954 1165 954 1165 998 1165 c 0,35,36
 1038 1165 1038 1165 1076 1153 c 0,37,38
 1153 1128 1153 1128 1175 1064 c 0,39,40
 1186 1032 1186 1032 1186 1004 c 2,41,-1
 1186 959 l 1,42,-1
 1186 726 l 1,43,-1
 1186 675 l 2,44,45
 1190 630 1190 630 1221 630 c 0,46,47
 1241 630 1241 630 1272 649 c 1,48,-1
 1272 611 l 1,49,-1
 1262 600 l 2,50,51
 1235 575 1235 575 1212 565 c 0,52,53
 1188 554 1188 554 1163 554 c 0,54,55
 1104 552 1104 552 1087 614 c 2,56,-1
 1081 640 l 1,57,-1
 1051 614 l 2,58,59
 976 554 976 554 908 554 c 0,60,61
 847 554 847 554 812 591 c 0,62,63
 776 627 776 627 776 686 c 0,64,65
 776 732 776 732 796 765 c 0,66,67
 818 800 818 800 854 827 c 0,68,69
 911 868 911 868 1011 908 c 2,70,-1
 1081 936 l 1,71,-1
 1081 970 l 1,15,-1
EndSplineSet
EndChar
StartChar: Eacute
Encoding: 201 201 58
Width: 2048
Flags: W
Fore
0 2013 m 1,0,-1
 2048 2013 l 1,1,-1
 2048 1913 l 1,2,-1
 0 1913 l 1,3,-1
 0 2013 l 1,0,-1
929 639 m 1,4,-1
 937 627 l 2,5,6
 972 584 972 584 1034 584 c 0,7,8
 1097 584 1097 584 1139 629 c 0,9,10
 1165 657 1165 657 1176 691 c 0,11,12
 1196 752 1196 752 1196 826 c 0,13,14
 1196 919 1196 919 1165 988 c 0,15,16
 1123 1081 1123 1081 1044 1081 c 0,17,18
 958 1077 958 1077 935 999 c 0,19,20
 929 981 929 981 929 952 c 2,21,-1
 929 639 l 1,4,-1
959 1097 m 2,22,23
 1017 1157 1017 1157 1097 1157 c 0,24,25
 1134 1157 1134 1157 1169 1142 c 0,26,27
 1204 1126 1204 1126 1230 1098 c 0,28,29
 1270 1057 1270 1057 1288 1006 c 0,30,31
 1311 937 1311 937 1311 873 c 0,32,33
 1309 767 1309 767 1264 692 c 0,34,35
 1210 602 1210 602 1129 568 c 0,36,37
 1077 546 1077 546 1023 546 c 0,38,39
 974 546 974 546 922 560 c 0,40,41
 875 572 875 572 852 591 c 2,42,-1
 823 616 l 1,43,-1
 823 1260 l 1,44,-1
 822 1286 l 2,45,46
 817 1328 817 1328 763 1330 c 2,47,-1
 737 1329 l 1,48,-1
 737 1358 l 1,49,-1
 929 1415 l 1,50,-1
 929 1061 l 1,51,-1
 959 1097 l 2,22,23
EndSplineSet
EndChar
StartChar: Ecircumflex
Encoding: 202 202 59
Width: 2048
Flags: W
Fore
0 2013 m 1,0,-1
 2048 2013 l 1,1,-1
 2048 1913 l 1,2,-1
 0 1913 l 1,3,-1
 0 2013 l 1,0,-1
1261 743 m 1,4,-1
 1248 715 l 2,5,6
 1223 669 1223 669 1188 627 c 0,7,8
 1146 580 1146 580 1100 562 c 0,9,10
 1062 546 1062 546 1013 546 c 0,11,12
 954 546 954 546 913 568 c 0,13,14
 869 592 869 592 842 630 c 0,15,16
 809 677 809 677 795 737 c 0,17,18
 783 788 783 788 783 843 c 0,19,20
 784 990 784 990 854 1077 c 0,21,22
 915 1154 915 1154 1032 1158 c 0,23,24
 1100 1158 1100 1158 1153 1128 c 0,25,26
 1223 1089 1223 1089 1223 1029 c 0,27,28
 1221 976 1221 976 1167 976 c 0,29,30
 1111 976 1111 976 1099 1050 c 0,31,32
 1089 1089 1089 1089 1076 1102 c 0,33,34
 1059 1119 1059 1119 1023 1119 c 0,35,36
 950 1119 950 1119 908 1045 c 0,37,38
 879 993 879 993 879 902 c 0,39,40
 879 842 879 842 890 796 c 0,41,42
 920 651 920 651 1054 651 c 0,43,44
 1152 651 1152 651 1220 732 c 2,45,-1
 1238 756 l 1,46,-1
 1261 743 l 1,4,-1
EndSplineSet
EndChar
StartChar: Edieresis
Encoding: 203 203 60
Width: 2048
Flags: W
Fore
0 2013 m 1,0,-1
 2048 2013 l 1,1,-1
 2048 1913 l 1,2,-1
 0 1913 l 1,3,-1
 0 2013 l 1,0,-1
1118 673 m 1,4,-1
 1118 962 l 2,5,6
 1118 1003 1118 1003 1108 1038 c 0,7,8
 1098 1068 1098 1068 1065 1095 c 0,9,10
 1035 1119 1035 1119 998 1119 c 0,11,12
 942 1119 942 1119 908 1077 c 0,13,14
 883 1052 883 1052 871 1013 c 0,15,16
 851 957 851 957 851 886 c 0,17,18
 851 811 851 811 874 746 c 0,19,20
 915 625 915 625 1018 622 c 0,21,22
 1083 623 1083 623 1118 673 c 1,4,-1
1118 613 m 1,23,-1
 1097 594 l 2,24,25
 1035 546 1035 546 960 546 c 0,26,27
 877 546 877 546 813 613 c 0,28,29
 774 651 774 651 760 695 c 0,30,31
 736 755 736 755 736 827 c 0,32,33
 736 951 736 951 801 1047 c 0,34,35
 878 1158 878 1158 993 1158 c 0,36,37
 1057 1158 1057 1158 1105 1121 c 2,38,-1
 1118 1110 l 1,39,-1
 1118 1261 l 1,40,-1
 1117 1287 l 2,41,42
 1112 1328 1112 1328 1059 1330 c 2,43,-1
 1032 1330 l 1,44,-1
 1032 1358 l 1,45,-1
 1223 1416 l 1,46,-1
 1223 693 l 2,47,48
 1223 650 1223 650 1236 641 c 2,49,-1
 1245 635 l 2,50,51
 1255 630 1255 630 1277 630 c 2,52,-1
 1309 632 l 1,53,-1
 1309 603 l 1,54,-1
 1118 546 l 1,55,-1
 1118 613 l 1,23,-1
EndSplineSet
EndChar
StartChar: Igrave
Encoding: 204 204 61
Width: 2048
Flags: W
Fore
0 2013 m 1,0,-1
 2048 2013 l 1,1,-1
 2048 1913 l 1,2,-1
 0 1913 l 1,3,-1
 0 2013 l 1,0,-1
1114 966 m 1,4,-1
 1111 993 l 2,5,6
 1098 1076 1098 1076 1054 1103 c 0,7,8
 1028 1119 1028 1119 1002 1119 c 0,9,10
 949 1119 949 1119 916 1073 c 256,11,12
 883 1027 883 1027 878 981 c 2,13,-1
 875 966 l 1,14,-1
 1114 966 l 1,4,-1
1267 742 m 1,15,-1
 1254 714 l 2,16,17
 1166 546 1166 546 1013 546 c 0,18,19
 900 546 900 546 834 638 c 0,20,21
 779 715 779 715 779 839 c 0,22,23
 779 915 779 915 803 987 c 0,24,25
 828 1064 828 1064 885 1110 c 0,26,27
 945 1157 945 1157 1023 1157 c 0,28,29
 1121 1155 1121 1155 1182 1092 c 0,30,31
 1241 1031 1241 1031 1247 931 c 2,32,-1
 1248 918 l 1,33,-1
 876 918 l 1,34,-1
 875 900 l 2,35,36
 875 828 875 828 890 780 c 0,37,38
 927 651 927 651 1054 650 c 0,39,40
 1156 650 1156 650 1225 732 c 2,41,-1
 1244 756 l 1,42,-1
 1267 742 l 1,15,-1
EndSplineSet
EndChar
StartChar: Iacute
Encoding: 205 205 62
Width: 2048
Flags: W
Fore
0 2013 m 1,0,-1
 2048 2013 l 1,1,-1
 2048 1913 l 1,2,-1
 0 1913 l 1,3,-1
 0 2013 l 1,0,-1
902 1119 m 1,4,-1
 905 1176 l 2,5,6
 910 1268 910 1268 964 1331 c 0,7,8
 1019 1394 1019 1394 1114 1396 c 0,9,10
 1243 1394 1243 1394 1246 1315 c 0,11,12
 1246 1262 1246 1262 1194 1262 c 0,13,14
 1160 1262 1160 1262 1132 1313 c 0,15,16
 1106 1356 1106 1356 1074 1358 c 0,17,18
 1010 1358 1010 1358 1010 1264 c 2,19,-1
 1008 1223 l 1,20,-1
 1007 1183 l 1,21,-1
 1007 1119 l 1,22,-1
 1151 1119 l 1,23,-1
 1151 1071 l 1,24,-1
 1007 1071 l 1,25,-1
 1007 701 l 2,26,27
 1007 646 1007 646 1016 615 c 0,28,29
 1025 576 1025 576 1086 575 c 2,30,-1
 1112 574 l 1,31,-1
 1112 546 l 1,32,-1
 816 546 l 1,33,-1
 816 574 l 1,34,35
 875 574 875 574 892 611 c 0,36,37
 902 632 902 632 902 701 c 2,38,-1
 902 1071 l 1,39,-1
 807 1071 l 1,40,-1
 807 1119 l 1,41,-1
 902 1119 l 1,4,-1
EndSplineSet
EndChar
StartChar: Icircumflex
Encoding: 206 206 63
Width: 2048
Flags: W
Fore
0 2013 m 1,0,-1
 2048 2013 l 1,1,-1
 2048 1913 l 1,2,-1
 0 1913 l 1,3,-1
 0 2013 l 1,0,-1
907 1001 m 0,4,5
 907 937 907 937 927 876 c 0,6,7
 955 787 955 787 1025 787 c 0,8,9
 1117 789 1117 789 1117 908 c 0,10,11
 1117 977 1117 977 1088 1039 c 0,12,13
 1051 1122 1051 1122 993 1122 c 0,14,15
 905 1118 905 1118 907 1001 c 0,4,5
904 567 m 1,16,-1
 873 533 l 2,17,18
 840 497 840 497 840 465 c 0,19,20
 840 376 840 376 1030 376 c 0,21,22
 1096 376 1096 376 1161 398 c 0,23,24
 1251 429 1251 429 1251 490 c 0,25,26
 1251 546 1251 546 1172 550 c 2,27,-1
 988 558 l 1,28,-1
 940 563 l 1,29,-1
 904 567 l 1,16,-1
1298 1074 m 1,30,-1
 1195 1074 l 1,31,-1
 1195 1072 l 1,32,-1
 1211 1019 l 2,33,34
 1222 979 1222 979 1222 950 c 0,35,36
 1222 897 1222 897 1192 845 c 0,37,38
 1163 793 1163 793 1112 770 c 0,39,40
 1067 749 1067 749 1025 749 c 0,41,42
 997 749 997 749 954 758 c 1,43,-1
 923 731 l 2,44,45
 898 706 898 706 897 686 c 0,46,47
 895 661 895 661 942 658 c 0,48,49
 960 656 960 656 980 654.5 c 128,-1,50
 1000 653 1000 653 1021 653 c 2,51,-1
 1125 650 l 2,52,53
 1289 641 1289 641 1289 510 c 0,54,55
 1287 415 1287 415 1166 350 c 0,56,57
 1073 300 1073 300 964 300 c 0,58,59
 888 300 888 300 834 328 c 0,60,61
 754 370 754 370 754 430 c 0,62,63
 754 452 754 452 784 489 c 2,64,-1
 809 517 l 1,65,-1
 868 577 l 1,66,67
 811 599 811 599 811 640 c 0,68,69
 811 673 811 673 851 712 c 2,70,-1
 893 749 l 1,71,-1
 916 769 l 1,72,73
 852 806 852 806 830 841 c 0,74,75
 802 885 802 885 802 947 c 0,76,77
 802 1041 802 1041 862 1100 c 0,78,79
 925 1160 925 1160 1016 1160 c 0,80,81
 1075 1160 1075 1160 1129 1134 c 2,82,-1
 1143 1128 l 1,83,-1
 1143 1129 l 1,84,85
 1162 1122 1162 1122 1203 1122 c 2,86,-1
 1298 1122 l 1,87,-1
 1298 1074 l 1,30,-1
EndSplineSet
EndChar
StartChar: Idieresis
Encoding: 207 207 64
Width: 2048
Flags: W
Fore
0 2013 m 1,0,-1
 2048 2013 l 1,1,-1
 2048 1913 l 1,2,-1
 0 1913 l 1,3,-1
 0 2013 l 1,0,-1
721 574 m 1,4,5
 773 575 773 575 792 605 c 0,6,7
 807 628 807 628 807 684 c 2,8,-1
 807 1241 l 1,9,-1
 806 1267 l 2,10,11
 804 1307 804 1307 747 1311 c 2,12,-1
 721 1310 l 1,13,-1
 721 1339 l 1,14,-1
 912 1396 l 1,15,-1
 912 1042 l 1,16,-1
 946 1075 l 2,17,18
 1015 1138 1015 1138 1087 1138 c 0,19,20
 1194 1138 1194 1138 1223 1041 c 0,21,22
 1233 1011 1233 1011 1235 973 c 2,23,-1
 1237 934 l 1,24,-1
 1237 697 l 2,25,26
 1237 631 1237 631 1247 610 c 0,27,28
 1264 574 1264 574 1323 574 c 1,29,-1
 1323 546 l 1,30,-1
 1046 546 l 1,31,-1
 1046 574 l 1,32,33
 1106 575 1106 575 1120 609 c 0,34,35
 1132 641 1132 641 1132 697 c 2,36,-1
 1132 936 l 2,37,38
 1132 941 1132 941 1127 986 c 0,39,40
 1113 1071 1113 1071 1037 1071 c 0,41,42
 990 1069 990 1069 949 1034 c 2,43,-1
 912 996 l 1,44,-1
 912 684 l 2,45,46
 912 624 912 624 925 605 c 0,47,48
 945 578 945 578 998 574 c 1,49,-1
 998 546 l 1,50,-1
 721 546 l 1,51,-1
 721 574 l 1,4,5
EndSplineSet
EndChar
StartChar: agrave
Encoding: 224 224 65
Width: 2048
Flags: W
Fore
1074 1446 m 1,0,-1
 1074 722 l 2,1,2
 1074 660 1074 660 1104 640 c 0,3,4
 1126 624 1126 624 1189 624 c 1,5,-1
 1189 596 l 1,6,-1
 855 596 l 1,7,-1
 855 624 l 1,8,9
 920 624 920 624 941 641 c 0,10,11
 969 667 969 667 969 728 c 2,12,-1
 969 1269 l 2,13,14
 969 1286 969 1286 963 1301 c 1,15,-1
 956 1313 l 2,16,17
 950 1322 950 1322 935 1322 c 0,18,19
 924 1322 924 1322 899 1312 c 2,20,-1
 855 1293 l 1,21,-1
 855 1322 l 1,22,-1
 1074 1446 l 1,0,-1
1915 0 m 1,23,-1
 1916 2049 l 1,24,-1
 2015 2049 l 1,25,-1
 2015 0 l 1,26,-1
 1915 0 l 1,23,-1
1640 0 m 1,27,-1
 1642 2049 l 1,28,-1
 1813 2049 l 1,29,-1
 1812 0 l 1,30,-1
 1640 0 l 1,27,-1
EndSplineSet
EndChar
StartChar: aacute
Encoding: 225 225 66
Width: 2048
Flags: W
Fore
1014 701 m 1,0,-1
 1071 702 l 2,1,2
 1109 703 1109 703 1128 724 c 2,3,-1
 1152 752 l 1,4,-1
 1171 777 l 1,5,-1
 1189 768 l 1,6,-1
 1122 596 l 1,7,-1
 635 596 l 1,8,-1
 635 616 l 1,9,-1
 744 732 l 1,10,-1
 843 837 l 2,11,12
 890 889 890 889 933 947 c 0,13,14
 975 1003 975 1003 992 1049 c 0,15,16
 1007 1097 1007 1097 1007 1160 c 0,17,18
 1007 1242 1007 1242 970 1291 c 0,19,20
 923 1350 923 1350 849 1350 c 0,21,22
 728 1350 728 1350 669 1222 c 2,23,-1
 659 1197 l 1,24,-1
 635 1208 l 1,25,-1
 641 1231 l 2,26,27
 666 1323 666 1323 729 1377 c 0,28,29
 762 1407 762 1407 809 1426 c 0,30,31
 861 1446 861 1446 911 1446 c 0,32,33
 1008 1444 1008 1444 1070 1381 c 0,34,35
 1132 1314 1132 1314 1132 1220 c 0,36,37
 1132 1110 1132 1110 1027 977 c 0,38,39
 968 907 968 907 914 851 c 2,40,-1
 831 765 l 1,41,-1
 771 705 l 1,42,-1
 771 701 l 1,43,-1
 1014 701 l 1,0,-1
1915 0 m 1,44,-1
 1916 2049 l 1,45,-1
 2015 2049 l 1,46,-1
 2015 0 l 1,47,-1
 1915 0 l 1,44,-1
1640 0 m 1,48,-1
 1642 2049 l 1,49,-1
 1813 2049 l 1,50,-1
 1812 0 l 1,51,-1
 1640 0 l 1,48,-1
EndSplineSet
EndChar
StartChar: acircumflex
Encoding: 226 226 67
Width: 2048
Flags: W
Fore
725 1292 m 2,0,1
 752 1368 752 1368 815 1414 c 0,2,3
 849 1439 849 1439 877 1448 c 0,4,5
 913 1459 913 1459 953 1459 c 0,6,7
 1026 1459 1026 1459 1077 1421 c 0,8,9
 1142 1373 1142 1373 1141 1292 c 0,10,11
 1139 1196 1139 1196 1064 1138 c 2,12,-1
 1036 1118 l 1,13,-1
 1036 1115 l 1,14,15
 1116 1076 1116 1076 1150 1024 c 0,16,17
 1187 965 1187 965 1189 884 c 0,18,19
 1189 747 1189 747 1085 665 c 0,20,21
 992 590 992 590 855 590 c 0,22,23
 709 587 709 587 711 661 c 0,24,25
 711 679 711 679 726 698 c 0,26,27
 740 714 740 714 763 714 c 0,28,29
 774 714 774 714 794 708 c 0,30,31
 815 700 815 700 836 690 c 0,32,33
 880 667 880 667 888 665 c 2,34,35
 910 656 910 656 940 656 c 0,36,37
 1006 656 1006 656 1052 708 c 0,38,39
 1092 754 1092 754 1094 828 c 0,40,41
 1090 915 1090 915 1027 972 c 0,42,43
 975 1017 975 1017 870 1019 c 2,44,-1
 836 1019 l 1,45,-1
 836 1048 l 1,46,47
 1010 1100 1010 1100 1039 1196 c 0,48,49
 1046 1214 1046 1214 1046 1237 c 0,50,51
 1044 1293 1044 1293 1003 1329 c 0,52,53
 966 1363 966 1363 908 1363 c 0,54,55
 848 1363 848 1363 803 1328 c 0,56,57
 775 1307 775 1307 735 1239 c 1,58,-1
 711 1250 l 1,59,-1
 725 1292 l 2,0,1
1915 0 m 1,60,-1
 1916 2049 l 1,61,-1
 2015 2049 l 1,62,-1
 2015 0 l 1,63,-1
 1915 0 l 1,60,-1
1640 0 m 1,64,-1
 1642 2049 l 1,65,-1
 1813 2049 l 1,66,-1
 1812 0 l 1,67,-1
 1640 0 l 1,64,-1
EndSplineSet
EndChar
StartChar: atilde
Encoding: 227 227 68
Width: 2048
Flags: W
Fore
1028 1453 m 1,0,-1
 1085 1453 l 1,1,-1
 1085 899 l 1,2,-1
 1210 899 l 1,3,-1
 1210 803 l 1,4,-1
 1085 803 l 1,5,-1
 1085 603 l 1,6,-1
 980 603 l 1,7,-1
 980 803 l 1,8,-1
 655 803 l 1,9,-1
 655 913 l 1,10,-1
 1028 1453 l 1,0,-1
701 896 m 1,11,-1
 701 899 l 1,12,-1
 980 899 l 1,13,-1
 980 1295 l 1,14,-1
 982 1295 l 1,15,-1
 701 896 l 1,11,-1
1915 0 m 1,16,-1
 1916 2049 l 1,17,-1
 2015 2049 l 1,18,-1
 2015 0 l 1,19,-1
 1915 0 l 1,16,-1
1640 0 m 1,20,-1
 1642 2049 l 1,21,-1
 1813 2049 l 1,22,-1
 1812 0 l 1,23,-1
 1640 0 l 1,20,-1
EndSplineSet
EndChar
StartChar: adieresis
Encoding: 228 228 69
Width: 2048
Flags: W
Fore
864 1447 m 1,0,-1
 1189 1447 l 1,1,-1
 1135 1341 l 1,2,-1
 872 1341 l 1,3,-1
 872 1338 l 1,4,-1
 823 1240 l 1,5,-1
 823 1241 l 1,6,-1
 868 1233 l 2,7,8
 1168 1175 1168 1175 1170 915 c 0,9,10
 1170 774 1170 774 1068 683 c 0,11,12
 972 596 972 596 830 596 c 0,13,14
 775 596 775 596 734 609 c 0,15,16
 673 628 673 628 673 675 c 0,17,18
 673 728 673 728 732 730 c 0,19,20
 763 730 763 730 828 690 c 0,21,22
 871 663 871 663 914 663 c 0,23,24
 985 663 985 663 1033 729 c 0,25,26
 1074 785 1074 785 1074 861 c 0,27,28
 1074 1071 1074 1071 779 1121 c 2,29,-1
 711 1131 l 1,30,-1
 864 1447 l 1,0,-1
1915 0 m 1,31,-1
 1916 2049 l 1,32,-1
 2015 2049 l 1,33,-1
 2015 0 l 1,34,-1
 1915 0 l 1,31,-1
1640 0 m 1,35,-1
 1642 2049 l 1,36,-1
 1813 2049 l 1,37,-1
 1812 0 l 1,38,-1
 1640 0 l 1,35,-1
EndSplineSet
EndChar
StartChar: aring
Encoding: 229 229 70
Width: 2048
Flags: W
Fore
809 1087 m 1,0,1
 899 1135 899 1135 969 1135 c 0,2,3
 1045 1135 1045 1135 1097 1093 c 0,4,5
 1155 1045 1155 1045 1175 980 c 0,6,7
 1189 936 1189 936 1189 881 c 0,8,9
 1189 709 1189 709 1074 627 c 0,10,11
 1046 605 1046 605 1013 595 c 0,12,13
 972 581 972 581 926 581 c 0,14,15
 798 581 798 581 718 696 c 0,16,17
 654 788 654 788 654 932 c 0,18,19
 654 1113 654 1113 746 1240 c 0,20,21
 787 1299 787 1299 854 1348 c 0,22,23
 914 1393 914 1393 978 1419 c 0,24,25
 1048 1447 1048 1447 1125 1451 c 2,26,-1
 1170 1450 l 1,27,-1
 1170 1422 l 1,28,-1
 1135 1414 l 2,29,30
 1094 1403 1094 1403 1038 1381 c 0,31,32
 881 1313 881 1313 824 1137 c 2,33,-1
 809 1087 l 1,0,1
791 1023 m 1,34,-1
 782 978 l 2,35,36
 778 958 778 958 778 920 c 0,37,38
 778 833 778 833 799 758 c 0,39,40
 805 725 805 725 830 687 c 0,41,42
 867 627 867 627 933 629 c 0,43,44
 1063 625 1063 625 1065 833 c 0,45,46
 1065 920 1065 920 1033 984 c 0,47,48
 989 1068 989 1068 913 1068 c 0,49,50
 860 1068 860 1068 791 1023 c 1,34,-1
1915 0 m 1,51,-1
 1916 2049 l 1,52,-1
 2015 2049 l 1,53,-1
 2015 0 l 1,54,-1
 1915 0 l 1,51,-1
1640 0 m 1,55,-1
 1642 2049 l 1,56,-1
 1813 2049 l 1,57,-1
 1812 0 l 1,58,-1
 1640 0 l 1,55,-1
EndSplineSet
EndChar
StartChar: ae
Encoding: 230 230 71
Width: 2048
Flags: W
Fore
721 1433 m 1,0,-1
 1189 1433 l 1,1,-1
 911 602 l 1,2,-1
 826 602 l 1,3,-1
 1073 1324 l 1,4,-1
 1073 1328 l 1,5,-1
 830 1328 l 1,6,-1
 786 1325 l 2,7,8
 728 1320 728 1320 703 1278 c 2,9,-1
 673 1232 l 1,10,-1
 645 1242 l 1,11,-1
 721 1433 l 1,0,-1
1915 0 m 1,12,-1
 1916 2049 l 1,13,-1
 2015 2049 l 1,14,-1
 2015 0 l 1,15,-1
 1915 0 l 1,12,-1
1640 0 m 1,16,-1
 1642 2049 l 1,17,-1
 1813 2049 l 1,18,-1
 1812 0 l 1,19,-1
 1640 0 l 1,16,-1
EndSplineSet
EndChar
StartChar: ccedilla
Encoding: 231 231 72
Width: 2048
Flags: W
Fore
821 1054 m 2,0,1
 791 1075 791 1075 761 1110 c 0,2,3
 711 1166 711 1166 711 1243 c 0,4,5
 711 1340 711 1340 779 1398 c 0,6,7
 841 1451 841 1451 942 1451 c 0,8,9
 1037 1451 1037 1451 1096 1409 c 0,10,11
 1170 1357 1170 1357 1170 1271 c 0,12,13
 1168 1184 1168 1184 1098 1123 c 0,14,15
 1064 1094 1064 1094 1037 1080 c 2,16,-1
 1004 1064 l 1,17,-1
 1002 1064 l 1,18,-1
 1048 1030 l 2,19,20
 1093 997 1093 997 1126 960 c 0,21,22
 1161 921 1161 921 1176 875 c 0,23,24
 1189 840 1189 840 1189 799 c 0,25,26
 1187 691 1187 691 1112 633 c 0,27,28
 1042 580 1042 580 936 582 c 0,29,30
 836 582 836 582 770 635 c 0,31,32
 692 698 692 698 692 792 c 0,33,34
 692 830 692 830 707 868 c 0,35,36
 735 943 735 943 834 1001 c 2,37,-1
 866 1020 l 1,38,-1
 864 1020 l 1,39,-1
 821 1054 l 2,0,1
907 987 m 1,40,-1
 904 987 l 1,41,-1
 863 957 l 2,42,43
 788 894 788 894 788 801 c 0,44,45
 788 732 788 732 838 681 c 0,46,47
 891 629 891 629 960 629 c 0,48,49
 1022 629 1022 629 1058 665 c 0,50,51
 1093 700 1093 700 1093 762 c 0,52,53
 1093 830 1093 830 1028 891 c 0,54,55
 999 917 999 917 967 943 c 2,56,-1
 907 987 l 1,40,-1
953 1096 m 1,57,-1
 960 1096 l 1,58,-1
 991 1119 l 2,59,60
 1034 1152 1034 1152 1053 1187 c 0,61,62
 1074 1224 1074 1224 1074 1276 c 0,63,64
 1074 1336 1074 1336 1035 1369 c 0,65,66
 998 1403 998 1403 939 1403 c 0,67,68
 882 1403 882 1403 846 1370 c 0,69,70
 807 1336 807 1336 807 1283 c 0,71,72
 807 1205 807 1205 914 1123 c 2,73,-1
 953 1096 l 1,57,-1
1915 0 m 1,74,-1
 1916 2049 l 1,75,-1
 2015 2049 l 1,76,-1
 2015 0 l 1,77,-1
 1915 0 l 1,74,-1
1640 0 m 1,78,-1
 1642 2049 l 1,79,-1
 1813 2049 l 1,80,-1
 1812 0 l 1,81,-1
 1640 0 l 1,78,-1
EndSplineSet
EndChar
StartChar: egrave
Encoding: 232 232 73
Width: 2048
Flags: W
Fore
0 1913 m 1,0,-1
 0 2013 l 1,1,-1
 2048 2013 l 1,2,-1
 2048 1913 l 1,3,-1
 0 1913 l 1,0,-1
0 1638 m 1,4,-1
 0 1809 l 1,5,-1
 2047 1809 l 1,6,-1
 2047 1638 l 1,7,-1
 0 1638 l 1,4,-1
1081 929 m 1,8,-1
 1081 961 l 2,9,10
 1081 989 1081 989 1077 1011 c 0,11,12
 1068 1084 1068 1084 997 1086 c 0,13,14
 921 1086 921 1086 919 1026 c 2,15,-1
 919 986 l 2,16,17
 917 923 917 923 860 923 c 0,18,19
 831 923 831 923 817 942 c 0,20,21
 804 960 804 960 804 987 c 0,22,23
 804 1027 804 1027 840 1065 c 0,24,25
 868 1094 868 1094 914 1110 c 0,26,27
 954 1124 954 1124 998 1124 c 0,28,29
 1038 1124 1038 1124 1076 1112 c 0,30,31
 1153 1087 1153 1087 1175 1023 c 0,32,33
 1186 991 1186 991 1186 963 c 2,34,-1
 1186 918 l 1,35,-1
 1186 685 l 1,36,-1
 1186 634 l 2,37,38
 1190 589 1190 589 1221 589 c 0,39,40
 1241 589 1241 589 1272 608 c 1,41,-1
 1272 570 l 1,42,-1
 1262 559 l 2,43,44
 1235 534 1235 534 1212 524 c 0,45,46
 1188 513 1188 513 1163 513 c 0,47,48
 1104 511 1104 511 1087 573 c 2,49,-1
 1081 599 l 1,50,-1
 1051 573 l 2,51,52
 976 513 976 513 908 513 c 0,53,54
 847 513 847 513 812 550 c 0,55,56
 776 586 776 586 776 645 c 0,57,58
 776 691 776 691 796 724 c 0,59,60
 818 759 818 759 854 786 c 0,61,62
 911 827 911 827 1011 867 c 2,63,-1
 1081 895 l 1,64,-1
 1081 929 l 1,8,-1
1081 847 m 1,65,-1
 1019 821 l 2,66,67
 888 765 888 765 890 679 c 0,68,69
 890 641 890 641 911 617 c 0,70,71
 933 589 933 589 969 589 c 0,72,73
 1019 589 1019 589 1064 629 c 2,74,-1
 1081 646 l 1,75,-1
 1081 847 l 1,65,-1
EndSplineSet
EndChar
StartChar: eacute
Encoding: 233 233 74
Width: 2048
Flags: W
Fore
959 1056 m 2,0,1
 1017 1116 1017 1116 1097 1116 c 0,2,3
 1134 1116 1134 1116 1169 1101 c 0,4,5
 1204 1085 1204 1085 1230 1057 c 0,6,7
 1270 1016 1270 1016 1288 965 c 0,8,9
 1311 896 1311 896 1311 832 c 0,10,11
 1309 726 1309 726 1264 651 c 0,12,13
 1211 563 1211 563 1129 527 c 0,14,15
 1077 505 1077 505 1023 505 c 0,16,17
 974 505 974 505 922 519 c 0,18,19
 875 531 875 531 852 550 c 2,20,-1
 823 575 l 1,21,-1
 823 1219 l 1,22,-1
 822 1245 l 2,23,24
 817 1287 817 1287 763 1289 c 2,25,-1
 737 1288 l 1,26,-1
 737 1317 l 1,27,-1
 929 1374 l 1,28,-1
 929 1021 l 1,29,-1
 959 1056 l 2,0,1
929 598 m 1,30,-1
 937 586 l 2,31,32
 972 543 972 543 1034 543 c 0,33,34
 1097 543 1097 543 1139 588 c 0,35,36
 1165 615 1165 615 1176 650 c 0,37,38
 1196 711 1196 711 1196 785 c 0,39,40
 1196 878 1196 878 1165 947 c 0,41,42
 1123 1040 1123 1040 1044 1040 c 0,43,44
 958 1036 958 1036 935 958 c 0,45,46
 929 940 929 940 929 911 c 2,47,-1
 929 598 l 1,30,-1
0 1913 m 1,48,-1
 0 2013 l 1,49,-1
 2048 2013 l 1,50,-1
 2048 1913 l 1,51,-1
 0 1913 l 1,48,-1
0 1638 m 1,52,-1
 0 1809 l 1,53,-1
 2047 1809 l 1,54,-1
 2047 1638 l 1,55,-1
 0 1638 l 1,52,-1
EndSplineSet
EndChar
StartChar: ecircumflex
Encoding: 234 234 75
Width: 2048
Flags: W
Fore
1261 702 m 1,0,-1
 1248 674 l 2,1,2
 1223 628 1223 628 1188 586 c 0,3,4
 1146 539 1146 539 1100 521 c 0,5,6
 1062 505 1062 505 1013 505 c 0,7,8
 954 505 954 505 913 527 c 0,9,10
 869 551 869 551 842 589 c 0,11,12
 809 636 809 636 795 696 c 0,13,14
 783 747 783 747 783 802 c 0,15,16
 784 949 784 949 854 1036 c 0,17,18
 914 1113 914 1113 1032 1117 c 0,19,20
 1103 1117 1103 1117 1153 1087 c 0,21,22
 1223 1048 1223 1048 1223 988 c 0,23,24
 1221 935 1221 935 1167 935 c 0,25,26
 1111 935 1111 935 1099 1009 c 0,27,28
 1089 1048 1089 1048 1076 1061 c 0,29,30
 1059 1078 1059 1078 1023 1078 c 0,31,32
 950 1078 950 1078 908 1004 c 0,33,34
 879 952 879 952 879 861 c 0,35,36
 879 801 879 801 890 755 c 0,37,38
 920 610 920 610 1054 610 c 0,39,40
 1152 610 1152 610 1220 691 c 2,41,-1
 1238 715 l 1,42,-1
 1261 702 l 1,0,-1
0 1913 m 1,43,-1
 0 2013 l 1,44,-1
 2048 2013 l 1,45,-1
 2048 1913 l 1,46,-1
 0 1913 l 1,43,-1
0 1638 m 1,47,-1
 0 1809 l 1,48,-1
 2047 1809 l 1,49,-1
 2047 1638 l 1,50,-1
 0 1638 l 1,47,-1
EndSplineSet
EndChar
StartChar: edieresis
Encoding: 235 235 76
Width: 2048
Flags: W
Fore
1118 572 m 1,0,-1
 1097 553 l 2,1,2
 1035 505 1035 505 960 505 c 0,3,4
 877 505 877 505 813 572 c 0,5,6
 774 610 774 610 760 654 c 0,7,8
 736 714 736 714 736 786 c 0,9,10
 736 912 736 912 801 1006 c 0,11,12
 878 1117 878 1117 993 1117 c 0,13,14
 1057 1117 1057 1117 1105 1080 c 2,15,-1
 1118 1069 l 1,16,-1
 1118 1220 l 1,17,-1
 1117 1246 l 2,18,19
 1112 1287 1112 1287 1059 1289 c 2,20,-1
 1032 1289 l 1,21,-1
 1032 1317 l 1,22,-1
 1223 1375 l 1,23,-1
 1223 652 l 2,24,25
 1223 609 1223 609 1236 600 c 2,26,-1
 1245 594 l 2,27,28
 1255 589 1255 589 1277 589 c 2,29,-1
 1309 591 l 1,30,-1
 1309 562 l 1,31,-1
 1118 505 l 1,32,-1
 1118 572 l 1,0,-1
1118 632 m 1,33,-1
 1118 921 l 2,34,35
 1118 962 1118 962 1108 997 c 0,36,37
 1098 1027 1098 1027 1065 1055 c 0,38,39
 1034 1078 1034 1078 998 1078 c 0,40,41
 942 1078 942 1078 908 1036 c 0,42,43
 883 1011 883 1011 871 972 c 0,44,45
 851 916 851 916 851 845 c 0,46,47
 851 770 851 770 874 705 c 0,48,49
 915 584 915 584 1018 581 c 0,50,51
 1083 582 1083 582 1118 632 c 1,33,-1
0 1913 m 1,52,-1
 0 2013 l 1,53,-1
 2048 2013 l 1,54,-1
 2048 1913 l 1,55,-1
 0 1913 l 1,52,-1
0 1638 m 1,56,-1
 0 1809 l 1,57,-1
 2047 1809 l 1,58,-1
 2047 1638 l 1,59,-1
 0 1638 l 1,56,-1
EndSplineSet
EndChar
StartChar: igrave
Encoding: 236 236 77
Width: 2048
Flags: W
Fore
1267 701 m 1,0,-1
 1254 673 l 2,1,2
 1166 505 1166 505 1013 505 c 0,3,4
 900 505 900 505 834 597 c 0,5,6
 779 674 779 674 779 798 c 0,7,8
 779 874 779 874 803 946 c 0,9,10
 828 1023 828 1023 885 1069 c 0,11,12
 945 1116 945 1116 1023 1116 c 0,13,14
 1121 1114 1121 1114 1182 1051 c 0,15,16
 1240 992 1240 992 1247 890 c 2,17,-1
 1248 877 l 1,18,-1
 876 877 l 1,19,-1
 875 859 l 2,20,21
 875 787 875 787 890 739 c 0,22,23
 927 610 927 610 1054 609 c 0,24,25
 1156 609 1156 609 1225 691 c 2,26,-1
 1244 715 l 1,27,-1
 1267 701 l 1,0,-1
1114 925 m 1,28,-1
 1111 952 l 2,29,30
 1098 1035 1098 1035 1054 1062 c 0,31,32
 1028 1078 1028 1078 1002 1078 c 0,33,34
 949 1078 949 1078 916 1032 c 256,35,36
 883 986 883 986 878 940 c 2,37,-1
 875 925 l 1,38,-1
 1114 925 l 1,28,-1
0 1913 m 1,39,-1
 0 2013 l 1,40,-1
 2048 2013 l 1,41,-1
 2048 1913 l 1,42,-1
 0 1913 l 1,39,-1
0 1638 m 1,43,-1
 0 1809 l 1,44,-1
 2047 1809 l 1,45,-1
 2047 1638 l 1,46,-1
 0 1638 l 1,43,-1
EndSplineSet
EndChar
StartChar: iacute
Encoding: 237 237 78
Width: 2048
Flags: W
Fore
902 1078 m 1,0,-1
 905 1135 l 2,1,2
 910 1227 910 1227 964 1290 c 0,3,4
 1019 1353 1019 1353 1114 1355 c 0,5,6
 1243 1353 1243 1353 1246 1274 c 0,7,8
 1246 1221 1246 1221 1194 1221 c 0,9,10
 1160 1221 1160 1221 1132 1272 c 0,11,12
 1106 1315 1106 1315 1074 1317 c 0,13,14
 1010 1317 1010 1317 1010 1223 c 2,15,-1
 1008 1182 l 1,16,-1
 1007 1142 l 1,17,-1
 1007 1078 l 1,18,-1
 1151 1078 l 1,19,-1
 1151 1030 l 1,20,-1
 1007 1030 l 1,21,-1
 1007 660 l 2,22,23
 1007 605 1007 605 1016 574 c 0,24,25
 1025 535 1025 535 1086 534 c 2,26,-1
 1112 533 l 1,27,-1
 1112 505 l 1,28,-1
 816 505 l 1,29,-1
 816 533 l 1,30,31
 875 533 875 533 892 570 c 0,32,33
 902 591 902 591 902 660 c 2,34,-1
 902 1030 l 1,35,-1
 807 1030 l 1,36,-1
 807 1078 l 1,37,-1
 902 1078 l 1,0,-1
0 1913 m 1,38,-1
 0 2013 l 1,39,-1
 2048 2013 l 1,40,-1
 2048 1913 l 1,41,-1
 0 1913 l 1,38,-1
0 1638 m 1,42,-1
 0 1809 l 1,43,-1
 2047 1809 l 1,44,-1
 2047 1638 l 1,45,-1
 0 1638 l 1,42,-1
EndSplineSet
EndChar
StartChar: icircumflex
Encoding: 238 238 79
Width: 2048
Flags: W
Fore
1298 1033 m 1,0,-1
 1195 1033 l 1,1,-1
 1195 1031 l 1,2,-1
 1211 978 l 2,3,4
 1222 938 1222 938 1222 909 c 0,5,6
 1222 856 1222 856 1192 804 c 0,7,8
 1163 752 1163 752 1112 729 c 0,9,10
 1067 708 1067 708 1025 708 c 0,11,12
 997 708 997 708 954 717 c 1,13,-1
 923 690 l 2,14,15
 898 665 898 665 897 645 c 0,16,17
 895 621 895 621 942 617 c 0,18,19
 960 615 960 615 980 613.5 c 128,-1,20
 1000 612 1000 612 1021 612 c 2,21,-1
 1125 609 l 2,22,23
 1289 600 1289 600 1289 469 c 0,24,25
 1287 374 1287 374 1166 309 c 0,26,27
 1073 259 1073 259 964 259 c 0,28,29
 888 259 888 259 834 287 c 0,30,31
 754 329 754 329 754 389 c 0,32,33
 754 411 754 411 784 448 c 2,34,-1
 809 476 l 1,35,-1
 868 536 l 1,36,37
 811 560 811 560 811 599 c 0,38,39
 811 632 811 632 851 671 c 2,40,-1
 893 708 l 1,41,-1
 916 728 l 1,42,43
 852 765 852 765 830 800 c 0,44,45
 802 844 802 844 802 906 c 0,46,47
 802 1000 802 1000 862 1059 c 0,48,49
 925 1119 925 1119 1016 1119 c 0,50,51
 1075 1119 1075 1119 1129 1093 c 2,52,-1
 1143 1087 l 1,53,-1
 1143 1088 l 1,54,55
 1162 1081 1162 1081 1203 1081 c 2,56,-1
 1298 1081 l 1,57,-1
 1298 1033 l 1,0,-1
904 526 m 1,58,-1
 873 492 l 2,59,60
 840 456 840 456 840 424 c 0,61,62
 840 335 840 335 1030 335 c 0,63,64
 1096 335 1096 335 1161 357 c 0,65,66
 1251 388 1251 388 1251 449 c 0,67,68
 1251 505 1251 505 1172 509 c 2,69,-1
 988 517 l 1,70,-1
 940 522 l 1,71,-1
 904 526 l 1,58,-1
907 960 m 0,72,73
 907 896 907 896 927 835 c 0,74,75
 955 746 955 746 1025 746 c 0,76,77
 1117 748 1117 748 1117 867 c 0,78,79
 1117 936 1117 936 1088 998 c 0,80,81
 1051 1081 1051 1081 993 1081 c 0,82,83
 905 1079 905 1079 907 960 c 0,72,73
0 1913 m 1,84,-1
 0 2013 l 1,85,-1
 2048 2013 l 1,86,-1
 2048 1913 l 1,87,-1
 0 1913 l 1,84,-1
0 1638 m 1,88,-1
 0 1809 l 1,89,-1
 2047 1809 l 1,90,-1
 2047 1638 l 1,91,-1
 0 1638 l 1,88,-1
EndSplineSet
EndChar
StartChar: idieresis
Encoding: 239 239 80
Width: 2048
Flags: W
Fore
721 533 m 1,0,1
 773 534 773 534 792 564 c 0,2,3
 807 587 807 587 807 643 c 2,4,-1
 807 1200 l 1,5,-1
 806 1226 l 2,6,7
 804 1266 804 1266 747 1270 c 2,8,-1
 721 1269 l 1,9,-1
 721 1298 l 1,10,-1
 912 1355 l 1,11,-1
 912 1001 l 1,12,-1
 946 1034 l 2,13,14
 1015 1097 1015 1097 1087 1097 c 0,15,16
 1194 1097 1194 1097 1223 1000 c 0,17,18
 1233 970 1233 970 1235 932 c 2,19,-1
 1237 893 l 1,20,-1
 1237 656 l 2,21,22
 1237 590 1237 590 1247 569 c 0,23,24
 1264 533 1264 533 1323 533 c 1,25,-1
 1323 505 l 1,26,-1
 1046 505 l 1,27,-1
 1046 533 l 1,28,29
 1106 534 1106 534 1120 569 c 0,30,31
 1132 599 1132 599 1132 656 c 2,32,-1
 1132 895 l 2,33,34
 1132 900 1132 900 1127 945 c 0,35,36
 1113 1030 1113 1030 1037 1030 c 0,37,38
 990 1028 990 1028 949 993 c 2,39,-1
 912 955 l 1,40,-1
 912 643 l 2,41,42
 912 583 912 583 925 564 c 0,43,44
 945 537 945 537 998 533 c 1,45,-1
 998 505 l 1,46,-1
 721 505 l 1,47,-1
 721 533 l 1,0,1
0 1913 m 1,48,-1
 0 2013 l 1,49,-1
 2048 2013 l 1,50,-1
 2048 1913 l 1,51,-1
 0 1913 l 1,48,-1
0 1638 m 1,52,-1
 0 1809 l 1,53,-1
 2047 1809 l 1,54,-1
 2047 1638 l 1,55,-1
 0 1638 l 1,52,-1
EndSplineSet
EndChar
StartChar: T
Encoding: 84 84 81
Width: 2048
Flags: W
Fore
1554 444 m 1,0,-1
 1485 444 l 1,1,-1
 1484 460 l 1,2,-1
 564 460 l 1,3,-1
 564 444 l 1,4,-1
 494 444 l 1,5,-1
 494 649 l 1,6,-1
 665 819 l 1,7,-1
 665 1297 l 1,8,-1
 443 1468 l 1,9,-1
 443 1843 l 1,10,-1
 716 1843 l 1,11,-1
 716 1706 l 1,12,-1
 887 1706 l 1,13,-1
 887 1843 l 1,14,-1
 1161 1843 l 1,15,-1
 1161 1706 l 1,16,-1
 1331 1706 l 1,17,-1
 1331 1843 l 1,18,-1
 1605 1843 l 1,19,-1
 1605 1468 l 1,20,-1
 1383 1297 l 1,21,-1
 1383 819 l 1,22,-1
 1553 649 l 1,23,-1
 1554 444 l 1,0,-1
1024 1552 m 1,24,-1
 512 1552 l 1,25,-1
 512 1506 l 1,26,-1
 585 1451 l 1,27,-1
 1464 1451 l 1,28,-1
 1535 1506 l 1,29,-1
 1535 1552 l 1,30,-1
 1024 1552 l 1,24,-1
1024 1383 m 1,31,-1
 674 1383 l 1,32,-1
 734 1336 l 1,33,-1
 734 1279 l 1,34,-1
 1314 1279 l 1,35,-1
 1314 1336 l 1,36,-1
 1374 1383 l 1,37,-1
 1024 1383 l 1,31,-1
1024 837 m 1,38,-1
 734 837 l 1,39,-1
 734 791 l 1,40,-1
 674 733 l 1,41,-1
 1374 733 l 1,42,-1
 1314 791 l 1,43,-1
 1314 837 l 1,44,-1
 1024 837 l 1,38,-1
1024 665 m 1,45,-1
 610 665 l 1,46,-1
 564 622 l 1,47,-1
 564 564 l 1,48,-1
 1484 564 l 1,49,-1
 1484 622 l 1,50,-1
 1438 665 l 1,51,-1
 1024 665 l 1,45,-1
504 1317 m 1,52,-1
 0 814 l 1,53,-1
 0 858 l 1,54,-1
 478 1338 l 1,55,-1
 504 1317 l 1,52,-1
580 1118 m 1,56,-1
 0 537 l 1,57,-1
 0 585 l 1,58,-1
 580 1165 l 1,59,-1
 580 1118 l 1,56,-1
359 1497 m 1,60,-1
 0 1136 l 1,61,-1
 0 1094 l 1,62,-1
 359 1452 l 1,63,-1
 359 1497 l 1,60,-1
360 1774 m 1,64,-1
 0 1413 l 1,65,-1
 0 1370 l 1,66,-1
 360 1730 l 1,67,-1
 360 1774 l 1,64,-1
579 842 m 1,68,-1
 579 888 l 1,69,-1
 0 309 l 1,70,-1
 0 261 l 1,71,-1
 579 842 l 1,68,-1
1791 390 m 1,72,-1
 1792 436 l 1,73,-1
 2048 691 l 1,74,-1
 2048 646 l 1,75,-1
 1791 390 l 1,72,-1
1468 905 m 1,76,-1
 1469 949 l 1,77,-1
 2048 1528 l 1,78,-1
 2048 1483 l 1,79,-1
 1468 905 l 1,76,-1
1468 1182 m 1,80,-1
 1468 1225 l 1,81,-1
 2048 1804 l 1,82,-1
 2048 1759 l 1,83,-1
 1468 1182 l 1,80,-1
1688 1681 m 1,84,-1
 1688 1720 l 1,85,-1
 2015 2047 l 1,86,87
 2048 2047 2048 2047 2048 2040 c 1,88,-1
 1688 1681 l 1,84,-1
1386 1927 m 1,89,-1
 1342 1927 l 1,90,-1
 1462 2047 l 1,91,-1
 1507 2047 l 1,92,-1
 1386 1927 l 1,89,-1
1111 1927 m 1,93,-1
 1067 1927 l 1,94,-1
 1185 2047 l 1,95,-1
 1230 2047 l 1,96,-1
 1111 1927 l 1,93,-1
835 1928 m 1,97,-1
 788 1927 l 1,98,-1
 909 2047 l 1,99,-1
 954 2047 l 1,100,-1
 835 1928 l 1,97,-1
0 1691 m 1,101,-1
 356 2047 l 1,102,-1
 401 2047 l 1,103,-1
 0 1647 l 1,104,-1
 0 1691 l 1,101,-1
0 1923 m 1,105,-1
 0 1967 l 1,106,-1
 79 2047 l 1,107,-1
 124 2047 l 1,108,-1
 0 1923 l 1,105,-1
1579 736 m 1,109,-1
 1555 760 l 1,110,-1
 2048 1251 l 1,111,-1
 2048 1206 l 1,112,-1
 1579 736 l 1,109,-1
1639 516 m 1,113,-1
 1639 562 l 1,114,-1
 2048 970 l 1,115,-1
 2048 923 l 1,116,-1
 1639 516 l 1,113,-1
1663 1927 m 1,117,-1
 1618 1927 l 1,118,-1
 1738 2047 l 1,119,-1
 1783 2047 l 1,120,-1
 1663 1927 l 1,117,-1
557 1928 m 1,121,-1
 512 1928 l 1,122,-1
 632 2047 l 1,123,-1
 677 2047 l 1,124,-1
 557 1928 l 1,121,-1
361 119 m 1,125,-1
 406 119 l 1,126,-1
 286 0 l 1,127,-1
 241 0 l 1,128,-1
 361 119 l 1,125,-1
1523 119 m 1,129,-1
 1402 0 l 1,130,-1
 1353 0 l 1,131,-1
 1474 119 l 1,132,-1
 1523 119 l 1,129,-1
1630 0 m 1,133,-1
 2048 416 l 1,134,-1
 2048 370 l 1,135,-1
 1677 0 l 1,136,-1
 1630 0 l 1,133,-1
1949 0 m 1,137,-1
 1906 0 l 1,138,-1
 2048 140 l 1,139,-1
 2048 95 l 1,140,-1
 1949 0 l 1,137,-1
1198 119 m 1,141,-1
 1244 119 l 1,142,-1
 1124 0 l 1,143,-1
 1077 0 l 1,144,-1
 1198 119 l 1,141,-1
914 119 m 1,145,-1
 958 119 l 1,146,-1
 839 0 l 1,147,-1
 794 0 l 1,148,-1
 914 119 l 1,145,-1
637 119 m 1,149,-1
 683 119 l 1,150,-1
 563 0 l 1,151,-1
 518 0 l 1,152,-1
 637 119 l 1,149,-1
253 285 m 1,153,-1
 253 239 l 1,154,-1
 13 0 l 1,155,156
 0 0 0 0 0 32 c 1,157,-1
 253 285 l 1,153,-1
1485 444 m 1,158,-1
 1485 358 l 1,159,-1
 564 358 l 1,160,-1
 565 444 l 1,161,-1
 342 444 l 1,162,-1
 342 205 l 1,163,-1
 1707 205 l 1,164,-1
 1707 444 l 1,165,-1
 1485 444 l 1,158,-1
EndSplineSet
EndChar
